<?xml version="1.0" encoding="utf-8"?>
<!-- Generator: Adobe Illustrator 26.2.1, SVG Export Plug-In . SVG Version: 6.00 Build 0)  -->
<svg version="1.1" id="Layer_1" xmlns="http://www.w3.org/2000/svg" xmlns:xlink="http://www.w3.org/1999/xlink" x="0px" y="0px"
	 viewBox="0 0 432 764" style="enable-background:new 0 0 432 764;" xml:space="preserve">
<style type="text/css">
	.st0{opacity:0.17;}
	.st1{fill:#FFFFFF;stroke:#6666FF;stroke-width:4;stroke-linecap:round;}
	.st2{fill:#FFFFFF;stroke:#6666FF;stroke-width:4;stroke-linecap:round;stroke-linejoin:round;}
	.st3{fill:none;stroke:#6666FF;stroke-width:4;stroke-linecap:round;stroke-linejoin:round;}
</style>
<g class="st0">
	<g>
		<path class="st1" d="M74.3,30.7h285.6c10.9,0,21.4,4.3,29.1,12.1C396.7,50.5,401,61,401,71.9v616.6c0,10.9-4.3,21.4-12.1,29.1
			c-7.7,7.7-18.2,12.1-29.1,12.1H74.3c-10.9,0-21.4-4.3-29.1-12.1c-7.7-7.7-12.1-18.2-12.1-29.1V71.9c0-10.9,4.3-21.4,12.1-29.1
			C52.9,35.1,63.3,30.7,74.3,30.7L74.3,30.7z"/>
	</g>
	<path class="st2" d="M122.1,30.7h189.9v17.6c0,2.5-0.5,5-1.5,7.3c-1,2.3-2.4,4.4-4.1,6.2c-1.8,1.8-3.9,3.2-6.2,4.1
		c-2.3,1-4.8,1.5-7.3,1.5H141.2c-2.5,0-5-0.5-7.3-1.5c-2.3-1-4.4-2.4-6.2-4.1c-1.8-1.8-3.2-3.9-4.1-6.2c-1-2.3-1.5-4.8-1.5-7.3V30.7
		z"/>
	<path class="st3" d="M33.1,640.2H401"/>
</g>
</svg>
