<svg width="432" height="764" viewBox="0 0 432 764" fill="none" xmlns="http://www.w3.org/2000/svg">
<g opacity="0.17">
<g filter="url(#filter0_d_250_15291)">
<path d="M48.2621 7.7417H333.832C344.751 7.7417 355.222 12.079 362.942 19.7995C370.663 27.5199 375 37.9911 375 48.9095V665.528C375 676.447 370.663 686.918 362.942 694.638C355.222 702.359 344.751 706.696 333.832 706.696H48.2621C37.3437 706.696 26.8725 702.359 19.152 694.638C11.4316 686.918 7.09424 676.447 7.09424 665.528L7.09424 48.9095C7.09424 37.9911 11.4316 27.5199 19.152 19.7995C26.8725 12.079 37.3437 7.7417 48.2621 7.7417V7.7417Z" fill="white" stroke="#6666FF" stroke-width="4" stroke-linecap="round"/>
</g>
<path d="M96.145 7.7417H286.084V25.3639C286.086 27.8729 285.593 30.3576 284.633 32.676C283.674 34.9943 282.267 37.1008 280.493 38.8749C278.719 40.649 276.612 42.056 274.294 43.0153C271.976 43.9747 269.491 44.4675 266.982 44.4658H115.247C112.738 44.4675 110.253 43.9747 107.935 43.0153C105.616 42.056 103.51 40.649 101.736 38.8749C99.9618 37.1008 98.5548 34.9943 97.5955 32.676C96.6361 30.3576 96.1433 27.8729 96.145 25.3639V7.7417Z" fill="white" stroke="#6666FF" stroke-width="4" stroke-linecap="round" stroke-linejoin="round"/>
<path d="M7.09424 617.241H375" stroke="#6666FF" stroke-width="4" stroke-linecap="round" stroke-linejoin="round"/>
</g>
<defs>
<filter id="filter0_d_250_15291" x="0.0942383" y="0.741699" width="431.906" height="762.955" filterUnits="userSpaceOnUse" color-interpolation-filters="sRGB">
<feFlood flood-opacity="0" result="BackgroundImageFix"/>
<feColorMatrix in="SourceAlpha" type="matrix" values="0 0 0 0 0 0 0 0 0 0 0 0 0 0 0 0 0 0 127 0" result="hardAlpha"/>
<feOffset dx="25" dy="25"/>
<feGaussianBlur stdDeviation="15"/>
<feColorMatrix type="matrix" values="0 0 0 0 0 0 0 0 0 0 0 0 0 0 0 0 0 0 0.502 0"/>
<feBlend mode="normal" in2="BackgroundImageFix" result="effect1_dropShadow_250_15291"/>
<feBlend mode="normal" in="SourceGraphic" in2="effect1_dropShadow_250_15291" result="shape"/>
</filter>
</defs>
</svg>
