<?xml version="1.0" encoding="UTF-8"?><svg id="Capa_2" xmlns="http://www.w3.org/2000/svg" xmlns:xlink="http://www.w3.org/1999/xlink" viewBox="0 0 676.55 310.12"><defs><style>.cls-1{fill:#fff;}.cls-2{fill:#fff;}</style><linearGradient id="Degradado_sin_nombre_2" x1="168.79" y1="97.75" x2="507.77" y2="97.75" gradientTransform="matrix(1, 0, 0, 1, 0, 0)" gradientUnits="userSpaceOnUse"><stop offset="0" stop-color="#66f"/><stop offset="1" stop-color="#a63ae6"/></linearGradient></defs><g id="Capa_1-2"><g><path class="cls-2" d="M495.17,110.58h-51.18l-34.95,38.6V12.76c.13-7.03-5.59-12.76-12.62-12.76-4.84,0-9.33,2.81-11.46,7.15l-57.15,116.81c-.11,.22-10.96,22.16-24.19,32.67-12.27,9.74-22.31,13.36-37.07,13.36-39.85,0-72.26-32.42-72.26-72.26S226.7,25.47,266.54,25.47c11.99,0,23.88,3.01,34.39,8.7,3.19,1.73,6.84,2.05,10.27,.9,3.2-1.07,5.87-3.42,7.36-6.45,3.02-6.16,.65-13.56-5.39-16.85-13.58-7.38-29.01-11.46-44.63-11.61h-3.11c-53.29,.43-96.64,44.27-96.64,97.56s43.85,97.76,97.76,97.76c20.69,0,36.03-5.47,52.92-18.89,17.86-14.18,30.7-40.33,31.24-41.44l33.13-67.38v114.6c0,6.85,5.57,12.42,12.42,12.42,3.29,0,6.5-1.34,8.82-3.68l50.09-55.35h39.67c6.84,0,12.68-5.31,12.93-12.14,.26-7.16-5.49-13.06-12.59-13.06Zm-271.1-.26c-6.96,0-12.6-5.64-12.6-12.6,0-30.39,24.72-55.11,55.11-55.11,6.96,0,12.6,5.64,12.6,12.6s-5.64,12.6-12.6,12.6c-16.49,0-29.91,13.42-29.91,29.91,0,6.96-5.64,12.6-12.6,12.6Zm42.77-24.94c6.96,0,12.6,5.64,12.6,12.6s-5.64,12.6-12.6,12.6-12.6-5.64-12.6-12.6,5.64-12.6,12.6-12.6Z"/><g><path class="cls-1" d="M15.56,305.79c-4.82-2.89-8.62-6.83-11.4-11.85-2.78-5.01-4.17-10.54-4.17-16.58s1.39-11.48,4.17-16.46c2.78-4.98,6.58-8.93,11.4-11.84,4.82-2.91,10.14-4.37,15.97-4.37,4.14,0,7.72,.54,10.74,1.63,3.02,1.09,6.09,2.89,9.19,5.39,.65,.49,1.09,.99,1.31,1.51,.22,.52,.33,1.13,.33,1.84,0,1.09-.4,1.99-1.18,2.7-.79,.71-1.7,1.06-2.74,1.06s-1.99-.35-2.86-1.06c-2.23-1.91-4.41-3.28-6.53-4.13-2.12-.84-4.87-1.27-8.25-1.27-4.25,0-8.16,1.12-11.72,3.35-3.57,2.23-6.4,5.27-8.5,9.11-2.1,3.84-3.15,8.02-3.15,12.54s1.05,8.77,3.15,12.58c2.1,3.81,4.93,6.83,8.5,9.07,3.57,2.23,7.47,3.35,11.72,3.35,5.23,0,10.24-1.8,15.03-5.39,.93-.65,1.82-.98,2.7-.98,1.03,0,1.89,.37,2.57,1.1,.68,.74,1.02,1.7,1.02,2.9s-.44,2.15-1.31,3.02c-5.88,4.74-12.55,7.11-20.01,7.11-5.83,0-11.15-1.44-15.97-4.33Z"/><path class="cls-1" d="M93.98,267.27c3.4,1.99,6.1,4.71,8.09,8.17,1.99,3.46,2.98,7.31,2.98,11.56v18.22c0,1.2-.4,2.19-1.18,2.98-.79,.79-1.78,1.18-2.98,1.18s-2.19-.39-2.98-1.18c-.79-.79-1.18-1.78-1.18-2.98v-3.02c-1.91,2.34-4.22,4.17-6.94,5.47-2.72,1.31-5.66,1.96-8.82,1.96-3.92,0-7.47-.98-10.66-2.94-3.19-1.96-5.69-4.67-7.52-8.13-1.83-3.46-2.74-7.31-2.74-11.56s.98-8.1,2.94-11.56c1.96-3.46,4.67-6.18,8.13-8.17,3.46-1.99,7.28-2.98,11.48-2.98s7.99,.99,11.4,2.98Zm-4,33c2.21-1.33,3.93-3.16,5.19-5.47,1.25-2.31,1.88-4.91,1.88-7.8s-.63-5.5-1.88-7.84c-1.25-2.34-2.98-4.18-5.19-5.51-2.21-1.33-4.67-2-7.39-2s-5.19,.67-7.39,2c-2.21,1.33-3.95,3.17-5.23,5.51-1.28,2.34-1.92,4.96-1.92,7.84s.64,5.49,1.92,7.8c1.28,2.32,3.02,4.14,5.23,5.47,2.21,1.34,4.67,2,7.39,2s5.19-.67,7.39-2Z"/><path class="cls-1" d="M146.14,265.43c1.63,.87,2.45,1.96,2.45,3.27,0,.38-.03,.65-.08,.82-.49,1.74-1.58,2.61-3.27,2.61-.27,0-.68-.05-1.23-.16-2.18-.38-3.95-.57-5.31-.57-3.92,0-7.08,.9-9.48,2.7-2.4,1.8-3.59,4.22-3.59,7.27v23.85c0,1.31-.34,2.32-1.02,3.02-.68,.71-1.7,1.06-3.06,1.06s-2.32-.34-3.02-1.02c-.71-.68-1.06-1.7-1.06-3.06v-36.52c0-1.31,.35-2.31,1.06-3.02,.71-.71,1.72-1.06,3.02-1.06,2.72,0,4.08,1.36,4.08,4.08v1.55c1.63-1.91,3.65-3.4,6.05-4.49,2.4-1.09,4.96-1.63,7.68-1.63,2.89,0,5.15,.44,6.78,1.31Z"/><path class="cls-1" d="M192.95,288.83c-.71,.68-1.61,1.02-2.7,1.02h-31.04c.6,3.81,2.33,6.89,5.19,9.23,2.86,2.34,6.36,3.51,10.5,3.51,1.63,0,3.34-.3,5.11-.9,1.77-.6,3.23-1.33,4.37-2.21,.76-.6,1.66-.9,2.7-.9s1.85,.27,2.45,.82c.98,.82,1.47,1.74,1.47,2.78,0,.98-.44,1.8-1.31,2.45-1.85,1.47-4.15,2.67-6.9,3.59-2.75,.93-5.38,1.39-7.88,1.39-4.47,0-8.47-.97-12.01-2.9-3.54-1.93-6.3-4.62-8.29-8.05-1.99-3.43-2.98-7.32-2.98-11.68s.94-8.26,2.82-11.72c1.88-3.46,4.49-6.15,7.84-8.09,3.35-1.93,7.15-2.9,11.4-2.9s7.81,.93,10.86,2.78c3.05,1.85,5.39,4.44,7.03,7.76,1.63,3.32,2.45,7.14,2.45,11.44,0,1.04-.36,1.89-1.06,2.57Zm-28.96-14.26c-2.48,2.18-4.04,5.09-4.7,8.74h27.2c-.49-3.65-1.85-6.56-4.08-8.74-2.23-2.18-5.15-3.27-8.74-3.27-3.98,0-7.2,1.09-9.68,3.27Z"/><path class="cls-1" d="M277.5,305.13c0,1.14-.41,2.12-1.23,2.94-.82,.82-1.83,1.23-3.02,1.23-.82,0-1.59-.23-2.33-.69-.73-.46-1.27-1.1-1.59-1.92l-4.57-11.44h-29.33l-4.66,11.44c-.38,.82-.93,1.46-1.63,1.92-.71,.46-1.47,.69-2.29,.69-1.2,0-2.19-.42-2.98-1.27-.79-.84-1.18-1.84-1.18-2.98,0-.54,.14-1.17,.41-1.88l22.96-54.81c.82-1.91,2.15-2.86,4-2.86,1.96,0,3.29,.95,4,2.86l23.04,54.98c.27,.71,.41,1.31,.41,1.8Zm-39.21-16.91h23.61l-11.68-29.08-11.93,29.08Z"/><path class="cls-1" d="M291.8,307.91c-3.27-1.14-5.83-2.64-7.68-4.49-.71-.71-1.06-1.55-1.06-2.53,0-1.31,.54-2.37,1.63-3.19,1.03-.76,1.99-1.14,2.86-1.14,1.09,0,2.12,.49,3.1,1.47,1.03,1.14,2.59,2.14,4.66,2.98,2.07,.84,4.27,1.27,6.62,1.27,3.1,0,5.51-.52,7.23-1.55,1.72-1.03,2.57-2.42,2.57-4.17s-.84-3.09-2.53-4.21c-1.69-1.12-4.55-2.06-8.58-2.82-10.46-2.01-15.68-6.32-15.68-12.91,0-2.67,.79-4.93,2.37-6.78,1.58-1.85,3.65-3.24,6.21-4.17,2.56-.93,5.28-1.39,8.17-1.39,3.54,0,6.71,.57,9.52,1.72,2.8,1.14,5.02,2.72,6.66,4.74,.71,.87,1.06,1.74,1.06,2.61,0,.93-.46,1.77-1.39,2.53-.6,.44-1.36,.65-2.29,.65-1.42,0-2.7-.52-3.84-1.55-1.36-1.25-2.81-2.14-4.33-2.65-1.53-.52-3.38-.78-5.55-.78-2.51,0-4.56,.42-6.17,1.27-1.61,.84-2.41,2.03-2.41,3.55,0,1.09,.27,2,.82,2.74,.54,.74,1.58,1.42,3.1,2.04,1.52,.63,3.73,1.24,6.62,1.84,5.94,1.2,10.14,2.86,12.62,4.98,2.48,2.12,3.72,4.87,3.72,8.25,0,2.51-.68,4.78-2.04,6.82-1.36,2.04-3.36,3.65-6,4.82-2.64,1.17-5.81,1.76-9.52,1.76s-7.19-.57-10.46-1.72Z"/><path class="cls-1" d="M336.15,307.91c-3.27-1.14-5.83-2.64-7.68-4.49-.71-.71-1.06-1.55-1.06-2.53,0-1.31,.54-2.37,1.63-3.19,1.03-.76,1.99-1.14,2.86-1.14,1.09,0,2.12,.49,3.1,1.47,1.03,1.14,2.59,2.14,4.66,2.98,2.07,.84,4.27,1.27,6.62,1.27,3.1,0,5.51-.52,7.23-1.55,1.72-1.03,2.57-2.42,2.57-4.17s-.85-3.09-2.53-4.21c-1.69-1.12-4.55-2.06-8.58-2.82-10.46-2.01-15.68-6.32-15.68-12.91,0-2.67,.79-4.93,2.37-6.78,1.58-1.85,3.65-3.24,6.21-4.17,2.56-.93,5.28-1.39,8.17-1.39,3.54,0,6.71,.57,9.52,1.72,2.8,1.14,5.02,2.72,6.66,4.74,.71,.87,1.06,1.74,1.06,2.61,0,.93-.46,1.77-1.39,2.53-.6,.44-1.36,.65-2.29,.65-1.42,0-2.7-.52-3.84-1.55-1.36-1.25-2.81-2.14-4.33-2.65-1.53-.52-3.38-.78-5.55-.78-2.51,0-4.56,.42-6.17,1.27-1.61,.84-2.41,2.03-2.41,3.55,0,1.09,.27,2,.82,2.74,.54,.74,1.58,1.42,3.1,2.04,1.52,.63,3.73,1.24,6.62,1.84,5.94,1.2,10.14,2.86,12.62,4.98,2.48,2.12,3.72,4.87,3.72,8.25,0,2.51-.68,4.78-2.04,6.82-1.36,2.04-3.36,3.65-6,4.82-2.64,1.17-5.81,1.76-9.52,1.76s-7.19-.57-10.46-1.72Z"/><path class="cls-1" d="M375.9,255.75c-1.06-1.06-1.59-2.33-1.59-3.8s.53-2.74,1.59-3.8c1.06-1.06,2.33-1.59,3.8-1.59s2.74,.53,3.8,1.59,1.59,2.33,1.59,3.8-.53,2.74-1.59,3.8c-1.06,1.06-2.33,1.59-3.8,1.59s-2.74-.53-3.8-1.59Zm.82,52.36c-.79-.79-1.18-1.78-1.18-2.98v-36.35c0-1.25,.39-2.26,1.18-3.02,.79-.76,1.78-1.14,2.98-1.14s2.26,.38,3.02,1.14c.76,.76,1.14,1.77,1.14,3.02v36.35c0,1.2-.38,2.19-1.14,2.98-.76,.79-1.77,1.18-3.02,1.18s-2.19-.39-2.98-1.18Z"/><path class="cls-1" d="M405.18,307.91c-3.27-1.14-5.83-2.64-7.68-4.49-.71-.71-1.06-1.55-1.06-2.53,0-1.31,.54-2.37,1.63-3.19,1.03-.76,1.99-1.14,2.86-1.14,1.09,0,2.12,.49,3.1,1.47,1.03,1.14,2.59,2.14,4.66,2.98,2.07,.84,4.27,1.27,6.62,1.27,3.1,0,5.51-.52,7.23-1.55,1.72-1.03,2.57-2.42,2.57-4.17s-.85-3.09-2.53-4.21c-1.69-1.12-4.55-2.06-8.58-2.82-10.46-2.01-15.68-6.32-15.68-12.91,0-2.67,.79-4.93,2.37-6.78,1.58-1.85,3.65-3.24,6.21-4.17,2.56-.93,5.28-1.39,8.17-1.39,3.54,0,6.71,.57,9.52,1.72,2.8,1.14,5.02,2.72,6.66,4.74,.71,.87,1.06,1.74,1.06,2.61,0,.93-.46,1.77-1.39,2.53-.6,.44-1.36,.65-2.29,.65-1.42,0-2.7-.52-3.84-1.55-1.36-1.25-2.81-2.14-4.33-2.65-1.53-.52-3.38-.78-5.56-.78-2.51,0-4.56,.42-6.17,1.27-1.61,.84-2.41,2.03-2.41,3.55,0,1.09,.27,2,.82,2.74,.54,.74,1.58,1.42,3.1,2.04,1.52,.63,3.73,1.24,6.62,1.84,5.94,1.2,10.14,2.86,12.62,4.98,2.48,2.12,3.72,4.87,3.72,8.25,0,2.51-.68,4.78-2.04,6.82-1.36,2.04-3.36,3.65-6,4.82-2.64,1.17-5.81,1.76-9.52,1.76s-7.19-.57-10.46-1.72Z"/><path class="cls-1" d="M465.26,302.27c.68,.76,1.02,1.74,1.02,2.94s-.45,2.18-1.35,2.94c-.9,.76-2.06,1.14-3.47,1.14h-1.47c-2.67,0-5.11-.69-7.31-2.08s-3.94-3.28-5.19-5.68c-1.25-2.4-1.88-5.09-1.88-8.09v-20.18h-3.76c-1.14,0-2.07-.33-2.78-.98-.71-.65-1.06-1.47-1.06-2.45,0-1.09,.35-1.96,1.06-2.61,.71-.65,1.63-.98,2.78-.98h3.76v-11.76c0-1.2,.38-2.18,1.14-2.94,.76-.76,1.74-1.14,2.94-1.14s2.18,.38,2.94,1.14c.76,.76,1.14,1.74,1.14,2.94v11.76h6.94c1.14,0,2.07,.33,2.78,.98,.71,.65,1.06,1.53,1.06,2.61,0,.98-.35,1.8-1.06,2.45-.71,.65-1.63,.98-2.78,.98h-6.94v20.18c0,2.18,.6,4,1.8,5.47,1.2,1.47,2.67,2.21,4.41,2.21h2.78c.98,0,1.81,.38,2.49,1.14Z"/><path class="cls-1" d="M508.15,267.27c3.4,1.99,6.1,4.71,8.09,8.17,1.99,3.46,2.98,7.31,2.98,11.56v18.22c0,1.2-.4,2.19-1.18,2.98s-1.78,1.18-2.98,1.18-2.19-.39-2.98-1.18c-.79-.79-1.18-1.78-1.18-2.98v-3.02c-1.91,2.34-4.22,4.17-6.94,5.47-2.72,1.31-5.66,1.96-8.82,1.96-3.92,0-7.47-.98-10.66-2.94s-5.69-4.67-7.52-8.13c-1.83-3.46-2.74-7.31-2.74-11.56s.98-8.1,2.94-11.56c1.96-3.46,4.67-6.18,8.13-8.17,3.46-1.99,7.28-2.98,11.48-2.98s7.99,.99,11.4,2.98Zm-4,33c2.21-1.33,3.93-3.16,5.19-5.47,1.25-2.31,1.88-4.91,1.88-7.8s-.63-5.5-1.88-7.84c-1.25-2.34-2.98-4.18-5.19-5.51-2.21-1.33-4.67-2-7.39-2s-5.19,.67-7.39,2c-2.21,1.33-3.95,3.17-5.23,5.51-1.28,2.34-1.92,4.96-1.92,7.84s.64,5.49,1.92,7.8c1.28,2.32,3.02,4.14,5.23,5.47,2.21,1.34,4.67,2,7.39,2s5.19-.67,7.39-2Z"/><path class="cls-1" d="M563.98,266.66c2.99,1.63,5.34,4.02,7.03,7.15,1.69,3.13,2.53,6.9,2.53,11.31v20.1c0,1.2-.4,2.19-1.18,2.98-.79,.79-1.78,1.18-2.98,1.18s-2.19-.39-2.98-1.18c-.79-.79-1.18-1.78-1.18-2.98v-20.1c0-4.41-1.18-7.75-3.55-10.01-2.37-2.26-5.51-3.39-9.44-3.39-2.29,0-4.37,.46-6.25,1.39-1.88,.93-3.35,2.18-4.41,3.76-1.06,1.58-1.59,3.35-1.59,5.31v23.04c0,1.2-.38,2.19-1.14,2.98-.76,.79-1.77,1.18-3.02,1.18s-2.19-.39-2.98-1.18c-.79-.79-1.18-1.78-1.18-2.98v-36.43c0-1.25,.39-2.26,1.18-3.02,.79-.76,1.78-1.14,2.98-1.14s2.26,.38,3.02,1.14c.76,.76,1.14,1.77,1.14,3.02v.9c1.74-1.74,3.81-3.09,6.21-4.04,2.4-.95,4.96-1.43,7.68-1.43,3.76,0,7.13,.82,10.13,2.45Z"/><path class="cls-1" d="M596.01,306.68c-3.43-1.96-6.11-4.67-8.05-8.13-1.93-3.46-2.9-7.31-2.9-11.56s.94-8.26,2.82-11.72c1.88-3.46,4.51-6.15,7.88-8.09,3.38-1.93,7.19-2.9,11.44-2.9,6.43,0,11.76,2.45,16.01,7.35,.54,.6,.82,1.31,.82,2.12,0,1.2-.6,2.21-1.8,3.02-.54,.38-1.17,.57-1.88,.57-1.25,0-2.32-.49-3.19-1.47-1.36-1.47-2.85-2.55-4.45-3.23-1.61-.68-3.44-1.02-5.51-1.02-4.19,0-7.6,1.4-10.21,4.21-2.61,2.81-3.92,6.52-3.92,11.15,0,2.94,.61,5.57,1.84,7.88,1.23,2.32,2.94,4.12,5.15,5.43,2.21,1.31,4.72,1.96,7.56,1.96,3.7,0,6.7-.95,8.99-2.86,1.03-.76,2.04-1.14,3.02-1.14,.76,0,1.47,.25,2.12,.74,1.03,.87,1.55,1.85,1.55,2.94,0,.82-.33,1.55-.98,2.21-3.92,3.65-8.82,5.47-14.7,5.47-4.3,0-8.17-.98-11.6-2.94Z"/><path class="cls-1" d="M675.49,288.83c-.71,.68-1.61,1.02-2.7,1.02h-31.04c.6,3.81,2.33,6.89,5.19,9.23,2.86,2.34,6.36,3.51,10.5,3.51,1.63,0,3.34-.3,5.11-.9,1.77-.6,3.23-1.33,4.37-2.21,.76-.6,1.66-.9,2.7-.9s1.85,.27,2.45,.82c.98,.82,1.47,1.74,1.47,2.78,0,.98-.44,1.8-1.31,2.45-1.85,1.47-4.15,2.67-6.9,3.59-2.75,.93-5.38,1.39-7.88,1.39-4.47,0-8.47-.97-12.01-2.9-3.54-1.93-6.3-4.62-8.29-8.05-1.99-3.43-2.98-7.32-2.98-11.68s.94-8.26,2.82-11.72c1.88-3.46,4.49-6.15,7.84-8.09,3.35-1.93,7.15-2.9,11.4-2.9s7.81,.93,10.87,2.78c3.05,1.85,5.39,4.44,7.03,7.76,1.63,3.32,2.45,7.14,2.45,11.44,0,1.04-.35,1.89-1.06,2.57Zm-28.96-14.26c-2.48,2.18-4.04,5.09-4.7,8.74h27.2c-.49-3.65-1.85-6.56-4.08-8.74-2.23-2.18-5.15-3.27-8.74-3.27-3.98,0-7.2,1.09-9.68,3.27Z"/></g></g></g></svg>