<svg width="169" height="61" viewBox="0 0 169 61" fill="none" xmlns="http://www.w3.org/2000/svg">
<g clip-path="url(#clip0_357_76)">
<path d="M49.0628 7.36153V29.8577L47.6513 29.612V21.1122C47.1388 21.9586 46.4825 22.6411 45.6913 23.1416C44.8911 23.6512 43.9381 23.9061 42.8052 23.9061C40.9621 23.9061 39.5146 23.1598 38.4447 21.6583C37.3658 20.1567 36.8353 18.1182 36.8353 15.5337C36.8353 13.8592 37.0781 12.3849 37.5906 11.1109C38.094 9.83683 38.8133 8.84489 39.7663 8.13506C40.7193 7.42523 41.8342 7.07031 43.1199 7.07031C44.1898 7.07031 45.0799 7.28872 45.8171 7.72554C46.5544 8.16236 47.1927 8.71749 47.7142 9.40002L47.8401 7.37973H49.0628V7.36153ZM45.7092 21.8676C46.4375 21.3397 47.0848 20.548 47.6513 19.4924V10.8015C46.5094 9.0997 45.0619 8.25336 43.2997 8.25336C41.7893 8.25336 40.5755 8.88129 39.6764 10.1462C38.7683 11.4112 38.3098 13.1676 38.3098 15.4245C38.3098 17.6814 38.7234 19.5288 39.5505 20.7755C40.3777 22.0314 41.5195 22.6593 42.994 22.6593C44.0819 22.6593 44.981 22.3954 45.7092 21.8676Z" fill="white"/>
<path d="M65.5518 23.5591H64.365L64.2661 20.5468C63.0254 22.7855 61.2542 23.8958 58.9705 23.8958C57.514 23.8958 56.3992 23.4681 55.617 22.6035C54.8258 21.7481 54.4302 20.5195 54.4302 18.927V7.36035H55.8417V18.8087C55.8417 20.1373 56.1204 21.102 56.6959 21.7299C57.2623 22.3487 58.1164 22.6581 59.2403 22.6581C61.2002 22.6581 62.8366 21.5024 64.1492 19.1818V7.36035H65.5608V23.5591H65.5518Z" fill="white"/>
<path d="M82.086 16.0794H71.2341C71.333 18.2908 71.8545 19.9379 72.7895 21.0118C73.7335 22.0856 74.9653 22.6225 76.4667 22.6225C77.3209 22.6225 78.0851 22.4951 78.7324 22.2312C79.3887 21.9764 80.081 21.5578 80.8183 20.9754L81.5286 21.9036C80.7464 22.5679 79.9552 23.0594 79.137 23.3961C78.3098 23.7328 77.4108 23.8966 76.4038 23.8966C74.3449 23.8966 72.7176 23.1595 71.5308 21.6943C70.344 20.2291 69.7506 18.1907 69.7506 15.5788C69.7506 13.8589 70.0024 12.3573 70.5148 11.065C71.0273 9.77278 71.7556 8.78083 72.7176 8.0892C73.6616 7.39757 74.7765 7.05176 76.0352 7.05176C78.0221 7.05176 79.5326 7.74339 80.5755 9.12665C81.6185 10.5099 82.1399 12.4028 82.1399 14.8053C82.1399 15.2421 82.1219 15.6698 82.077 16.0794H82.086ZM80.7643 14.3412C80.7643 12.4574 80.3777 10.974 79.5955 9.88198C78.8223 8.79903 77.6625 8.25301 76.0981 8.25301C74.7135 8.25301 73.5717 8.80814 72.6816 9.90928C71.8005 11.0195 71.306 12.6849 71.2251 14.9236H80.7553V14.3321L80.7643 14.3412Z" fill="white"/>
<path d="M100.068 7.47948C100.859 7.77069 101.632 8.20751 102.414 8.81724L101.704 9.78188C100.994 9.24496 100.31 8.85364 99.672 8.61703C99.0246 8.38042 98.2964 8.26211 97.4692 8.26211C96.3454 8.26211 95.4373 8.52602 94.745 9.05385C94.0437 9.58167 93.7021 10.3006 93.7021 11.2106C93.7021 12.0388 93.9988 12.6758 94.5832 13.1308C95.1766 13.5858 96.2285 14.0227 97.7479 14.4322C99.5911 14.9327 100.895 15.5242 101.668 16.2159C102.441 16.9075 102.828 17.9358 102.828 19.2736C102.828 20.6114 102.306 21.8035 101.263 22.6407C100.202 23.478 98.8718 23.8966 97.2624 23.8966C96.0577 23.8966 95.0147 23.7146 94.1336 23.3506C93.2525 22.9957 92.4254 22.4769 91.6432 21.8126L92.4434 20.8844C93.1806 21.485 93.9179 21.9309 94.6551 22.2221C95.3923 22.5133 96.2465 22.6589 97.2265 22.6589C98.4492 22.6589 99.4472 22.3586 100.22 21.7762C100.985 21.1847 101.371 20.3656 101.371 19.31C101.371 18.6093 101.245 18.0359 101.003 17.5991C100.76 17.1623 100.328 16.7983 99.7169 16.498C99.1056 16.1977 98.2065 15.8882 97.0467 15.5515C95.3294 15.0965 94.1067 14.5323 93.3694 13.8771C92.6322 13.2127 92.2636 12.33 92.2636 11.2106C92.2636 9.99119 92.758 8.99014 93.738 8.21661C94.718 7.44307 95.9498 7.05176 97.4512 7.05176C98.4043 7.05176 99.2854 7.19736 100.068 7.48858V7.47948Z" fill="white"/>
<path d="M116.305 22.0044C116.521 22.3957 116.862 22.6869 117.339 22.8689L116.997 23.8973C116.305 23.7153 115.783 23.3967 115.424 22.969C115.064 22.5413 114.848 21.8952 114.767 21.0488C113.599 22.9508 111.908 23.9064 109.706 23.9064C108.186 23.9064 106.999 23.4695 106.127 22.5868C105.246 21.7132 104.806 20.5301 104.806 19.065C104.806 17.4087 105.39 16.1346 106.559 15.2337C107.728 14.3327 109.301 13.8868 111.306 13.8868H114.588V12.176C114.588 10.8291 114.291 9.84625 113.698 9.22742C113.104 8.60859 112.124 8.29918 110.758 8.29918C109.472 8.29918 108.015 8.61769 106.406 9.26382L106.01 8.11717C107.791 7.41644 109.409 7.06152 110.883 7.06152C112.646 7.06152 113.931 7.48014 114.767 8.33558C115.595 9.18192 116.008 10.4287 116.008 12.094V20.066C116.008 20.976 116.116 21.6222 116.323 22.0226L116.305 22.0044ZM114.579 19.611V14.988H111.513C109.832 14.988 108.546 15.3247 107.647 15.9981C106.748 16.6715 106.298 17.6817 106.298 19.0286C106.298 20.1843 106.613 21.0852 107.242 21.7314C107.872 22.3775 108.762 22.696 109.876 22.696C111.944 22.696 113.5 21.6677 114.57 19.6201L114.579 19.611Z" fill="white"/>
<path d="M131.661 8.33491C132.398 9.19945 132.767 10.4189 132.767 12.0115V23.5508H131.356V12.1935C131.356 10.8284 131.095 9.81828 130.555 9.18125C130.025 8.53512 129.225 8.21661 128.164 8.21661C127.103 8.21661 126.123 8.51692 125.278 9.11755C124.433 9.71818 123.641 10.5827 122.886 11.7203V23.5417H121.475V7.36117H122.697L122.823 10.246C124.343 8.11651 126.186 7.05176 128.38 7.05176C129.827 7.05176 130.924 7.47948 131.652 8.33491H131.661Z" fill="white"/>
<path d="M148.339 9.23617C149.508 10.6922 150.083 12.7489 150.083 15.3971C150.083 18.0454 149.49 20.1202 148.303 21.6309C147.116 23.1416 145.489 23.8969 143.43 23.8969C141.371 23.8969 139.744 23.1507 138.566 21.6491C137.388 20.1476 136.804 18.1 136.804 15.4881C136.804 12.8763 137.397 10.8014 138.593 9.29077C139.789 7.7892 141.416 7.04297 143.457 7.04297C145.498 7.04297 147.17 7.771 148.339 9.22707V9.23617ZM139.663 10.1371C138.746 11.3657 138.287 13.1584 138.287 15.4881C138.287 17.8178 138.737 19.556 139.636 20.7937C140.526 22.0313 141.803 22.6593 143.439 22.6593C145.075 22.6593 146.325 22.0404 147.242 20.7937C148.159 19.556 148.618 17.7541 148.618 15.3971C148.618 13.0401 148.168 11.3111 147.269 10.1007C146.37 8.89035 145.102 8.28972 143.466 8.28972C141.83 8.28972 140.58 8.90855 139.663 10.1371Z" fill="white"/>
<path d="M160.675 7.47948C161.466 7.77069 162.239 8.20751 163.021 8.81724L162.311 9.78188C161.592 9.24496 160.917 8.85364 160.27 8.61703C159.632 8.38042 158.894 8.26211 158.076 8.26211C156.952 8.26211 156.044 8.52602 155.352 9.05385C154.651 9.58167 154.309 10.3006 154.309 11.2106C154.309 12.0388 154.597 12.6758 155.19 13.1308C155.784 13.5858 156.835 14.0227 158.355 14.4322C160.198 14.9327 161.502 15.5242 162.275 16.2159C163.048 16.9075 163.444 17.9358 163.444 19.2736C163.444 20.6114 162.913 21.8035 161.861 22.6407C160.809 23.478 159.479 23.8966 157.869 23.8966C156.665 23.8966 155.622 23.7146 154.741 23.3506C153.859 22.9957 153.032 22.4769 152.25 21.8126L153.05 20.8844C153.788 21.485 154.525 21.9309 155.262 22.2221C155.999 22.5133 156.853 22.6589 157.833 22.6589C159.056 22.6589 160.054 22.3586 160.818 21.7762C161.592 21.1847 161.978 20.3656 161.978 19.31C161.978 18.6093 161.852 18.0359 161.61 17.5991C161.367 17.1623 160.935 16.7983 160.324 16.498C159.712 16.1977 158.813 15.8882 157.654 15.5515C155.936 15.0965 154.714 14.5323 153.976 13.8771C153.239 13.2218 152.87 12.33 152.87 11.2106C152.87 9.99119 153.365 8.99014 154.345 8.21661C155.325 7.44307 156.557 7.05176 158.058 7.05176C159.011 7.05176 159.892 7.19736 160.675 7.48858V7.47948Z" fill="white"/>
<path d="M167.759 21.768C167.993 22.0046 168.11 22.3049 168.11 22.6507C168.11 22.9602 167.966 23.4698 167.678 24.1705L166.087 28.0837H165.044L166.267 23.7064C166.069 23.6245 165.907 23.488 165.79 23.2878C165.673 23.0967 165.619 22.8782 165.619 22.6507C165.619 22.3049 165.736 22.0046 165.97 21.768C166.204 21.5314 166.491 21.4131 166.842 21.4131C167.211 21.4131 167.507 21.5314 167.741 21.768H167.759Z" fill="white"/>
<path d="M15.8777 42.2537L13.8728 45.2932C12.2095 44.2467 10.5732 43.7189 8.96382 43.7189C8.09171 43.7189 7.42639 43.8827 6.94988 44.2103C6.47337 44.5288 6.2486 44.9747 6.2486 45.5208C6.2486 45.9303 6.35649 46.267 6.56328 46.54C6.77006 46.813 7.16566 47.0769 7.75006 47.3317C8.32547 47.5774 9.20657 47.8778 10.3664 48.2327C12.4522 48.806 13.9897 49.5795 15.0056 50.5442C16.0306 51.5088 16.5341 52.8284 16.5341 54.512C16.5341 55.8406 16.1475 56.9964 15.3922 57.9701C14.637 58.953 13.6121 59.6992 12.3264 60.2088C11.0407 60.7184 9.59317 60.9823 8.01079 60.9823C6.42841 60.9823 4.83704 60.7275 3.47044 60.2088C2.11283 59.6901 0.944028 58.9894 -0.0269775 58.0793L2.58035 55.149C4.23466 56.4503 5.99686 57.1056 7.84896 57.1056C8.84694 57.1056 9.62914 56.9145 10.2135 56.5231C10.7889 56.1318 11.0856 55.604 11.0856 54.9215C11.0856 54.4028 10.9688 53.9841 10.753 53.6838C10.5282 53.3835 10.1146 53.1105 9.52125 52.8375C8.93685 52.5736 7.99281 52.2733 6.7341 51.9183C4.75613 51.3723 3.28164 50.5806 2.32861 49.5613C1.37559 48.5512 0.899074 47.2953 0.899074 45.7847C0.899074 44.6471 1.21375 43.637 1.86109 42.736C2.50843 41.8351 3.4165 41.1253 4.59429 40.6065C5.77209 40.0878 7.14768 39.833 8.70309 39.833C11.4812 39.833 13.8638 40.6338 15.8418 42.2446L15.8777 42.2537Z" fill="#FFBA30"/>
<path d="M33.5356 56.5761C33.7604 56.9402 34.129 57.2132 34.6595 57.3861L33.5356 60.9261C32.3668 60.826 31.4228 60.553 30.6946 60.098C29.9573 59.643 29.3999 58.9423 28.9953 57.9867C27.7096 59.9979 25.7406 60.9989 23.0883 60.9989C21.1283 60.9989 19.5639 60.4347 18.4221 59.2881C17.2623 58.1414 16.6869 56.6581 16.6869 54.8289C16.6869 52.6357 17.4691 50.9703 19.0335 49.8236C20.5889 48.6679 22.8366 48.0946 25.7586 48.0946H28.0243V47.1117C28.0243 45.8923 27.7546 45.0368 27.2061 44.5545C26.6577 44.0722 25.7496 43.8356 24.4909 43.8356C23.0973 43.8356 21.3621 44.1905 19.2852 44.8912L18.0984 41.3148C20.5529 40.341 22.9804 39.8496 25.39 39.8496C28.0602 39.8496 30.0292 40.432 31.3059 41.5969C32.5646 42.7617 33.194 44.4999 33.194 46.8023V54.8653C33.194 55.6479 33.3109 56.2121 33.5267 56.5761H33.5356ZM28.0333 54.9381V51.1341H26.2891C23.43 51.1341 22.0094 52.2171 22.0094 54.3829C22.0094 55.2566 22.2252 55.9391 22.6658 56.4305C23.0973 56.922 23.7267 57.1677 24.5359 57.1677C26.0283 57.1677 27.1881 56.4214 28.0333 54.9381Z" fill="#FFBA30"/>
<path d="M37.7884 59.5884C36.8983 58.6511 36.4487 57.3133 36.4487 55.5842V32.5147L41.7173 31.9141V55.4386C41.7173 56.3122 42.077 56.7491 42.8052 56.7491C43.2008 56.7491 43.5515 56.6763 43.8392 56.5307L44.9271 60.3346C43.9111 60.7805 42.7783 61.0081 41.5375 61.0081C39.9282 61.0081 38.6695 60.5348 37.7884 59.5975V59.5884Z" fill="#FFBA30"/>
<path d="M62.2882 60.3902H57.7119L57.4511 57.7237C56.7588 58.8249 55.9137 59.6439 54.9157 60.1899C53.9267 60.7178 52.7669 60.9999 51.4543 60.9999C49.6741 60.9999 48.3075 60.4539 47.3724 59.3618C46.4284 58.2698 45.9519 56.75 45.9519 54.7843V40.4512H51.2295V54.1109C51.2295 55.1665 51.4003 55.9128 51.742 56.3496C52.0926 56.7864 52.6321 57.0048 53.3783 57.0048C54.7988 57.0048 55.9946 56.1403 56.9836 54.4112V40.4512H62.2612V60.3993L62.2882 60.3902Z" fill="#FFBA30"/>
<path d="M83.075 32.5055V60.3892H78.4267L78.13 57.9412C76.7454 59.9706 74.8664 60.9898 72.4838 60.9898C70.1012 60.9898 68.2042 60.0434 66.9185 58.1414C65.6508 56.2485 65.0125 53.6731 65.0125 50.406C65.0125 48.3493 65.3361 46.5202 65.9925 44.9276C66.6488 43.335 67.5838 42.0883 68.8066 41.1873C70.0113 40.2864 71.4139 39.8314 73.0143 39.8314C74.8484 39.8314 76.4398 40.4957 77.8064 41.8244V31.8867L83.084 32.4873L83.075 32.5055ZM76.0891 56.4214C76.6825 56.0301 77.2579 55.4295 77.7974 54.5922V45.6738C77.2849 45.0459 76.7544 44.5818 76.224 44.2633C75.6935 43.9448 75.0732 43.79 74.3809 43.79C73.1671 43.79 72.2141 44.327 71.5308 45.4099C70.8475 46.4838 70.5058 48.1582 70.5058 50.406C70.5058 52.7903 70.8115 54.483 71.4139 55.4841C72.0163 56.4851 72.8974 56.9947 74.0302 56.9947C74.8034 56.9947 75.4867 56.8036 76.0801 56.4123L76.0891 56.4214Z" fill="#FFBA30"/>
<path d="M102.189 56.5761C102.405 56.9402 102.783 57.2132 103.304 57.3861L102.189 60.9261C101.021 60.826 100.076 60.553 99.3392 60.098C98.611 59.643 98.0446 58.9423 97.649 57.9867C96.3633 59.9979 94.3943 60.9989 91.733 60.9989C89.773 60.9989 88.2176 60.4347 87.0668 59.2881C85.916 58.1414 85.3406 56.6581 85.3406 54.8289C85.3406 52.6357 86.1228 50.9703 87.6782 49.8236C89.2426 48.6679 91.4903 48.0946 94.4123 48.0946H96.678V47.1117C96.678 45.8923 96.3993 45.0368 95.8508 44.5545C95.3114 44.0722 94.4033 43.8356 93.1356 43.8356C91.751 43.8356 90.0158 44.1905 87.9299 44.8912L86.7431 41.3148C89.1976 40.341 91.6341 39.8496 94.0347 39.8496C96.7139 39.8496 98.6829 40.432 99.9506 41.5969C101.218 42.7617 101.848 44.4999 101.848 46.8023V54.8653C101.848 55.6479 101.956 56.2121 102.18 56.5761H102.189ZM96.687 54.9381V51.1341H94.9338C92.0837 51.1341 90.6631 52.2171 90.6631 54.3829C90.6631 55.2566 90.8789 55.9391 91.3105 56.4305C91.751 56.922 92.3714 57.1677 93.1895 57.1677C94.673 57.1677 95.8328 56.4214 96.687 54.9381Z" fill="#FFBA30"/>
<path d="M121.682 42.6346C122.958 44.4911 123.597 47.0938 123.597 50.4246C123.597 52.4813 123.273 54.3105 122.644 55.903C122.014 57.4865 121.115 58.7424 119.928 59.6433C118.751 60.5442 117.375 60.9993 115.784 60.9993C113.626 60.9993 111.9 60.1438 110.614 58.4329L110.317 60.3895H105.633V32.5059L110.911 31.9053V42.5891C111.531 41.7337 112.313 41.0603 113.248 40.578C114.192 40.0865 115.208 39.8408 116.305 39.8408C118.607 39.8408 120.396 40.7691 121.673 42.6255L121.682 42.6346ZM118.094 50.4246C118.094 47.9948 117.797 46.2748 117.186 45.2829C116.584 44.3 115.703 43.7995 114.57 43.7995C113.158 43.7995 111.944 44.6549 110.929 46.3658V54.902C111.792 56.3399 112.924 57.0497 114.309 57.0497C116.844 57.0497 118.103 54.8383 118.103 50.4246H118.094Z" fill="#FFBA30"/>
<path d="M127.471 59.5884C126.581 58.6511 126.132 57.3133 126.132 55.5842V32.5147L131.409 31.9141V55.4386C131.409 56.3122 131.769 56.7491 132.488 56.7491C132.884 56.7491 133.235 56.6763 133.531 56.5307L134.61 60.3346C133.594 60.7805 132.461 61.0081 131.23 61.0081C129.62 61.0081 128.362 60.5348 127.471 59.5975V59.5884Z" fill="#FFBA30"/>
<path d="M152.187 52.0435H139.879C140.05 53.8454 140.535 55.1285 141.335 55.8839C142.127 56.6301 143.205 57.0123 144.563 57.0123C145.408 57.0123 146.199 56.8667 146.946 56.5937C147.692 56.3207 148.492 55.8839 149.364 55.2832L151.558 58.2864C149.346 60.0973 146.865 60.9983 144.086 60.9983C140.985 60.9983 138.602 60.0609 136.948 58.1772C135.285 56.2843 134.448 53.7453 134.448 50.5328C134.448 48.5034 134.808 46.6742 135.509 45.0544C136.22 43.4345 137.245 42.1604 138.602 41.2322C139.951 40.304 141.551 39.8398 143.412 39.8398C146.217 39.8398 148.393 40.7317 149.966 42.5154C151.522 44.299 152.304 46.7835 152.304 49.9686C152.304 50.2234 152.268 50.9059 152.187 52.0435ZM147.053 48.467C147.053 45.1545 145.876 43.4891 143.52 43.4891C142.432 43.4891 141.587 43.8986 140.967 44.7086C140.364 45.5276 139.996 46.8472 139.87 48.6763H147.044V48.4579L147.053 48.467Z" fill="#FFBA30"/>
<path d="M168.326 42.2537L166.321 45.2932C164.666 44.2467 163.03 43.7189 161.412 43.7189C160.549 43.7189 159.874 43.8827 159.407 44.2103C158.93 44.5288 158.697 44.9747 158.697 45.5208C158.697 45.9303 158.804 46.267 159.011 46.54C159.218 46.813 159.614 47.0769 160.198 47.3317C160.773 47.5774 161.655 47.8778 162.814 48.2327C164.9 48.806 166.447 49.5795 167.463 50.5442C168.479 51.5088 168.991 52.8284 168.991 54.512C168.991 55.8406 168.613 56.9964 167.849 57.9701C167.094 58.953 166.069 59.6992 164.783 60.2088C163.498 60.7275 162.059 60.9823 160.477 60.9823C158.813 60.9823 157.294 60.7275 155.936 60.2088C154.57 59.6901 153.401 58.9894 152.439 58.0793L155.037 55.149C156.692 56.4503 158.454 57.1056 160.315 57.1056C161.304 57.1056 162.095 56.9145 162.67 56.5231C163.255 56.1318 163.543 55.604 163.543 54.9215C163.543 54.4028 163.426 53.9841 163.21 53.6838C162.985 53.3835 162.581 53.1105 161.987 52.8375C161.394 52.5645 160.459 52.2733 159.191 51.9183C157.213 51.3723 155.739 50.5806 154.786 49.5613C153.833 48.5512 153.356 47.2953 153.356 45.7847C153.356 44.6471 153.68 43.637 154.318 42.736C154.965 41.8351 155.873 41.1253 157.051 40.6065C158.238 40.0878 159.605 39.833 161.16 39.833C163.938 39.833 166.321 40.6338 168.299 42.2446L168.326 42.2537Z" fill="#FFBA30"/>
<path d="M15.4372 31.2599C13.2795 31.2599 11.5262 29.4853 11.5262 27.3012V3.95868C11.5262 1.77458 13.2795 0 15.4372 0C17.595 0 19.3482 1.77458 19.3482 3.95868V27.3012C19.3482 29.4853 17.595 31.2599 15.4372 31.2599Z" fill="url(#paint0_linear_357_76)"/>
<path d="M26.9724 19.5843H3.911C1.75321 19.5843 0 17.8098 0 15.6257C0 13.4416 1.75321 11.667 3.911 11.667H26.9724C29.1302 11.667 30.8834 13.4416 30.8834 15.6257C30.8834 17.8098 29.1302 19.5843 26.9724 19.5843Z" fill="url(#paint1_linear_357_76)"/>
</g>
<defs>
<linearGradient id="paint0_linear_357_76" x1="11.5352" y1="15.6254" x2="19.3482" y2="15.6254" gradientUnits="userSpaceOnUse">
<stop offset="0.09" stop-color="white"/>
<stop offset="0.59" stop-color="#EEEEEE"/>
<stop offset="1" stop-color="#E6E6E6"/>
</linearGradient>
<linearGradient id="paint1_linear_357_76" x1="15.4462" y1="11.6761" x2="15.4462" y2="19.5843" gradientUnits="userSpaceOnUse">
<stop offset="0.09" stop-color="white"/>
<stop offset="0.59" stop-color="#EEEEEE"/>
<stop offset="1" stop-color="#E6E6E6"/>
</linearGradient>
<clipPath id="clip0_357_76">
<rect width="169" height="61" fill="white"/>
</clipPath>
</defs>
</svg>
