<svg width="236" height="98" viewBox="0 0 236 98" fill="none" xmlns="http://www.w3.org/2000/svg">
<g clip-path="url(#clip0_497_950)">
<path d="M63.6137 4.71624C63.6137 6.76684 61.9563 8.42596 59.9078 8.42596C57.8594 8.42596 56.202 6.76684 56.202 4.71624C56.202 2.66564 57.8594 1.00652 59.9078 1.00652C61.9563 1.00652 63.6137 2.66564 63.6137 4.71624ZM21.6018 59.7655C19.5534 59.7655 17.896 61.4246 17.896 63.4752C17.896 65.5258 19.5534 67.1849 21.6018 67.1849C23.6503 67.1849 25.3077 65.5258 25.3077 63.4752C25.3077 61.4246 23.6503 59.7655 21.6018 59.7655ZM66.258 87.6723C64.2096 87.6723 62.5522 89.3314 62.5522 91.382C62.5522 93.4326 64.2096 95.0917 66.258 95.0917C68.3065 95.0917 69.9639 93.4326 69.9639 91.382C69.9639 89.3314 68.3065 87.6723 66.258 87.6723ZM51.5092 97.9439C53.4087 97.8507 54.8798 96.2289 54.7867 94.3088C54.6936 92.4073 53.0548 90.9346 51.174 91.0278C50.4477 91.0651 49.7215 91.0837 48.9952 91.0837C25.7918 91.0837 6.90886 72.181 6.90886 48.9533C6.90886 25.7256 24.4324 8.03448 46.8164 6.89733C48.7159 6.80412 50.187 5.18228 50.0939 3.28082C50.0008 1.37935 48.3806 -0.093351 46.4812 -0.000141903C20.41 1.32343 0 22.8361 0 48.9719C0 75.1077 21.9743 97.9999 48.9766 97.9999C49.8146 97.9999 50.6712 97.9812 51.5092 97.9439ZM81.3793 85.7336C91.9195 76.4313 97.9531 63.0278 97.9531 48.9719C97.9531 40.3221 95.6626 31.8028 91.3422 24.3647C87.1522 17.1503 81.1558 11.0731 73.9863 6.80412C72.3475 5.83475 70.2246 6.37536 69.2562 7.9972C68.2878 9.63767 68.8279 11.7628 70.448 12.7322C83.1484 20.3008 91.0443 34.1889 91.0443 48.9533C91.0443 61.0331 85.8487 72.5351 76.7982 80.5325C75.3643 81.8001 75.234 83.9812 76.5003 85.4166C77.1893 86.1809 78.139 86.5911 79.0888 86.5911C79.9081 86.5911 80.7089 86.3114 81.3793 85.7336ZM83.2229 48.9719C83.2229 47.1077 83.0739 45.2249 82.776 43.398C82.4594 41.5152 80.6903 40.2475 78.8094 40.5458C76.9286 40.8627 75.6623 42.6337 75.9602 44.5165C76.2023 45.9706 76.314 47.4806 76.314 48.9719C76.314 64.0718 64.042 76.3567 48.9579 76.3567C43.5575 76.3567 38.3246 74.7908 33.8553 71.8081C32.2724 70.7455 30.1308 71.1929 29.0694 72.7775C28.0079 74.362 28.4548 76.5059 30.0377 77.5684C35.6616 81.2968 42.1981 83.2728 48.9579 83.2728C67.8409 83.2728 83.2043 67.8933 83.2043 48.9905L83.2229 48.9719ZM21.6205 48.6363C21.8067 33.7229 34.0787 21.6057 48.9766 21.6057C55.3081 21.6057 61.4907 23.8241 66.3698 27.8507C67.8409 29.0624 70.0197 28.8574 71.2302 27.3847C72.4406 25.912 72.2358 23.7309 70.7646 22.5192C64.6565 17.4672 56.9096 14.6896 48.9766 14.6896C39.9075 14.6896 31.3599 18.2129 24.898 24.5884C18.4547 30.9639 14.8419 39.4832 14.7302 48.5431C14.7116 50.4446 16.2386 52.0105 18.1381 52.0478H18.1753C20.0562 52.0478 21.6018 50.5378 21.6205 48.6363ZM68.6975 48.9905C68.6975 48.2635 68.6603 47.5178 68.5858 46.8094C68.381 44.908 66.6677 43.5471 64.7682 43.7522C62.8688 43.9572 61.5093 45.6723 61.7142 47.5738C61.7701 48.0398 61.7887 48.5245 61.7887 49.0092C61.7887 56.0744 56.053 61.8161 48.9952 61.8161C41.9373 61.8161 36.2017 56.0744 36.2017 49.0092C36.2017 41.9439 41.9373 36.2023 48.9952 36.2023C49.4794 36.2023 49.9449 36.2209 50.4291 36.2768C52.3286 36.4819 54.0232 35.121 54.2467 33.2196C54.4515 31.3181 53.0921 29.6217 51.1926 29.398C50.4663 29.3234 49.7401 29.2861 49.0138 29.2861C38.157 29.2861 29.3114 38.1224 29.3114 49.0092C29.3114 59.896 38.1384 68.7322 49.0138 68.7322C59.8892 68.7322 68.7162 59.896 68.7162 49.0092L68.6975 48.9905ZM59.6471 34.0957C58.1573 34.3194 56.9283 35.4939 56.6117 36.9666C56.5 37.4513 56.5 37.9359 56.5931 38.3834C56.7048 38.9985 56.4627 39.6324 55.9972 40.0425L51.8258 43.7149C51.3788 44.1064 50.7457 44.2555 50.1684 44.1064C49.5911 43.9572 48.9579 43.9386 48.3062 44.0132C46.0901 44.3301 44.3024 46.1383 44.0417 48.3754C43.6506 51.619 46.3881 54.3594 49.6283 53.9679C51.863 53.7069 53.6694 51.9173 53.9673 49.6989C54.0604 49.0465 54.0232 48.4313 53.8742 47.8347C53.7252 47.2382 53.8742 46.623 54.2653 46.1756L57.9339 41.9999C58.3436 41.5338 58.9767 41.2915 59.5913 41.4033C60.0382 41.4779 60.5224 41.4779 61.0065 41.3847C62.4963 41.0678 63.6509 39.8374 63.8744 38.3461C64.2654 35.8481 62.1239 33.7043 59.6285 34.0957H59.6471Z" fill="white"/>
<path d="M129.127 18.791C130.486 19.2943 131.771 20.0772 132.982 21.1025L129.835 24.8682C128.997 24.2157 128.177 23.731 127.376 23.4141C126.576 23.0972 125.7 22.9294 124.788 22.9294C122.907 22.9294 121.417 23.731 120.337 25.3156C119.239 26.9001 118.698 29.3609 118.698 32.6605C118.698 35.9601 119.239 38.3276 120.337 39.9121C121.436 41.4967 122.944 42.2796 124.881 42.2796C125.905 42.2796 126.836 42.0932 127.674 41.7017C128.512 41.3103 129.406 40.751 130.375 40.024L133.317 43.8269C132.274 44.8709 130.989 45.747 129.499 46.4181C128.01 47.0892 126.352 47.4248 124.564 47.4248C121.976 47.4248 119.741 46.8655 117.823 45.7284C115.905 44.5912 114.434 42.9135 113.373 40.6951C112.311 38.4767 111.771 35.7923 111.771 32.6791C111.771 29.5659 112.311 27.012 113.41 24.7936C114.508 22.5939 115.998 20.9161 117.935 19.7603C119.853 18.6232 122.05 18.0453 124.49 18.0453C126.24 18.0453 127.786 18.3063 129.146 18.8096L129.127 18.791Z" fill="white"/>
<path d="M137.879 45.7843C136.837 44.7217 136.334 43.2117 136.334 41.2357V16.7217L142.703 16.032V40.9933C142.703 41.8881 143.075 42.3355 143.783 42.3355C144.155 42.3355 144.509 42.261 144.825 42.1305L146.073 46.6604C144.919 47.1451 143.634 47.3875 142.2 47.3875C140.338 47.3875 138.904 46.8469 137.861 45.7843H137.879Z" fill="white"/>
<path d="M155.403 12.9747L157.898 17.747L148.382 21.5872L146.613 18.3063L155.403 12.9747ZM155.682 25.2597V46.7164H149.314V25.241H155.682V25.2597Z" fill="white"/>
<path d="M178.42 26.2663C179.463 27.4035 180.003 28.988 180.003 31.0386V46.7164H173.634V32.1385C173.634 31.0573 173.467 30.3116 173.131 29.9015C172.796 29.4914 172.293 29.2677 171.623 29.2677C170.338 29.2677 169.09 30.1997 167.917 32.0639V46.735H161.548V25.241H167.116L167.563 27.7949C168.476 26.7137 169.463 25.9121 170.524 25.3715C171.586 24.8309 172.778 24.5699 174.1 24.5699C175.962 24.5699 177.415 25.1292 178.457 26.2663H178.42Z" fill="white"/>
<path d="M191.474 14.9694C192.182 15.6591 192.536 16.5166 192.536 17.5792C192.536 18.6418 192.182 19.4993 191.474 20.1891C190.767 20.8788 189.854 21.2144 188.756 21.2144C187.657 21.2144 186.744 20.8788 186.055 20.1891C185.348 19.4993 185.012 18.6418 185.012 17.5792C185.012 16.5166 185.366 15.6591 186.055 14.9694C186.763 14.2796 187.657 13.9441 188.756 13.9441C189.854 13.9441 190.767 14.2796 191.474 14.9694ZM191.977 25.2596V46.7164H185.608V25.241H191.977V25.2596Z" fill="white"/>
<path d="M211.065 25.2037C212.257 25.6325 213.374 26.3036 214.417 27.1798L211.679 30.9827C210.339 29.9574 208.979 29.4541 207.601 29.4541C206.223 29.4541 205.106 29.976 204.379 31.0386C203.653 32.0826 203.299 33.779 203.299 36.1278C203.299 38.4767 203.653 39.9867 204.379 40.9374C205.106 41.8882 206.149 42.3542 207.527 42.3542C208.253 42.3542 208.905 42.2424 209.501 42.0187C210.097 41.795 210.804 41.4221 211.642 40.9001L214.436 44.8522C212.313 46.5486 209.91 47.4061 207.21 47.4061C205.031 47.4061 203.15 46.9401 201.568 46.008C199.985 45.0759 198.756 43.771 197.899 42.0932C197.042 40.4155 196.614 38.4394 196.614 36.1838C196.614 33.9281 197.042 31.9148 197.899 30.1625C198.756 28.4101 199.985 27.0493 201.568 26.0613C203.15 25.0732 204.994 24.5886 207.098 24.5886C208.57 24.5886 209.91 24.8123 211.102 25.241L211.065 25.2037Z" fill="white"/>
<path d="M234.883 42.261C235.106 42.6338 235.479 42.9134 236 43.1185L234.678 47.2756C233.356 47.1638 232.276 46.8842 231.456 46.3995C230.618 45.9334 229.966 45.1877 229.519 44.1625C228.123 46.3249 225.963 47.3875 223.058 47.3875C220.935 47.3875 219.24 46.7723 217.974 45.5233C216.707 44.2929 216.074 42.6711 216.074 40.6764C216.074 38.3276 216.931 36.538 218.663 35.3076C220.376 34.0772 222.871 33.4434 226.13 33.4434H228.309V32.5113C228.309 31.2437 228.048 30.3862 227.508 29.9015C226.968 29.4354 226.019 29.1931 224.678 29.1931C223.97 29.1931 223.132 29.2863 222.126 29.4913C221.139 29.6964 220.115 29.976 219.054 30.3116L217.601 26.1172C218.942 25.6138 220.32 25.2224 221.735 24.9427C223.151 24.6818 224.454 24.5326 225.665 24.5326C228.737 24.5326 230.972 25.1664 232.406 26.4341C233.84 27.7017 234.548 29.6032 234.548 32.1385V40.4527C234.548 41.2543 234.659 41.8509 234.883 42.2237V42.261ZM228.29 40.7696V36.9667H226.708C225.255 36.9667 224.175 37.2277 223.467 37.731C222.76 38.2344 222.406 39.036 222.406 40.1172C222.406 40.9747 222.629 41.6458 223.076 42.1119C223.523 42.5779 224.138 42.8202 224.92 42.8202C226.372 42.8202 227.508 42.1305 228.309 40.7696H228.29Z" fill="white"/>
<path d="M133.131 56.7084L124.248 84.5406H120.132L111.175 56.7084H115.291L122.274 80.3835L129.257 56.7084H133.131Z" fill="white"/>
<path d="M141.734 53.763C142.218 54.2477 142.461 54.8442 142.461 55.5899C142.461 56.3355 142.218 56.9134 141.734 57.3795C141.25 57.8455 140.617 58.0879 139.835 58.0879C139.053 58.0879 138.457 57.8455 137.973 57.3795C137.488 56.9134 137.246 56.3169 137.246 55.5899C137.246 54.8628 137.488 54.2477 137.973 53.763C138.457 53.2783 139.071 53.0359 139.835 53.0359C140.598 53.0359 141.25 53.2783 141.734 53.763ZM141.734 63.2517V84.5406H138.028V63.2517H141.734Z" fill="white"/>
<path d="M161.548 63.0093L160.859 66.6445C160.207 66.4767 159.593 66.4021 158.997 66.4021C157.675 66.4021 156.613 66.8868 155.813 67.8562C155.012 68.8256 154.379 70.3355 153.913 72.3861V84.5406H150.207V63.2517H153.392L153.745 67.5766C154.304 65.992 155.086 64.7803 156.055 63.9787C157.023 63.1771 158.159 62.767 159.444 62.767C160.189 62.767 160.896 62.8415 161.548 63.0093Z" fill="white"/>
<path d="M177.321 83.5713C175.925 84.5406 174.342 85.0253 172.554 85.0253C170.766 85.0253 169.351 84.5033 168.345 83.478C167.34 82.4527 166.837 80.9428 166.837 78.9667V66.1225H163.131V63.2517H166.837V58.4421L170.543 57.9947V63.2517H175.589L175.18 66.1225H170.543V78.799C170.543 79.8988 170.729 80.7004 171.12 81.2037C171.511 81.7071 172.163 81.9494 173.075 81.9494C173.913 81.9494 174.845 81.6698 175.906 81.0919L177.321 83.5526V83.5713Z" fill="white"/>
<path d="M197.787 84.5406H194.603L194.323 81.2224C193.523 82.546 192.592 83.4967 191.53 84.1119C190.487 84.727 189.202 85.0253 187.694 85.0253C185.832 85.0253 184.379 84.4661 183.336 83.3289C182.293 82.1918 181.753 80.5886 181.753 78.5193V63.2517H185.459V78.1092C185.459 79.5633 185.72 80.5886 186.223 81.2037C186.726 81.8189 187.564 82.1172 188.718 82.1172C190.785 82.1172 192.573 80.8868 194.044 78.4448V63.2517H197.75V84.5406H197.787Z" fill="white"/>
<path d="M221.028 81.502C221.326 81.9121 221.773 82.229 222.369 82.4527L221.512 85.0439C220.413 84.9134 219.519 84.5965 218.849 84.1118C218.179 83.6272 217.676 82.8815 217.359 81.8562C215.925 83.9814 213.821 85.0439 211.028 85.0439C208.923 85.0439 207.266 84.4474 206.055 83.273C204.845 82.0799 204.23 80.5326 204.23 78.6312C204.23 76.3755 205.05 74.6232 206.67 73.4114C208.29 72.1997 210.599 71.5846 213.597 71.5846H216.875V70C216.875 68.49 216.521 67.4088 215.795 66.775C215.069 66.1411 213.951 65.8056 212.443 65.8056C210.934 65.8056 208.979 66.1784 206.707 66.9427L205.776 64.2397C208.42 63.2703 210.86 62.7856 213.113 62.7856C215.609 62.7856 217.49 63.4008 218.719 64.6311C219.948 65.8615 220.581 67.5952 220.581 69.8695V79.6005C220.581 80.4581 220.73 81.1105 221.028 81.5206V81.502ZM216.875 78.9294V74.0453H214.082C210.152 74.0453 208.197 75.4993 208.197 78.4075C208.197 79.6751 208.514 80.6258 209.128 81.2783C209.743 81.9308 210.655 82.2477 211.866 82.2477C213.989 82.2477 215.665 81.1478 216.875 78.9294Z" fill="white"/>
<path d="M229.594 83.795C228.793 82.9747 228.402 81.8189 228.402 80.3462V54.6951L232.108 54.2477V80.2717C232.108 80.8682 232.201 81.2969 232.406 81.5579C232.611 81.8189 232.946 81.9681 233.43 81.9681C233.933 81.9681 234.399 81.8935 234.808 81.7257L235.777 84.3169C234.883 84.8016 233.915 85.0439 232.834 85.0439C231.456 85.0439 230.376 84.6338 229.594 83.8136V83.795Z" fill="white"/>
</g>
<defs>
<clipPath id="clip0_497_950">
<rect width="236" height="98" fill="white"/>
</clipPath>
</defs>
</svg>
