<svg width="186" height="188" viewBox="0 0 186 188" fill="none" xmlns="http://www.w3.org/2000/svg">
<g clip-path="url(#clip0_632_960)">
<path d="M65.013 172.115V180.764H57.2252V187.994H54.8922C37.9529 187.994 21.0079 187.994 4.06861 187.994C3.43747 187.994 2.78379 188.04 2.18083 187.893C0.800209 187.553 0.0112856 186.649 0.00565045 185.168C1.52793e-05 183.715 0.6706 182.714 2.10757 182.415C2.92467 182.245 3.78121 182.234 4.62085 182.234C19.385 182.223 34.1435 182.228 48.9076 182.228H51.342V124.438H48.9865C34.2224 124.438 19.4639 124.438 4.69975 124.438C3.92773 124.438 3.1388 124.483 2.38933 124.336C0.800209 124.031 -0.0619716 123.036 0.0112856 121.357C0.0845428 119.763 1.03689 118.961 2.51894 118.695C2.9303 118.621 3.35858 118.644 3.78121 118.644C23.6734 118.644 43.5711 118.644 63.4633 118.644C63.8803 118.644 64.2916 118.678 64.8552 118.706C64.9566 119.893 65.0524 121.018 65.1651 122.313C66.85 119.882 68.2025 117.519 69.9437 115.495C73.8996 110.911 78.0471 106.49 82.1157 102.007C82.8257 101.227 83.5358 100.441 84.2345 99.6557C86.8154 96.7388 88.63 93.641 88.1115 89.4182C87.7452 86.4278 88.0044 83.3583 88.0608 80.3283C88.1059 77.8975 88.9737 77.0157 91.425 77.0552C93.6622 77.0948 95.9669 77.0326 98.1139 77.5527C103.681 78.8868 107.502 83.7935 107.649 89.5313C107.75 93.5505 107.868 97.5811 107.615 101.589C107.474 103.861 106.595 106.083 105.981 108.604C106.741 108.644 107.463 108.712 108.184 108.712C116.552 108.717 124.915 108.712 133.283 108.712C139.679 108.712 143.871 111.374 145.449 116.428C147.005 121.414 145.094 125.914 139.758 129.616C143.257 135.501 141.882 140.56 136.89 144.868C141.313 150.402 140.603 159.04 131.378 162.686C132.618 165.258 133.3 167.904 132.562 170.804C131.35 175.563 127.287 179.08 122.379 179.102C109.587 179.17 96.7897 179.187 83.9978 179.068C79.3488 179.029 75.2633 177.163 71.7188 174.15C69.9118 172.613 67.6784 171.932 65.0186 172.109L65.013 172.115ZM65.0693 166.344C67.1769 166.344 69.0703 166.242 70.9468 166.394C71.7413 166.457 72.75 166.858 73.2178 167.457C76.5707 171.731 80.9774 173.511 86.297 173.489C97.6857 173.444 109.074 173.478 120.463 173.472C121.162 173.472 121.872 173.466 122.565 173.359C125.411 172.929 127.236 170.747 127.118 167.949C127.005 165.207 124.909 163.15 122.052 163.02C120.998 162.969 119.945 163.014 118.891 163.003C116.282 162.974 115.121 162.053 115.149 160.057C115.177 158.158 116.316 157.248 118.801 157.225C121.962 157.197 125.129 157.254 128.29 157.203C131.57 157.146 133.773 155.043 133.796 152.059C133.818 149.068 131.632 146.92 128.369 146.83C125.912 146.762 123.45 146.83 120.987 146.801C118.412 146.767 117.217 145.784 117.279 143.811C117.335 141.917 118.468 141.058 120.976 141.041C124.278 141.024 127.586 141.109 130.888 141.001C134.348 140.888 136.709 137.57 135.751 134.353C135.058 132.03 133.097 130.611 130.263 130.56C126.96 130.498 123.653 130.577 120.35 130.526C118.215 130.493 117.082 129.294 117.296 127.4C117.516 125.461 118.806 124.879 120.57 124.885C125.281 124.896 129.992 124.936 134.697 124.868C138.18 124.817 140.468 122.296 140.152 119.034C139.882 116.241 137.622 114.387 134.359 114.382C123.957 114.359 113.549 114.416 103.146 114.308C101.963 114.297 100.441 113.726 99.72 112.867C99.1452 112.183 99.2015 110.543 99.5678 109.543C101.856 103.274 102.414 96.8236 102.087 90.2153C101.844 85.3594 98.5591 82.2277 93.7129 82.6912C93.7129 86.1056 93.6171 89.5482 93.7467 92.9796C93.8256 95.1446 93.3466 96.9819 91.904 98.6099C85.9871 105.309 80.0532 111.99 74.2321 118.774C72.9304 120.295 71.5272 122.07 71.1102 123.941C70.3664 127.265 68.6026 128.384 65.475 128C65.3736 127.988 65.2553 128.141 65.0749 128.265V166.349L65.0693 166.344ZM58.4762 175.366L59.1017 174.84C59.158 174.642 59.2594 174.444 59.2594 174.241C59.2764 158.107 59.2764 141.968 59.2933 125.834C59.2933 124.082 58.3747 124.342 57.3886 124.619C57.2646 124.857 57.2026 124.919 57.2026 124.981C57.1801 141.256 57.1463 157.536 57.197 173.811C57.197 174.331 58.031 174.851 58.4762 175.371V175.366Z" fill="#6666FF"/>
<path d="M131.711 0V38.5531H174.521V87.2419C171.698 87.2419 168.768 87.4284 165.871 87.191C162.963 86.9479 160.912 87.9033 158.934 90.0627C155.057 94.2968 150.876 98.2482 146.475 102.669V87.338H109.018V73.3809H72.4006V95.0316C71.4314 94.0933 70.896 93.6015 70.3832 93.0814C64.2522 86.8688 58.1493 80.6223 51.9562 74.4662C51.2631 73.7766 50.0516 73.2791 49.071 73.2622C43.2499 73.1491 37.4231 73.2056 31.4386 73.2056V0H131.711ZM37.1639 5.61337V67.4396C41.9426 67.4396 46.569 67.3548 51.1955 67.5018C52.3056 67.5357 53.6355 68.0954 54.4414 68.8642C58.1155 72.352 61.6375 76.0038 65.2214 79.5878C65.6328 80.0005 66.1062 80.3566 66.9458 81.0745V67.3266H126.042V5.61337H37.1639ZM114.743 81.5437H152.133V88.3555L152.73 88.6608C154.449 86.8123 156.229 85.0146 157.869 83.0983C158.979 81.7981 160.242 81.3459 161.921 81.442C164.203 81.5776 166.497 81.4759 168.801 81.4759V44.5169H131.632V73.2622H114.738V81.5381L114.743 81.5437Z" fill="#FFC01F"/>
<path d="M186 25.1783V43.0416H180.342V30.8482H143.539V25.1726H186V25.1783Z" fill="#FFC01F"/>
<path d="M29.9115 169.283C29.9509 164.755 33.4785 161.29 38.0092 161.329C42.399 161.369 46.0449 165.094 45.9999 169.487C45.9548 173.885 42.2525 177.497 37.8289 177.457C33.4053 177.418 29.872 173.766 29.9115 169.283ZM40.3365 169.074C39.7786 168.622 39.0348 167.582 38.105 167.372C36.6624 167.05 35.6875 168.096 35.5973 169.554C35.5128 170.906 36.2398 171.861 37.6993 171.946C39.2095 172.03 40.0604 171.25 40.3365 169.074Z" fill="#6666FF"/>
<path d="M31.1907 82.3237H36.9667V87.6205H42.2919V93.4148H37.0456V98.542H31.2752V93.4657H26.2261V87.8127H31.1907V82.3294V82.3237Z" fill="#FFC01F"/>
<path d="M185.96 47.1511V57.4791C184.411 57.4791 182.946 57.5638 181.503 57.4282C181.086 57.3886 180.41 56.7385 180.399 56.3485C180.308 53.3354 180.348 50.3168 180.348 47.1511H185.96Z" fill="#FFC01F"/>
<path d="M113.526 19.22V24.6977H50.7222V19.22H113.52H113.526Z" fill="#FFC01F"/>
<path d="M50.6545 38.033V32.6118H113.43V38.033H50.6545Z" fill="#FFC01F"/>
<path d="M83.3892 51.391H50.6545V45.9133H83.3892V51.391Z" fill="#FFC01F"/>
</g>
<defs>
<clipPath id="clip0_632_960">
<rect width="186" height="188" fill="white"/>
</clipPath>
</defs>
</svg>
