<?xml version="1.0" encoding="UTF-8"?><svg xmlns="http://www.w3.org/2000/svg" xmlns:xlink="http://www.w3.org/1999/xlink" viewBox="0 0 28.35 52.96"><defs><style>.j{fill:url(#f);}.k{fill:url(#g);}.l{fill:url(#e);}.m{stroke:url(#h);}.m,.n,.o{stroke-linecap:round;stroke-linejoin:round;}.m,.o{fill:none;}.n{fill:#fff;stroke:url(#i);}.o{stroke:url(#d);}</style><linearGradient id="d" x1="0" y1="26.48" x2="28.35" y2="26.48" gradientTransform="matrix(1, 0, 0, 1, 0, 0)" gradientUnits="userSpaceOnUse"><stop offset="0" stop-color="#66f"/><stop offset="1" stop-color="#a63ae6"/></linearGradient><linearGradient id="e" x1="-3.69" y1="24.94" x2="24.03" y2="24.94" xlink:href="#d"/><linearGradient id="f" x1="-3.69" y1="20.81" x2="24.03" y2="20.81" xlink:href="#d"/><linearGradient id="g" x1="-3.69" y1="22.18" x2="24.03" y2="22.18" xlink:href="#d"/><linearGradient id="h" x1="6.62" y1="1.87" x2="21.74" y2="1.87" xlink:href="#d"/><linearGradient id="i" y1="45.82" y2="45.82" xlink:href="#d"/></defs><g id="a"/><g id="b"><g id="c"><g><rect class="o" x=".5" y=".5" width="27.35" height="51.96" rx="2.93" ry="2.93"/><g><path class="l" d="M4.65,20.75c.07-.36,.11-.73,.2-1.08,.28-1.11,.8-2.07,1.69-2.82,.74-.62,1.78-.6,2.47,.09,.81,.8,1.62,1.61,2.43,2.43,.71,.72,.74,1.8,.05,2.55-.28,.31-.59,.6-.89,.89-.04,.04-.1,.07-.14,.09,.83,1.56,1.88,2.87,3.28,3.87,.46,.33,.95,.6,1.42,.91,.09,.06,.14,.04,.21-.03,.28-.28,.56-.56,.84-.84,.79-.78,1.89-.78,2.67,0,.76,.76,1.51,1.54,2.29,2.28,.8,.76,.74,1.81,.19,2.58-.76,1.07-1.81,1.64-3.11,1.78-.86,.09-1.69-.06-2.51-.29-1.73-.48-3.28-1.35-4.68-2.46-1.93-1.53-3.61-3.31-5-5.35-.62-.91-1.1-1.9-1.32-3-.05-.24-.08-.48-.12-.72,0-.29,0-.58,0-.87Zm1.06,.51c.03,.22,.05,.53,.1,.83,.19,1.02,.65,1.93,1.24,2.78,1.28,1.86,2.83,3.48,4.58,4.9,1.28,1.03,2.68,1.85,4.26,2.32,.84,.25,1.7,.41,2.59,.25,.89-.16,1.58-.62,2.08-1.36,.27-.4,.23-.77-.11-1.11-.77-.77-1.53-1.53-2.3-2.3-.38-.38-.81-.38-1.19,0-.33,.33-.66,.66-.98,.98-.33,.33-.71,.4-1.11,.17-.5-.28-1-.57-1.47-.89-1.7-1.15-2.96-2.69-3.91-4.5-.2-.39-.14-.76,.17-1.07,.34-.34,.69-.68,1.03-1.03,.33-.34,.34-.78,.02-1.1-.81-.81-1.62-1.62-2.43-2.43-.29-.29-.7-.31-1.02-.05-.14,.12-.28,.24-.4,.38-.78,.91-1.1,1.98-1.15,3.24Z"/><path class="j" d="M20.26,23.1c0,.31-.22,.55-.49,.57-.29,.02-.5-.19-.58-.49-.09-.4-.18-.81-.34-1.18-.69-1.53-1.86-2.51-3.5-2.93-.1-.03-.21-.04-.31-.05-.3-.05-.5-.32-.46-.6,.04-.3,.31-.5,.62-.45,1.99,.34,3.45,1.43,4.43,3.18,.32,.58,.54,1.2,.63,1.86,0,.04,.01,.09,.01,.11Z"/><path class="k" d="M14.63,20.14c.32,.1,.65,.18,.95,.31,1.29,.59,2.13,1.57,2.48,2.95,.03,.11,.05,.22,.04,.33-.02,.27-.24,.48-.5,.49-.26,.01-.49-.18-.55-.45-.24-1.21-.98-2-2.1-2.44-.14-.06-.3-.08-.45-.11-.26-.06-.45-.31-.42-.57,.03-.29,.26-.48,.55-.48v-.04Z"/></g><path class="m" d="M7.12,.5h14.12V1.81c0,.79-.64,1.42-1.42,1.42H8.54c-.79,0-1.42-.64-1.42-1.42V.5h0Z"/><line class="n" x1=".5" y1="45.82" x2="27.85" y2="45.82"/></g></g></g></svg>