<?xml version="1.0" encoding="UTF-8"?><svg xmlns="http://www.w3.org/2000/svg" xmlns:xlink="http://www.w3.org/1999/xlink" viewBox="0 0 60.88 53.4"><defs><style>.i{stroke:url(#e);}.i,.j,.k,.l,.m{fill:none;stroke-linecap:round;stroke-linejoin:round;}.j{stroke:url(#f);}.k{stroke:url(#g);}.l{stroke:url(#h);}.m{stroke:url(#d);}</style><linearGradient id="d" x1="17.51" y1="50.93" x2="43.37" y2="50.93" gradientTransform="matrix(1, 0, 0, 1, 0, 0)" gradientUnits="userSpaceOnUse"><stop offset="0" stop-color="#66f"/><stop offset="1" stop-color="#a63ae6"/></linearGradient><linearGradient id="e" x1="25.89" y1="45.86" x2="35" y2="45.86" xlink:href="#d"/><linearGradient id="f" x1="0" y1="21.15" x2="60.88" y2="21.15" xlink:href="#d"/><linearGradient id="g" x1="0" y1="32.32" x2="60.88" y2="32.32" xlink:href="#d"/><linearGradient id="h" x1="28.62" y1="37.27" x2="32.26" y2="37.27" xlink:href="#d"/></defs><g id="a"/><g id="b"><g id="c"><g><path class="m" d="M35.7,48.96c4.24,.33,7.18,1.04,7.18,1.87,0,1.14-5.57,2.07-12.43,2.07s-12.43-.92-12.43-2.07c0-.82,2.89-1.53,7.08-1.86"/><polyline class="i" points="26.39 49.91 26.39 41.81 34.5 41.81 34.5 49.91"/><rect class="j" x=".5" y=".5" width="59.88" height="41.31" rx="3.56" ry="3.56"/><line class="k" x1=".5" y1="32.32" x2="60.38" y2="32.32"/><circle class="l" cx="30.44" cy="37.27" r="1.32"/></g></g></g></svg>