<svg xmlns="http://www.w3.org/2000/svg" xmlns:xlink="http://www.w3.org/1999/xlink" viewBox="0 0 48.11 51.75"><defs><style>.cls-1,.cls-10,.cls-11,.cls-12,.cls-13,.cls-14,.cls-15,.cls-2,.cls-3,.cls-4,.cls-5,.cls-6,.cls-7,.cls-8,.cls-9{fill:none;stroke-linecap:round;stroke-linejoin:round;}.cls-1{stroke:url(#Degradado_sin_nombre_7);}.cls-2{stroke:url(#Degradado_sin_nombre_7-2);}.cls-3{stroke:url(#Degradado_sin_nombre_7-3);}.cls-4{stroke:url(#Degradado_sin_nombre_7-4);}.cls-5{stroke:url(#Degradado_sin_nombre_7-5);}.cls-6{stroke:url(#Degradado_sin_nombre_7-6);}.cls-7{stroke:url(#Degradado_sin_nombre_7-7);}.cls-8{stroke:url(#Degradado_sin_nombre_7-8);}.cls-9{stroke:url(#Degradado_sin_nombre_7-9);}.cls-10{stroke:url(#Degradado_sin_nombre_7-10);}.cls-11{stroke:url(#Degradado_sin_nombre_7-11);}.cls-12{stroke-dasharray:2.9 2.9;stroke:url(#Degradado_sin_nombre_7-12);}.cls-13{stroke:url(#Degradado_sin_nombre_7-13);}.cls-14{stroke-dasharray:4.02 4.02;}.cls-14,.cls-15{stroke:url(#Degradado_sin_nombre_7-14);}</style><linearGradient id="Degradado_sin_nombre_7" x1="20.39" y1="25.87" x2="48.11" y2="25.87" gradientUnits="userSpaceOnUse"><stop offset="0" stop-color="#66f"/><stop offset="1" stop-color="#a63ae6"/></linearGradient><linearGradient id="Degradado_sin_nombre_7-2" x1="26.85" y1="1.84" x2="41.65" y2="1.84" xlink:href="#Degradado_sin_nombre_7"/><linearGradient id="Degradado_sin_nombre_7-3" x1="20.39" y1="44.76" x2="48.11" y2="44.76" xlink:href="#Degradado_sin_nombre_7"/><linearGradient id="Degradado_sin_nombre_7-4" x1="0" y1="12.97" x2="17.63" y2="12.97" xlink:href="#Degradado_sin_nombre_7"/><linearGradient id="Degradado_sin_nombre_7-5" x1="3.51" y1="18.88" x2="14.08" y2="18.88" xlink:href="#Degradado_sin_nombre_7"/><linearGradient id="Degradado_sin_nombre_7-6" x1="4.16" y1="10.41" x2="13.47" y2="10.41" xlink:href="#Degradado_sin_nombre_7"/><linearGradient id="Degradado_sin_nombre_7-7" x1="6.39" y1="12.46" x2="11.24" y2="12.46" xlink:href="#Degradado_sin_nombre_7"/><linearGradient id="Degradado_sin_nombre_7-8" x1="26.71" y1="34.08" x2="41.8" y2="34.08" xlink:href="#Degradado_sin_nombre_7"/><linearGradient id="Degradado_sin_nombre_7-9" x1="27.66" y1="21.61" x2="40.9" y2="21.61" xlink:href="#Degradado_sin_nombre_7"/><linearGradient id="Degradado_sin_nombre_7-10" x1="30.95" y1="24.63" x2="37.61" y2="24.63" xlink:href="#Degradado_sin_nombre_7"/><linearGradient id="Degradado_sin_nombre_7-11" x1="8.29" y1="28.93" x2="25.07" y2="28.93" xlink:href="#Degradado_sin_nombre_7"/><linearGradient id="Degradado_sin_nombre_7-12" x1="8.29" y1="34.94" x2="25.07" y2="34.94" xlink:href="#Degradado_sin_nombre_7"/><linearGradient id="Degradado_sin_nombre_7-13" x1="8.29" y1="39.5" x2="25.07" y2="39.5" xlink:href="#Degradado_sin_nombre_7"/><linearGradient id="Degradado_sin_nombre_7-14" x1="8.29" y1="40.43" x2="25.07" y2="40.43" xlink:href="#Degradado_sin_nombre_7"/></defs><g id="Capa_2" data-name="Capa 2"><g id="Capa_1-2" data-name="Capa 1"><rect class="cls-1" x="20.89" y="0.5" width="26.72" height="50.75" rx="3.35"/><path class="cls-2" d="M27.35.5H41.15a0,0,0,0,1,0,0v1a1.63,1.63,0,0,1-1.63,1.63H29a1.63,1.63,0,0,1-1.63-1.63V.5A0,0,0,0,1,27.35.5Z"/><line class="cls-3" x1="20.89" y1="44.76" x2="47.61" y2="44.76"/><rect class="cls-4" x="0.5" y="0.5" width="16.63" height="24.94" rx="2.63"/><path class="cls-5" d="M4,23.2V19.35a4.78,4.78,0,0,1,4.78-4.78h0a4.78,4.78,0,0,1,4.79,4.78V23.2"/><circle class="cls-6" cx="8.81" cy="10.41" r="4.16"/><path class="cls-7" d="M6.89,12a2.47,2.47,0,0,0,3.85,0"/><path class="cls-8" d="M27.21,40.43V34.77a7,7,0,0,1,7-7h0a7,7,0,0,1,7,7v5.66"/><circle class="cls-9" cx="34.28" cy="21.61" r="6.12"/><path class="cls-10" d="M31.45,24a3.64,3.64,0,0,0,5.66,0"/><line class="cls-11" x1="8.79" y1="28" x2="8.79" y2="29.86"/><line class="cls-12" x1="8.79" y1="32.77" x2="8.79" y2="37.12"/><polyline class="cls-13" points="8.79 38.57 8.79 40.43 10.66 40.43"/><line class="cls-14" x1="14.67" y1="40.43" x2="20.7" y2="40.43"/><line class="cls-15" x1="22.71" y1="40.43" x2="24.57" y2="40.43"/></g></g></svg>