<?xml version="1.0" encoding="UTF-8"?><svg xmlns="http://www.w3.org/2000/svg" xmlns:xlink="http://www.w3.org/1999/xlink" viewBox="0 0 39.2 52.16"><defs><style>.k{fill:url(#i);}.k,.l,.m{opacity:.35;}.n{fill:#fff;}.o{stroke:url(#e);}.o,.p,.q{fill:none;stroke-linecap:round;stroke-linejoin:round;}.p{stroke:url(#f);}.l{fill:url(#h);}.m{fill:url(#g);}.r{fill:url(#j);}.q{stroke:url(#d);}</style><linearGradient id="d" x1="0" y1="26.28" x2="27.72" y2="26.28" gradientTransform="matrix(1, 0, 0, 1, 0, 0)" gradientUnits="userSpaceOnUse"><stop offset="0" stop-color="#66f"/><stop offset="1" stop-color="#a63ae6"/></linearGradient><linearGradient id="e" x1="6.46" y1="2.25" x2="16.36" y2="2.25" xlink:href="#d"/><linearGradient id="f" y1="45.17" y2="45.17" xlink:href="#d"/><linearGradient id="g" x1="16.14" y1="29.72" x2="12.02" y2="39.38" xlink:href="#d"/><linearGradient id="h" x1="15.14" y1="22.94" x2="11.9" y2="30.55" xlink:href="#d"/><linearGradient id="i" x1="10.89" y1="13.44" x2="8.1" y2="20" xlink:href="#d"/><linearGradient id="j" x1="31.54" y1="1.74" x2="22.54" y2="22.85" xlink:href="#d"/></defs><g id="a"/><g id="b"><g id="c"><g><path class="q" d="M27.22,27.71v20.59c0,1.85-1.5,3.35-3.35,3.35H3.85c-1.85,0-3.35-1.5-3.35-3.35V4.26C.5,2.41,2,.91,3.85,.91H15.1"/><path class="o" d="M13.72,3.58h-5.13c-.9,0-1.63-.73-1.63-1.63V.91H15.86"/><line class="p" x1=".5" y1="45.17" x2="27.22" y2="45.17"/><rect class="m" x="4.1" y="32.13" width="19.51" height="5.88" rx="1.07" ry="1.07"/><path class="l" d="M20.2,24.89l-3.52,1.12c-.93,.29-1.95,.05-2.63-.65-.61-.62-.84-1.51-.66-2.35H5.18c-.59,0-1.07,.48-1.07,1.07v3.73c0,.59,.48,1.07,1.07,1.07H22.54c.59,0,1.07-.48,1.07-1.07v-1.6c-1.19-.29-2.34-.74-3.42-1.32Z"/><path class="k" d="M14.54,19.45c-1.01-1.71-1.66-3.58-1.91-5.55H5.18c-.59,0-1.07,.48-1.07,1.07v3.73c0,.59,.48,1.07,1.07,1.07H14.43l.11-.32Z"/><path class="r" d="M27.15,0h0c-6.65,0-12.05,5.41-12.05,12.05,0,2.64,.85,5.08,2.3,7.06l-1.5,4.48,4.63-1.48c1.91,1.26,4.18,1.99,6.63,1.99,6.64,0,12.05-5.41,12.05-12.05S33.8,0,27.15,0"/><path class="n" d="M34.16,17.02c-.29,.82-1.44,1.5-2.37,1.7-.63,.13-1.45,.24-4.22-.91-3.54-1.47-5.82-5.07-6-5.3-.17-.23-1.43-1.91-1.43-3.64s.88-2.57,1.23-2.93c.29-.3,.77-.43,1.23-.43,.15,0,.28,0,.4,.01,.35,.02,.53,.04,.77,.6,.29,.7,1,2.43,1.08,2.61,.09,.18,.17,.42,.05,.65-.11,.24-.21,.35-.39,.55-.18,.21-.35,.36-.52,.58-.16,.19-.35,.4-.14,.75,.21,.35,.91,1.5,1.95,2.43,1.35,1.2,2.44,1.58,2.83,1.74,.29,.12,.64,.09,.85-.13,.27-.29,.6-.77,.94-1.25,.24-.34,.54-.38,.86-.26,.33,.11,2.05,.96,2.4,1.14,.35,.18,.59,.26,.67,.41,.08,.15,.08,.85-.21,1.67"/></g></g></g></svg>