<svg xmlns="http://www.w3.org/2000/svg" xmlns:xlink="http://www.w3.org/1999/xlink" width="1920" height="1061" viewBox="0 0 1920 1061">
  <defs>
    <filter id="Trazado_47" x="706" y="67" width="558.71" height="976.865" filterUnits="userSpaceOnUse">
      <feOffset dx="25" dy="25" input="SourceAlpha"/>
      <feGaussianBlur stdDeviation="15" result="blur"/>
      <feFlood flood-opacity="0.502"/>
      <feComposite operator="in" in2="blur"/>
      <feComposite in="SourceGraphic"/>
    </filter>
    <clipPath id="clip-path">
      <rect id="Rectángulo_53" data-name="Rectángulo 53" width="117.888" height="117.73" fill="#66f"/>
    </clipPath>
    <clipPath id="clip-path-2">
      <rect id="Rectángulo_54" data-name="Rectángulo 54" width="91.903" height="121.307" fill="#66f"/>
    </clipPath>
    <clipPath id="clip-path-3">
      <rect id="Rectángulo_50" data-name="Rectángulo 50" width="109.529" height="123.523" fill="#66f"/>
    </clipPath>
    <clipPath id="clip-path-4">
      <rect id="Rectángulo_52" data-name="Rectángulo 52" width="139.694" height="138.612" fill="#66f"/>
    </clipPath>
    <clipPath id="clip-path-5">
      <rect id="Rectángulo_55" data-name="Rectángulo 55" width="154.94" height="155.913" fill="#66f"/>
    </clipPath>
    <clipPath id="clip-Vector_Home_Experiencia_unica_1">
      <rect width="1920" height="1061"/>
    </clipPath>
  </defs>
  <g id="Vector_Home_Experiencia_unica_1" data-name="Vector Home_Experiencia unica 1" clip-path="url(#clip-Vector_Home_Experiencia_unica_1)">
    <rect width="1920" height="1061" fill="#fff"/>
    <rect id="Rectángulo_48" data-name="Rectángulo 48" width="1920" height="1061" fill="#66f"/>
    <g id="b" transform="translate(727.53 88.53)" opacity="0.17" style="isolation: isolate">
      <g id="c" transform="translate(0.47 0.47)">
        <g id="Grupo_134" data-name="Grupo 134">
          <g transform="matrix(1, 0, 0, 1, -728, -89)" filter="url(#Trazado_47)">
            <path id="Trazado_47-2" data-name="Trazado 47" d="M52,0H412.71a52,52,0,0,1,52,52V830.865a52,52,0,0,1-52,52H52a52,52,0,0,1-52-52V52A52,52,0,0,1,52,0Z" transform="translate(728 89)" fill="#fff" stroke="#66f" stroke-linecap="round" stroke-width="4"/>
          </g>
          <path id="Trazado_9" data-name="Trazado 9" d="M7.09.47H247.006V22.729a24.111,24.111,0,0,1-24.128,24.128H31.218A24.111,24.111,0,0,1,7.09,22.729V.47Z" transform="translate(105.392 -0.47)" fill="#fff" stroke="#66f" stroke-linecap="round" stroke-linejoin="round" stroke-width="4"/>
          <line id="Línea_1" data-name="Línea 1" x2="464.71" transform="translate(0 769.873)" fill="#fff" stroke="#66f" stroke-linecap="round" stroke-linejoin="round" stroke-width="4"/>
        </g>
      </g>
    </g>
    <g id="Grupo_151" data-name="Grupo 151" transform="translate(415 89)">
      <circle id="Elipse_7" data-name="Elipse 7" cx="106.5" cy="106.5" r="106.5" transform="translate(206 719)" fill="#f2dcff"/>
      <g id="Grupo_138" data-name="Grupo 138" transform="translate(253.167 766.183)">
        <g id="Grupo_137" data-name="Grupo 137" clip-path="url(#clip-path)">
          <path id="Trazado_20" data-name="Trazado 20" d="M195.869,220.8a25.5,25.5,0,1,1,25.5-25.51,25.486,25.486,0,0,1-25.5,25.51m-.064-3.924a21.582,21.582,0,1,0-21.522-21.65,21.634,21.634,0,0,0,21.522,21.65" transform="translate(-136.859 -136.407)" fill="#66f"/>
          <path id="Trazado_21" data-name="Trazado 21" d="M257.337,478.429h-27.32c.221-3.246-.561-6.527.8-9.649a9.814,9.814,0,0,1,7.775-5.914c-2.143-2.283-3.2-4.853-2.433-7.936a7.6,7.6,0,0,1,3.022-4.465,7.852,7.852,0,0,1,10.1.788c3.114,3.094,3.046,6.841-.247,11.585.666.187,1.336.315,1.961.559,3.511,1.368,5.811,3.871,6.284,7.625a60.389,60.389,0,0,1,.057,7.408m-3.754-3.948c0-.493,0-.856,0-1.22.006-4.161-2.372-6.571-6.5-6.581q-3.248-.008-6.5,0c-4.7.006-7.246,3.043-6.5,7.767h1.887v-3.769h3.907v3.787h7.83v-3.76h3.906v3.776ZM243.7,460.791a3.919,3.919,0,1,0-3.845-3.948,3.962,3.962,0,0,0,3.845,3.948" transform="translate(-184.765 -360.7)" fill="#66f"/>
          <path id="Trazado_22" data-name="Trazado 22" d="M20.617,368.634c0-2.244-.087-4.371.018-6.488a9.76,9.76,0,0,1,7.72-8.866c.224-.051.453-.082.708-.127-3.384-5.128-3.312-9.1.167-12.034a7.872,7.872,0,0,1,10.506.28c3.257,3.087,3.222,7.178-.172,11.71.336.078.628.141.918.213a9.8,9.8,0,0,1,7.579,9.5c.031,1.912.005,3.824.005,5.814Zm9.8-7.71v3.77H38.3V360.95H42.2v3.795c.367.017.642.044.917.039.313,0,.626-.037,1.026-.063,0-.483,0-.884,0-1.285,0-4.078-2.4-6.491-6.457-6.5-2.37,0-4.739-.019-7.109,0A6.039,6.039,0,0,0,24.7,364.72h1.815v-3.8Zm3.938-9.879a3.919,3.919,0,1,0-3.946-3.851,3.942,3.942,0,0,0,3.946,3.851" transform="translate(-16.536 -272.537)" fill="#66f"/>
          <path id="Trazado_23" data-name="Trazado 23" d="M487.306,129.191H460.023c0-2.567-.334-5.136.072-7.581.75-4.509,3.79-7.022,8.347-7.987a8.014,8.014,0,0,1-2.607-7.234,7.535,7.535,0,0,1,2.727-4.789,7.836,7.836,0,0,1,10.493.41c3.21,3.125,3.147,7.326-.249,11.61.365.1.685.189,1.007.272a9.7,9.7,0,0,1,7.471,8.939c.133,2.068.023,4.151.023,6.36m-9.734-3.931V121.5H481.5v3.712h1.843c.408-5.162-1.947-7.744-6.961-7.745-2.082,0-4.164-.008-6.247,0-4.42.021-7.115,3.411-6.178,7.789h1.812V121.5h3.962v3.758Zm-4.017-13.682a3.944,3.944,0,0,0,3.96-3.847,4.007,4.007,0,0,0-3.969-3.987,3.917,3.917,0,0,0,.009,7.834" transform="translate(-369.461 -80.16)" fill="#66f"/>
          <path id="Trazado_24" data-name="Trazado 24" d="M27.6,129.2H0c.154-2.805-.055-5.636.538-8.287.923-4.126,3.916-6.424,8.191-7.271a8.078,8.078,0,0,1-2.628-7.12,7.571,7.571,0,0,1,2.839-4.989,7.838,7.838,0,0,1,10.491.559c3.13,3.153,3.031,7.407-.347,11.527.439.123.838.238,1.238.346a9.733,9.733,0,0,1,7.272,9.228c.045,1.955.008,3.913.008,6.006M6,121.495H9.988v3.742h7.874v-3.759h3.9v3.777h1.8c.655-4.879-1.86-7.779-6.683-7.782-2.2,0-4.409-.015-6.613,0a6.07,6.07,0,0,0-6.038,7.788H6Zm7.835-9.913a3.93,3.93,0,0,0,3.96-3.839,3.98,3.98,0,0,0-3.951-4,3.917,3.917,0,0,0-.009,7.834" transform="translate(0 -80.163)" fill="#66f"/>
          <path id="Trazado_25" data-name="Trazado 25" d="M458.528,353.117c5.358,1.09,8.464,4.861,8.489,10.214.008,1.745,0,3.49,0,5.3H439.527c.2-3.031-.488-6.109.587-9.06,1.328-3.644,4.037-5.728,8-6.472a8.144,8.144,0,0,1-2.533-7.581,7.551,7.551,0,0,1,2.916-4.672,7.831,7.831,0,0,1,10.119.484c3.228,2.988,3.218,6.846-.089,11.79m4.565,11.59v-1.248c0-4.13-2.408-6.536-6.551-6.542-2.289,0-4.578-.01-6.866,0-4.307.023-7.019,3.526-6.033,7.784h1.814v-3.795h3.919v3.8h7.848v-3.8h3.92v3.8Zm-9.8-13.683a3.919,3.919,0,1,0-3.932-3.851,3.9,3.9,0,0,0,3.932,3.851" transform="translate(-353.069 -272.515)" fill="#66f"/>
          <path id="Trazado_26" data-name="Trazado 26" d="M230.212,29.358c0-2.351-.175-4.649.037-6.91.412-4.38,3.553-7.486,8.5-8.594a8.02,8.02,0,0,1-2.618-7.214,7.55,7.55,0,0,1,2.711-4.8,7.831,7.831,0,0,1,10.317.2c3.312,2.987,3.323,6.885-.006,11.854a9.487,9.487,0,0,1,7.443,5.5,13.776,13.776,0,0,1,.995,4.366c.166,1.819.04,3.665.04,5.6ZM253.587,25.5c.629-4.9-1.875-7.806-6.613-7.808q-3.189,0-6.379,0c-4.554.007-7.224,3.257-6.365,7.741h1.864V21.727h3.934v3.742h7.824V21.7h3.931V25.5Zm-9.758-13.7a3.942,3.942,0,0,0,3.986-3.816,4.006,4.006,0,0,0-3.938-4.018,3.942,3.942,0,0,0-3.9,3.907,3.889,3.889,0,0,0,3.852,3.927" transform="translate(-184.889 0)" fill="#66f"/>
          <path id="Trazado_27" data-name="Trazado 27" d="M249.205,233.379c5.715,1.356,8.511,4.9,8.514,10.685,0,1.586,0,3.171,0,4.836H230.366a50.232,50.232,0,0,1,.064-7.322c.642-4.3,3.372-6.926,7.57-8.021.2-.051.4-.072.6-.114.025-.005.042-.054.062-.083-3.351-5.059-3.282-9,.209-11.959a7.869,7.869,0,0,1,10.5.272c3.264,3.088,3.232,7.218-.167,11.707m4.565,11.613c0-.828.059-1.6-.01-2.361a5.845,5.845,0,0,0-5.684-5.4c-2.738-.063-5.481-.076-8.219,0a5.987,5.987,0,0,0-5.494,7.742h1.821v-3.769H240.1v3.775h7.845V241.2h3.885v3.787Zm-9.78-13.673a3.946,3.946,0,0,0,3.911-3.9,3.992,3.992,0,0,0-3.889-3.94,3.945,3.945,0,0,0-3.949,3.978,3.9,3.9,0,0,0,3.927,3.858" transform="translate(-184.976 -176.357)" fill="#66f"/>
        </g>
      </g>
    </g>
    <g id="Grupo_152" data-name="Grupo 152" transform="translate(-4 379)">
      <circle id="Elipse_8" data-name="Elipse 8" cx="106.5" cy="106.5" r="106.5" transform="translate(1090 429)" fill="#d1ff9c"/>
      <g id="Grupo_140" data-name="Grupo 140" transform="translate(1155.253 475.008)">
        <g id="Grupo_139" data-name="Grupo 139" clip-path="url(#clip-path-2)">
          <path id="Trazado_28" data-name="Trazado 28" d="M66.571,0c.667.218,1.346.407,2,.659C72.485,2.169,74.8,5.694,74.8,10.227q.018,20.078,0,40.155c0,3.514.006,7.028-.007,10.542,0,.468.068,1.086-.189,1.369a3.235,3.235,0,0,1-1.729,1.12A1.474,1.474,0,0,1,71.3,61.977a10.384,10.384,0,0,1-.042-1.419q0-25.112,0-50.224c0-3.6-1.894-6.25-5.12-6.641a58.651,58.651,0,0,0-7.451-.107c-.212,0-.547.392-.608.652-.289,1.228-.474,2.479-.747,3.71a8.14,8.14,0,0,1-7.85,6.51q-12.083.094-24.168,0a8.108,8.108,0,0,1-7.8-6.416c-.337-1.455-.6-2.928-.9-4.442-2.615,0-5.186-.166-7.725.043A5.987,5.987,0,0,0,3.567,9.408c-.014.236-.012.474-.012.71q0,50.52,0,101.04c0,3.406,1.935,5.879,5.061,6.486a7.439,7.439,0,0,0,1.413.1q27.368.008,54.735,0a6.1,6.1,0,0,0,6.465-6.236c.064-5.369.017-10.74.014-16.109,0-.153-.033-.306-.07-.632H69.683c-3.08,0-6.161-.009-9.241,0A6.058,6.058,0,0,1,54.9,91.753a1.391,1.391,0,0,0-1-.571q-14.039-.047-28.078-.006a1.225,1.225,0,0,0-.944.438c-1.287,2.6-3.454,3.661-6.37,3.684,0,1.783-.068,3.549.025,5.306.057,1.086.929,1.7,2.188,1.71,1.974.022,3.949,0,5.924.01,1.375.009,2.2.7,2.18,1.787s-.859,1.751-2.235,1.76c-2.014.013-4.029.03-6.042,0a5.514,5.514,0,0,1-5.616-5.642c-.025-1.612,0-3.224,0-4.85a21.936,21.936,0,0,1-2.266-.35,5.831,5.831,0,0,1-4.49-6.139,5.758,5.758,0,0,1,5.5-5.368,55.625,55.625,0,0,1,6.039-.008,5.735,5.735,0,0,1,5,3.283c.175.327.56.764.856.77,2.794.059,5.59.035,8.534.035V81.853c0-.869-.007-1.737,0-2.606a5.5,5.5,0,0,1,5.726-5.762c4.344-.033,8.688-.009,13.032-.009h1.32c.119-.3.223-.551.32-.8a5.821,5.821,0,0,1,5.538-3.909q12.973-.041,25.946,0a5.876,5.876,0,1,1,.037,11.751c-3.277.064-6.555.017-9.833.019H74.867V83h1.321c3.159,0,6.319-.016,9.478,0A5.94,5.94,0,0,1,91.9,88.9c-.011,3.362-2.656,5.851-6.265,5.865-3.549.014-7.1,0-10.832,0v1.31q0,7.4,0,14.807c-.011,6.362-4.084,10.417-10.461,10.418q-26.953,0-53.906,0C4.076,121.3,0,117.233,0,110.869Q0,60.763,0,10.658C0,4.957,2.576,1.608,8.086.131A.7.7,0,0,0,8.277,0ZM37.666,87.436a1.561,1.561,0,0,0,.353.139c5.209.011,10.419.028,15.627,0a1.132,1.132,0,0,0,.819-.6A6.041,6.041,0,0,1,60.685,83c3.078.028,6.157.009,9.235,0,.415,0,.83-.046,1.245-.071V80.535c-3.594,0-7.1-.009-10.611,0A6.125,6.125,0,0,1,54.966,77.6a1.184,1.184,0,0,0-.779-.548c-4.893-.028-9.788-.039-14.681.012a1.823,1.823,0,0,0-1.829,1.945c-.034,2.8-.011,5.6-.011,8.423m16.9-83.83H20.219A33.181,33.181,0,0,0,21.2,7.92,4.276,4.276,0,0,0,25.36,10.9q12.024.073,24.049.007a4.521,4.521,0,0,0,4.279-3.18c.39-1.314.581-2.687.88-4.127m18.51,73.377q6.043,0,12.085,0a7.747,7.747,0,0,0,1.065-.032,2.319,2.319,0,0,0-.032-4.622,6.5,6.5,0,0,0-.828-.021q-12.322,0-24.644.007a4.589,4.589,0,0,0-1.51.2,2.281,2.281,0,0,0-.077,4.221,4.654,4.654,0,0,0,1.619.239c4.107.018,8.215.01,12.322.01m-.115,14.231c4.3,0,8.609.017,12.914-.009a2.347,2.347,0,0,0,2.466-2.334,2.379,2.379,0,0,0-2.386-2.3c-.275-.02-.553-.008-.829-.008q-12.084,0-24.168,0a7.289,7.289,0,0,0-1.3.07A2.233,2.233,0,0,0,57.775,89.2a2.335,2.335,0,0,0,2.63,2.008c4.186.011,8.372,0,12.558,0M16.779,87.037v0c-.868,0-1.737-.03-2.6.007a2.325,2.325,0,1,0,.005,4.641q2.543.047,5.088,0a2.319,2.319,0,1,0,.112-4.633c-.865-.05-1.735-.009-2.6-.009" transform="translate(0 0.001)" fill="#66f"/>
          <path id="Trazado_29" data-name="Trazado 29" d="M135.641,91.426c1.717-2.273,3.379-4.472,5.04-6.672,1.142-1.512,2.269-3.035,3.426-4.535.8-1.038,1.8-1.264,2.653-.65.91.657.991,1.7.164,2.806-2.986,3.976-5.986,7.942-9.032,11.98.193.286.372.58.579.853q4.828,6.37,9.66,12.737a6.864,6.864,0,0,1,.746,1.064,1.731,1.731,0,0,1-2.585,2.189,5.153,5.153,0,0,1-.872-.954q-4.411-5.8-8.808-11.6c-.3-.4-.622-.791-1-1.268l-8.7,11.538c-.309.41-.606.829-.928,1.228a1.908,1.908,0,0,1-2.691.58A1.825,1.825,0,0,1,123.16,108q4.761-6.346,9.546-12.674c.212-.281.413-.569.671-.926q-3.01-3.972-6-7.92c-1.049-1.384-2.115-2.755-3.15-4.15-.78-1.051-.711-2.067.139-2.724a1.825,1.825,0,0,1,2.667.566c2.617,3.415,5.21,6.848,7.814,10.273.232.305.481.6.794.985" transform="translate(-83.817 -54.157)" fill="#66f"/>
          <path id="Trazado_30" data-name="Trazado 30" d="M53.114,92.208q0,4.085,0,8.171a10.952,10.952,0,0,1-8.174,11.084c-6.374,2.01-13.629-1.941-14.945-8.152a8.052,8.052,0,0,1-.155-1.643c-.011-6.474,0-12.947-.019-19.421,0-1.063.285-1.893,1.391-2.174,1.222-.31,2.161.6,2.167,2.107.015,3.592.005,7.184.005,10.776q0,3.849,0,7.7a7.518,7.518,0,0,0,6.018,7.567,8.994,8.994,0,0,0,8.966-3.232,6.021,6.021,0,0,0,1.2-3.754c-.022-6.118-.009-12.236-.008-18.354,0-.355-.02-.713.014-1.065A1.767,1.767,0,0,1,51.4,80.034a1.709,1.709,0,0,1,1.7,1.871c.028,2.6.011,5.21.012,7.815q0,1.243,0,2.487" transform="translate(-20.384 -54.691)" fill="#66f"/>
          <path id="Trazado_31" data-name="Trazado 31" d="M119.9,322.037c-2.485,0-4.971.022-7.456-.005a5.851,5.851,0,1,1-.169-11.7q7.632-.1,15.266,0a5.715,5.715,0,0,1,5.7,5.988,5.8,5.8,0,0,1-5.887,5.707c-2.485.033-4.971.007-7.456.007m-.111-3.553c2.444,0,4.887.014,7.331,0a2.318,2.318,0,1,0-.009-4.608q-7.212-.032-14.426,0c-1.648.006-2.7.98-2.652,2.365a2.385,2.385,0,0,0,2.66,2.246c2.365.015,4.729,0,7.094,0" transform="translate(-72.778 -212.087)" fill="#66f"/>
          <path id="Trazado_32" data-name="Trazado 32" d="M197.076,27.346a1.726,1.726,0,1,1,.082-3.451,1.741,1.741,0,0,1,1.707,1.76,1.772,1.772,0,0,1-1.789,1.691" transform="translate(-133.554 -16.333)" fill="#66f"/>
          <path id="Trazado_33" data-name="Trazado 33" d="M106.65,21.67c-1.105,0-2.212.029-3.316-.006a1.737,1.737,0,0,1-1.888-1.694,1.756,1.756,0,0,1,1.889-1.83c2.289-.038,4.58-.041,6.869,0a1.7,1.7,0,0,1,1.818,1.768,1.68,1.68,0,0,1-1.82,1.748c-1.183.042-2.368.009-3.553.01" transform="translate(-69.342 -12.379)" fill="#66f"/>
        </g>
      </g>
    </g>
    <g id="Grupo_132" data-name="Grupo 132" transform="translate(425 -56)">
      <circle id="Elipse_6" data-name="Elipse 6" cx="106.5" cy="106.5" r="106.5" transform="translate(196 119)" fill="#fbd336"/>
      <g id="Grupo_131" data-name="Grupo 131" transform="translate(248 164)">
        <g id="Grupo_130" data-name="Grupo 130" clip-path="url(#clip-path-3)">
          <path id="Trazado_2" data-name="Trazado 2" d="M53.317,123.524c-.9-.315-1.837-.557-2.7-.958A9.671,9.671,0,0,1,45.3,111.543c.071-.307.129-.617.209-1q-3.343-1.936-6.666-3.86-10.378-5.993-20.749-12a1.2,1.2,0,0,0-1.737.176A9.581,9.581,0,0,1,5.407,96.5,9.706,9.706,0,0,1,7.051,78.453a1.068,1.068,0,0,0,.9-1.256q-.028-15.434,0-30.867c0-.623-.079-.987-.8-1.209a9.717,9.717,0,1,1,9.518-16.178c.143.135.294.26.515.454L45.5,13.038C44.35,8.351,45.41,4.481,49.378,1.7a9.371,9.371,0,0,1,10.766,0c3.974,2.771,5.031,6.647,3.88,11.332l28.312,16.35c.352-.307.7-.616,1.06-.922a9.717,9.717,0,1,1,9.339,16.559,1.338,1.338,0,0,0-1.168,1.55q.055,15.253.007,30.506c0,.8.17,1.164,1.018,1.413a9.713,9.713,0,1,1-9.435,16.383c-.479-.442-.8-.723-1.515-.307Q78,102.5,64.325,110.363a2.361,2.361,0,0,0-.313.28,9.967,9.967,0,0,1,.08,5.9,9.653,9.653,0,0,1-6.983,6.7c-.3.085-.6.189-.9.285ZM62.55,16.361c-1.836,1-3.394,1.963-5.051,2.7-.724.324-.959.629-.942,1.378.044,1.888.023,3.777,0,5.666a1.742,1.742,0,0,1-1.556,1.959c-1.175.169-2.006-.6-2.035-1.952-.043-1.968.012-3.939-.044-5.907a1.35,1.35,0,0,0-.577-.975c-1.691-.942-3.424-1.809-5.143-2.7.115-.3.068-.306.036-.287Q33.415,24.209,19.607,32.2a1.532,1.532,0,0,0-.443,1.138c-.031,1.549.164,3.116-.016,4.643a1.3,1.3,0,0,0,.759,1.591c1.69.925,3.392,1.845,4.982,2.925a2.315,2.315,0,0,1,.861,1.778,2.083,2.083,0,0,1-1.2,1.418,2.521,2.521,0,0,1-1.782-.344c-1.9-1.017-3.755-2.129-5.3-3.015a38.342,38.342,0,0,1-4.731,2.606,1.554,1.554,0,0,0-1.2,1.795c.038,5.023.018,10.047.018,15.07,0,5.064.014,10.127-.014,15.191a1.359,1.359,0,0,0,1.036,1.536A40.89,40.89,0,0,1,16.6,80.864a1.491,1.491,0,0,0,1.189.142c1.6-.841,3.143-1.78,4.709-2.681,1.514-.87,2.516-.763,3.121.324.584,1.049.173,1.945-1.279,2.785-1.494.864-2.973,1.757-4.491,2.578-.662.359-.8.714-.7,1.506a17.4,17.4,0,0,1,.03,4.406,1.369,1.369,0,0,0,.767,1.691q9.254,5.288,18.473,10.637l8.97,5.173a10.656,10.656,0,0,1,4.9-3.092,1.342,1.342,0,0,0,.635-1.036c.064-1.927.028-3.857.035-5.786a1.807,1.807,0,0,1,1.267-1.963,1.769,1.769,0,0,1,2.326,1.838c.055,1.968-.006,3.939.047,5.907a1.364,1.364,0,0,0,.526,1.009c1.723.959,3.49,1.838,5.482,2.867C71.5,102.036,80.749,96.7,89.973,91.33c.267-.155.366-.763.377-1.164.041-1.587-.07-3.184.056-4.762.054-.675-.033-1.012-.616-1.333-1.653-.911-3.284-1.859-4.908-2.82-1.178-.7-1.51-1.633-.976-2.6.557-1.007,1.569-1.2,2.8-.507C88.389,79.1,90.036,80.1,91.737,81a1.5,1.5,0,0,0,1.191-.135c1.431-.776,2.788-1.693,4.244-2.412.547-.271.812-.454.811-1.089-.017-10.409-.009-20.817-.029-31.226,0-.3-.191-.815-.386-.865a10.852,10.852,0,0,1-5.18-3.131c-1.965,1.13-3.834,2.223-5.72,3.283-1.179.663-2.154.478-2.732-.462-.594-.965-.245-1.968.977-2.688,1.557-.917,3.116-1.83,4.7-2.7a1.275,1.275,0,0,0,.761-1.59,16.579,16.579,0,0,1-.019-4.406c.105-.829,0-1.2-.717-1.6-4.85-2.759-9.675-5.563-14.507-8.353L62.55,16.361m-1.692-6.6a6.095,6.095,0,1,0-6.107,6.152,6.089,6.089,0,0,0,6.107-6.152m38.96,84.122a6.109,6.109,0,0,0,.019-12.217,6.109,6.109,0,1,0-.019,12.217M60.858,113.8a6.095,6.095,0,1,0-6.148,6.1,6.111,6.111,0,0,0,6.148-6.1M9.744,93.884a6.109,6.109,0,1,0-6.121-6.115,6.132,6.132,0,0,0,6.121,6.115M9.679,29.671a6.1,6.1,0,0,0,.038,12.206,6.1,6.1,0,1,0-.038-12.206M105.9,35.759a6.119,6.119,0,0,0-12.237-.049,6.118,6.118,0,1,0,12.237.049" transform="translate(0 0)" fill="#66f"/>
          <path id="Trazado_3" data-name="Trazado 3" d="M89.126,119.664a11.606,11.606,0,0,1-3.057-6.123,11.19,11.19,0,0,1,21.112-6.686c.447.939.988.911,1.871,1.062,2.223.378,3.053-.783,4.124-2.444a11.048,11.048,0,0,1,15.987-2.618A11.2,11.2,0,0,1,130.947,119c-.18.214-.365.423-.626.725.351.241.67.455.984.677a16.024,16.024,0,0,1,7.068,12.679c.089,1.4-.537,2.282-1.641,2.382-1.143.1-1.855-.68-1.965-2.187A12.271,12.271,0,0,0,127.84,122.6a3.777,3.777,0,0,0-1.91-.16c-1.55.122-3.091.4-4.642.467a1.293,1.293,0,0,0-1.375.791c-.568,1.139-1.319,2.186-2.064,3.385.232.163.582.4.925.65a15.833,15.833,0,0,1,6.937,12.488c.091,1.657-.5,2.477-1.716,2.505-1.2.027-1.781-.74-1.9-2.414a12.068,12.068,0,0,0-6.875-10.436,2.813,2.813,0,0,0-1.9-.159,12.506,12.506,0,0,1-7.24-.039,2.333,2.333,0,0,0-1.565.072,12.064,12.064,0,0,0-7.1,10.409c-.026.32-.02.645-.077.96a1.788,1.788,0,1,1-3.556-.384A15.525,15.525,0,0,1,99,129.109c.82-.758,1.761-1.385,2.61-2.044-.749-1.265-1.492-2.567-2.3-3.83-.125-.2-.521-.269-.8-.306-1.774-.236-3.55-.477-5.331-.643a2.8,2.8,0,0,0-1.473.275,12.309,12.309,0,0,0-6.933,10.3c-.024.24-.026.482-.048.722-.113,1.216-.85,1.946-1.9,1.883a1.741,1.741,0,0,1-1.673-2.086,31.162,31.162,0,0,1,1.317-5.952,14.6,14.6,0,0,1,5.785-7.065c.232-.158.472-.3.7-.466a1.031,1.031,0,0,0,.166-.237m20.657,6.965a7.576,7.576,0,0,0,7.579-7.581,7.606,7.606,0,1,0-15.211.054,7.576,7.576,0,0,0,7.633,7.526m-5.557-17.379a7.479,7.479,0,0,0-9.347-4.725,7.585,7.585,0,0,0-5.016,9.469c1.156,3.744,5.18,6.154,8.635,5.111a11.43,11.43,0,0,1,5.728-9.854m16.8,9.972a7.584,7.584,0,0,0,3.081-14.848c-3.856-.852-7.892,1.369-8.792,4.9a11.455,11.455,0,0,1,5.711,9.948" transform="translate(-54.992 -68.148)" fill="#66f"/>
          <path id="Trazado_4" data-name="Trazado 4" d="M134.392,271.768q7.235,0,14.47,0c1.549,0,2.336.617,2.333,1.795s-.812,1.818-2.336,1.818q-14.59.007-29.18,0c-1.83,0-2.86-1.272-2.152-2.632a2,2,0,0,1,2.034-.99c4.944.017,9.887.008,14.831.008" transform="translate(-79.508 -184.199)" fill="#66f"/>
          <path id="Trazado_5" data-name="Trazado 5" d="M199.164,253.3c-.883,0-1.767.037-2.647-.011a1.779,1.779,0,1,1-.015-3.557c1.8-.063,3.611-.063,5.412.006a1.671,1.671,0,0,1,1.737,1.766,1.709,1.709,0,0,1-1.84,1.789c-.88.044-1.764.009-2.647.007" transform="translate(-131.966 -169.239)" fill="#66f"/>
          <path id="Trazado_6" data-name="Trazado 6" d="M138.66,249.846a1.778,1.778,0,1,1,.043,3.556,1.778,1.778,0,1,1-.043-3.556" transform="translate(-92.789 -169.345)" fill="#66f"/>
          <path id="Trazado_7" data-name="Trazado 7" d="M159.946,251.653a1.816,1.816,0,0,1-1.909,1.743,1.778,1.778,0,1,1,.182-3.551,1.816,1.816,0,0,1,1.727,1.808" transform="translate(-105.969 -169.343)" fill="#66f"/>
          <path id="Trazado_8" data-name="Trazado 8" d="M119.2,249.846a1.779,1.779,0,1,1,.062,3.556,1.779,1.779,0,1,1-.062-3.556" transform="translate(-79.607 -169.345)" fill="#66f"/>
        </g>
      </g>
    </g>
    <text id="Profesionales_propios" data-name="Profesionales propios" transform="translate(343 178)" fill="#fff" font-size="25" font-family="FiraSans-SemiBold, Fira Sans" font-weight="600"><tspan x="0" y="0">Profesionales propios</tspan></text>
    <text id="Seguimiento_permanente" data-name="Seguimiento permanente" transform="translate(303 923)" fill="#fff" font-size="25" font-family="FiraSans-SemiBold, Fira Sans" font-weight="600"><tspan x="0" y="0">Seguimiento permanente</tspan></text>
    <text id="Tecnología" transform="translate(960 679)" fill="#fff" font-size="25" font-family="FiraSans-SemiBold, Fira Sans" font-weight="600"><tspan x="-61.488" y="0">Tecnología</tspan></text>
    <text id="Canales_exclusivos_omnicanal_" data-name="Canales exclusivos (omnicanal)" transform="translate(1329 178)" fill="#fff" font-size="25" font-family="FiraSans-SemiBold, Fira Sans" font-weight="600"><tspan x="0" y="0">Canales exclusivos (omnicanal)</tspan></text>
    <text id="Experiencia_de_usuario_UX_" data-name="Experiencia de usuario (UX)" transform="translate(1329 923)" fill="#fff" font-size="25" font-family="FiraSans-SemiBold, Fira Sans" font-weight="600"><tspan x="0" y="0">Experiencia de usuario (UX)</tspan></text>
    <g id="Grupo_147" data-name="Grupo 147" transform="translate(-445 -16)">
      <circle id="Elipse_6-2" data-name="Elipse 6" cx="106.5" cy="106.5" r="106.5" transform="translate(1531 79)" fill="#0ef"/>
      <g id="Grupo_136" data-name="Grupo 136" transform="translate(1562.604 113.194)">
        <g id="Grupo_135" data-name="Grupo 135" clip-path="url(#clip-path-4)">
          <path id="Trazado_10" data-name="Trazado 10" d="M139.693,131.5q-.245.7-.492,1.405a8.305,8.305,0,0,1-7.749,5.664c-8,.05-16,.072-24.006-.006a8.253,8.253,0,0,1-8.147-8.233q-.09-14.8,0-29.6a8.286,8.286,0,0,1,8.4-8.254c3.174-.038,6.348-.007,9.729-.007,0-1.731,0-3.347,0-4.964,0-1.455.024-2.91-.008-4.365-.052-2.338-1.224-3.488-3.586-3.49q-15.686-.015-31.372,0c-2.365,0-4.729-.023-7.093.014a2.872,2.872,0,0,0-3.125,2.631c-.144,3.342-.043,6.695-.043,10.177,2.983,0,5.882,0,8.781,0,5.907,0,9.338,3.406,9.34,9.276q.006,13.844,0,27.689c0,5.674-3.5,9.154-9.2,9.158q-11.049.008-22.1,0c-5.609,0-9.108-3.488-9.114-9.094q-.015-13.981,0-27.962c.006-5.613,3.482-9.057,9.122-9.066,2.946,0,5.892,0,8.961,0,.03-.6.074-1.082.075-1.565.009-2.682-.056-5.367.026-8.047a7.166,7.166,0,0,1,7.539-7.277c5.547-.015,11.094,0,16.641,0h1.59c0-3.532.021-6.93-.035-10.327-.005-.315-.475-.643-.765-.929a14.31,14.31,0,0,1-2.375-2.364,1.975,1.975,0,0,0-2-1.146c-3.363.063-6.729.038-10.093.021-4.673-.024-7.662-3.013-7.691-7.678-.014-2.267,0-4.535,0-6.91H66.739c0,2.038.034,4.066-.013,6.093a13.875,13.875,0,0,1-.316,3.239,7.147,7.147,0,0,1-7.265,5.253c-11,.016-22.006,0-33.009.027a4.137,4.137,0,0,0-2.319.518,3.421,3.421,0,0,0-1.408,2.155c-.154,3.214-.065,6.439-.065,9.844,2.267,0,4.481-.028,6.693.009a26.578,26.578,0,0,1,4.88.261,8.052,8.052,0,0,1,6.493,7.881q.084,14.936-.007,29.871a8.274,8.274,0,0,1-8.025,8.077c-2.361.082-4.728.041-7.092.017a2.079,2.079,0,0,1-2.3-1.993c-.021-1.209.912-2.046,2.378-2.062,2.228-.025,4.456.025,6.683-.023a4.193,4.193,0,0,0,4.3-4.2c.061-6.637.024-13.276.02-19.914a2.659,2.659,0,0,0-.113-.492H4.169c-.026.438-.073.873-.074,1.307q-.007,9.207,0,18.414c0,3.156,1.73,4.883,4.884,4.9,2.046.011,4.092-.013,6.138.008,1.5.015,2.384.789,2.385,2.029s-.881,2.018-2.379,2.03c-2.273.018-4.548.043-6.82-.01a8.382,8.382,0,0,1-8.264-8.294q-.079-14.731,0-29.462a8.352,8.352,0,0,1,8.343-8.34c3.22-.044,6.441-.008,9.781-.008.029-.545.071-.984.072-1.424.007-2.455,0-4.91.005-7.365.02-4.87,2.955-7.827,7.8-7.832q16.164-.015,32.327,0c.364,0,.728.012,1.091,0a3.051,3.051,0,0,0,3.17-2.935c.12-2.487.03-4.983.03-7.679-1.325,0-2.577,0-3.83,0-5.365-.023-8.908-3.52-8.918-8.86q-.027-14.186,0-28.372c.009-5.335,3.571-8.88,8.9-8.889q11.321-.017,22.642,0A8.449,8.449,0,0,1,90.319,8.82c.012,1.955.008,3.91,0,5.865-.008,2.01-.674,2.685-2.716,2.687q-12.549.014-25.1,0H54.028c-.024.5-.062.937-.063,1.37q-.005,9.139,0,18.278c0,3.376,1.651,5.038,5,5.042q11.117.014,22.234,0,5.044-.005,5.047-5,.01-5.661,0-11.322A2.09,2.09,0,0,1,88,23.36a1.92,1.92,0,0,1,2.295,1.918c.04,4.409.157,8.827-.047,13.228a8.242,8.242,0,0,1-8.059,7.605c-2.353.057-4.707.01-7.16.01,0,2.807-.088,5.475.036,8.134a2.809,2.809,0,0,0,2.847,2.465c3.864.055,7.729.042,11.593,0a1.475,1.475,0,0,0,.994-.661,6.1,6.1,0,1,1,8.235,8.26c-.332.2-.76.611-.765.93-.055,3.4-.034,6.793-.034,10.324h4.6c3.774,0,7.548-.008,11.322,0,4.583.012,7.584,3,7.62,7.6.024,3.037,0,6.074,0,9.3,1.926,0,3.727,0,5.528,0,1.5,0,3-.023,4.5.013a8.359,8.359,0,0,1,7.667,5.576c.182.505.347,1.016.52,1.524ZM54.036,109.875c-.03.446-.07.759-.07,1.072,0,6.267-.016,12.534,0,18.8.01,3.063,1.752,4.763,4.859,4.768q11.24.018,22.48,0c3.247,0,4.934-1.707,4.938-4.969q.012-8.379,0-16.758c0-.945,0-1.89,0-2.916Zm49.352-.025c-.024.531-.058.933-.059,1.336q0,9.2,0,18.393c.008,3.259,1.7,4.935,4.968,4.939q11.172.013,22.345,0c3.261,0,4.969-1.7,4.973-4.938q.013-9.2,0-18.393c0-.432-.052-.864-.082-1.337ZM4.126,86.58H36.379c0-1.62.034-3.156-.008-4.69a4.279,4.279,0,0,0-4.479-4.445c-2.4-.036-4.811-.011-7.217-.011-5.356,0-10.712-.016-16.068.012a4.27,4.27,0,0,0-4.454,3.747c-.139,1.754-.028,3.527-.028,5.388m49.9,19.078H86.248c0-1.6.019-3.1,0-4.6a4.333,4.333,0,0,0-4.558-4.524c-2-.03-4-.008-6-.008-5.729,0-11.458-.014-17.186.01a4.215,4.215,0,0,0-4.44,3.6c-.159,1.8-.033,3.621-.033,5.517m81.569.027c0-1.849.087-3.576-.023-5.29a4.133,4.133,0,0,0-3.952-3.818q-12.118-.084-24.237-.008a4.02,4.02,0,0,0-3.919,3.367c-.191,1.873-.042,3.78-.042,5.749ZM54.022,13.234H86.215c0-1.853.1-3.623-.026-5.377a4.161,4.161,0,0,0-4.032-3.745q-12.053-.072-24.106,0a4.129,4.129,0,0,0-4,3.615c-.142,1.8-.03,3.612-.03,5.507M95.879,56.9a2.01,2.01,0,1,0,.015,4.02,2.01,2.01,0,1,0-.015-4.02" transform="translate(0 0)" fill="#66f"/>
          <path id="Trazado_11" data-name="Trazado 11" d="M175.135,88.638c-2.454,0-4.907.01-7.361,0-1.619-.009-2.53-.745-2.547-2.011-.018-1.287.879-2.046,2.486-2.049q7.429-.014,14.859,0c1.6,0,2.5.768,2.48,2.056-.021,1.263-.935,2-2.555,2-2.454.013-4.907,0-7.361,0" transform="translate(-105.01 -53.747)" fill="#66f"/>
          <path id="Trazado_12" data-name="Trazado 12" d="M47.268,268.381c1.624.208,3.8-.417,3.817,2.049.02,2.537-2.223,1.92-3.826,2.149-.221,1.6.393,3.838-2.146,3.818-2.471-.02-1.834-2.2-2.038-3.776-1.575-.316-3.954.374-3.891-2.228.058-2.41,2.23-1.823,3.873-2.01.251-1.564-.446-3.936,2.149-3.885,2.378.047,1.866,2.216,2.062,3.882" transform="translate(-24.903 -168.102)" fill="#66f"/>
          <path id="Trazado_13" data-name="Trazado 13" d="M175.182,67.415c-2.5,0-5,.019-7.493-.006-1.624-.016-2.488-.78-2.451-2.08.035-1.242.868-1.93,2.444-1.935q7.493-.02,14.986,0c1.55.005,2.382.737,2.383,2s-.83,2-2.377,2.015c-2.5.029-5,.008-7.493.008" transform="translate(-105.017 -40.283)" fill="#66f"/>
          <path id="Trazado_14" data-name="Trazado 14" d="M169.2,315.614c0-1.725-.026-3.45.006-5.174a5.044,5.044,0,0,1,5.073-5.125q3.13-.068,6.263,0a5.016,5.016,0,0,1,5.011,5.043q.073,5.309,0,10.62a5.063,5.063,0,0,1-5.137,5.077c-2.042.034-4.085.038-6.127,0a5.083,5.083,0,0,1-5.084-5.132c-.034-1.77-.006-3.54-.006-5.31m4.072,0c0,1.635.02,3.269-.007,4.9-.018,1.026.417,1.5,1.461,1.485q2.655-.04,5.312,0c1.042.016,1.471-.456,1.464-1.483q-.032-4.835,0-9.671c.007-1.032-.42-1.5-1.463-1.478q-2.655.044-5.312,0c-1.042-.018-1.484.442-1.464,1.476.031,1.589.008,3.178.008,4.767" transform="translate(-107.532 -194.022)" fill="#66f"/>
          <path id="Trazado_15" data-name="Trazado 15" d="M305.1,311.375c2.543,0,5.087-.016,7.631,0a5.088,5.088,0,0,1,5.32,5.312c.021,1.953.03,3.907,0,5.86a5.086,5.086,0,0,1-5.191,5.179q-7.9.062-15.808,0a5.054,5.054,0,0,1-5.225-5.262q-.044-2.929,0-5.86a5.028,5.028,0,0,1,5.236-5.231c2.68-.022,5.36,0,8.04,0m-.181,4.068c-2.5,0-5,.028-7.5-.013-1.109-.018-1.573.44-1.553,1.538.032,1.727.024,3.455,0,5.182-.012,1,.364,1.529,1.433,1.526q7.637-.023,15.274,0c.962,0,1.419-.433,1.41-1.4-.016-1.727-.048-3.456.012-5.182.043-1.259-.5-1.686-1.714-1.66-2.453.052-4.909.015-7.363.016" transform="translate(-185.457 -197.891)" fill="#66f"/>
          <path id="Trazado_16" data-name="Trazado 16" d="M81.259,221.471a2.029,2.029,0,0,1-4.056.1,2.029,2.029,0,1,1,4.056-.1" transform="translate(-49.066 -139.493)" fill="#66f"/>
          <path id="Trazado_17" data-name="Trazado 17" d="M217.466,271.892a2.075,2.075,0,0,1,2.036,1.984,2.014,2.014,0,0,1-2.071,2.059,1.973,1.973,0,0,1-1.944-2.027,2.027,2.027,0,0,1,1.979-2.016" transform="translate(-136.953 -172.801)" fill="#66f"/>
          <path id="Trazado_18" data-name="Trazado 18" d="M354.474,273.885a2.029,2.029,0,0,1-4.058.07,2.029,2.029,0,1,1,4.058-.07" transform="translate(-222.708 -172.796)" fill="#66f"/>
          <path id="Trazado_19" data-name="Trazado 19" d="M181.673,22.252c-1.272,0-2.546.028-3.817-.01a2.009,2.009,0,1,1-.034-4.014q3.952-.078,7.906,0a1.952,1.952,0,0,1,2.123,2c.011,1.227-.8,1.988-2.225,2.021-1.317.03-2.635.007-3.953,0" transform="translate(-111.688 -11.56)" fill="#66f"/>
        </g>
      </g>
    </g>
    <g id="Grupo_150" data-name="Grupo 150" transform="translate(-364 -295)">
      <circle id="Elipse_9" data-name="Elipse 9" cx="106.5" cy="106.5" r="106.5" transform="translate(1218 719)" fill="#00ffc2"/>
      <g id="Grupo_142" data-name="Grupo 142" transform="translate(1247.157 747.836)">
        <g id="Grupo_141" data-name="Grupo 141" clip-path="url(#clip-path-5)">
          <path id="Trazado_34" data-name="Trazado 34" d="M133.74,6.158a43.6,43.6,0,0,0-11.726,21.918,45.884,45.884,0,0,0-.947,8.689c-.1,12.525-.045,25.051-.047,37.577v1.05h24.994V73.749q0-18.005,0-36.011a44.156,44.156,0,0,0-1.9-13.574c-.563-1.767.034-3.041,1.535-3.524a2.367,2.367,0,0,1,3.211,2.053,115.737,115.737,0,0,1,2.053,13.085c.354,4.88.114,9.806.076,14.712a3.144,3.144,0,0,0,.972,2.477c2.73,2.725,5.428,5.483,8.046,8.315a3.832,3.832,0,0,1,.954,2.315c.087,4.643.029,9.289.051,13.934.007,1.461-.431,2.615-1.968,2.949-1.47.32-2.349-.542-2.939-1.776a15.427,15.427,0,0,0-1.36-2.8,7.375,7.375,0,0,0-2.333-1.871c-.262-.142-1.33.444-1.334.707-.052,3.378-1.974,5.1-5.181,5.925.854,2.81-.733,4.606-2.674,6.134a5.113,5.113,0,0,0-2.018,5.942,6.5,6.5,0,0,0,.811-.356,12.627,12.627,0,0,1,9.924-1.405,1.438,1.438,0,0,0,1.794-.644,12.309,12.309,0,0,1,14.443-3.9,7.193,7.193,0,0,1,1.522.779,2.484,2.484,0,0,1,.785,3.316,2.437,2.437,0,0,1-3.356,1.041,7.058,7.058,0,0,0-8.676.926c-2.679,2.384-2.96,5.473-1.882,8.763.1.3.237.58.328.878a2.189,2.189,0,0,1-1.249,2.968,2.247,2.247,0,0,1-3.09-.98,10.472,10.472,0,0,1-1.444-6.762c.182-1.24-.241-1.567-1.268-1.743A7.577,7.577,0,0,0,141,102.55a3.5,3.5,0,0,1-.869,2.343,2.464,2.464,0,0,1-4.05-1.993c-.149-3.49-.065-6.99-.065-10.487,0-.564,0-1.129,0-1.78h-5V93.8c0,2.923.01,5.845,0,8.768-.01,1.947-.835,2.952-2.411,3s-2.456-.9-2.591-2.829a7.444,7.444,0,0,0-8.338-7.156c-1.318.146-2,.516-2.033,2.2a23.576,23.576,0,0,1-1.261,6.2,2.4,2.4,0,0,1-3.484,1.265c-1.318-.626-1.346-1.813-.9-2.948a9.659,9.659,0,0,0,.728-6.389,7.357,7.357,0,0,0-10.38-4.564c-1.7.87-3.135.529-3.871-.92-.7-1.381-.06-2.822,1.631-3.671a12.344,12.344,0,0,1,14.968,3.32,1.97,1.97,0,0,0,2.442.823A12.931,12.931,0,0,1,125.9,92.9c.244-2.318.562-4.467-1.679-5.923a6.666,6.666,0,0,1-.78-.765c-1.6-1.478-3.25-2.931-2.451-4.954a48.95,48.95,0,0,1-4.216-3.507,4.329,4.329,0,0,1-.727-2.33c-.184-1.391-.609-1.792-1.859-1.2a4.689,4.689,0,0,0-1.794,1.616,23.336,23.336,0,0,0-1.621,3.2c-.515,1.128-1.3,1.812-2.571,1.486a2.578,2.578,0,0,1-2.179-2.666c0-3.393.263-6.811-.068-10.171-.405-4.106.765-7.23,4.039-9.77,1.838-1.425,3.317-3.31,5.018-4.924a3.106,3.106,0,0,0,1.033-2.448c.05-6.259-.2-12.552.36-18.769,1.1-12.12,6.511-22.281,15.185-30.723,1.421-1.383,2.607-1.449,3.895.073q4.281,5.057,8.256,10.372c1.209,1.621.836,3.1-.562,3.9-1.416.815-2.623.335-3.766-1.317-1.8-2.6-3.674-5.141-5.675-7.928m-7.946,74.429a7.418,7.418,0,0,0,.7,1.858c1.652,2.1,3.547,3.778,6.536,3.095a1.922,1.922,0,0,1,.776,0,5.93,5.93,0,0,0,6.382-2.724,19.145,19.145,0,0,0,1.157-2.228Zm25.3-11.842,4.917.909c0-1.387.02-2.788-.009-4.188-.011-.555.07-1.279-.232-1.632-1.389-1.624-2.9-3.145-4.363-4.7l-.313.289Zm-35.2-.078V59c-1.607,1.655-2.987,3.06-4.341,4.491a1.607,1.607,0,0,0-.5.906c-.047,1.789-.023,3.58-.023,5.322l4.861-1.056" transform="translate(-56.047 0)" fill="#66f"/>
          <path id="Trazado_35" data-name="Trazado 35" d="M147.641,183.755c-.5,2.058.977,5.277-2.556,5.33-3.666.056-2.143-3.279-2.686-5.32H117.658v14.945c2.191,0,4.41-.008,6.628,0,2.088.009,2.838.649,3.266,2.75a2.483,2.483,0,0,0,2.572,2.239,2.379,2.379,0,0,0,2.413-2.37c.252-1.915,1.062-2.6,3.007-2.616,2.277-.018,4.554,0,6.987,0,0-1.643-.016-3.143,0-4.642.026-1.888.932-2.892,2.541-2.865,1.546.026,2.418,1,2.447,2.8.025,1.565.034,3.132,0,4.7a5.138,5.138,0,0,1-5.23,5.276c-1.4.054-2.817-.06-4.214.053a1.974,1.974,0,0,0-1.394.825,7.447,7.447,0,0,1-13.274.073,2.179,2.179,0,0,0-1.5-.894c-1.289-.13-2.6-.02-3.9-.048a5.166,5.166,0,0,1-5.464-5.518c-.025-4.8-.006-9.595-.006-14.436-.512-.157-.962-.275-1.4-.429a4.994,4.994,0,0,1-3.582-4.641,9.863,9.863,0,0,0-4.481-8.469,50.4,50.4,0,0,1-12.09-12.332,3.33,3.33,0,0,1-.721-2.4,3.148,3.148,0,0,1,1.936-1.881,2.97,2.97,0,0,1,2.494.969,53.406,53.406,0,0,0,12.2,12.014,14.227,14.227,0,0,1,5.61,10.587c.034.353.052.707.083,1.133H147.68c.1-.994.124-1.978.31-2.931a14.96,14.96,0,0,1,6.334-9.5c9.245-6.651,15.228-15.553,17.287-26.768,3.23-17.59-2.709-31.757-16.7-42.668-.41-.32-.859-.59-1.275-.9a2.54,2.54,0,0,1-.788-3.666,2.4,2.4,0,0,1,3.692-.441,66.2,66.2,0,0,1,6.068,4.908,47.452,47.452,0,0,1-4.483,72.882c-3.133,2.322-5.291,5.005-5.41,9.149-.083,2.854-1.914,4.469-5.077,5.1" transform="translate(-52.563 -53.052)" fill="#66f"/>
          <path id="Trazado_36" data-name="Trazado 36" d="M71.873,129.284c.926-16,7.811-28.713,20.833-38.049,1.436-1.029,2.881-.9,3.744.247.972,1.293.678,2.817-.853,3.885a42.091,42.091,0,0,0-17.913,27.2,58.345,58.345,0,0,0-.793,7.448c-.152,2.264-.934,3.33-2.662,3.251-1.652-.075-2.388-1.123-2.356-3.353,0-.208,0-.417,0-.626" transform="translate(-41.877 -52.752)" fill="#66f"/>
          <path id="Trazado_37" data-name="Trazado 37" d="M175.176,48.877a7.514,7.514,0,0,1,.394,15.016c-1.913.059-3.1-1.083-2.871-2.816a2.389,2.389,0,0,1,2.42-2.193c1.752-.19,2.566-1.055,2.54-2.547a2.371,2.371,0,0,0-2.328-2.441c-1.541-.089-2.409.753-2.666,2.584a2.416,2.416,0,0,1-2.686,2.4c-1.471-.1-2.316-1.124-2.3-2.782a7.383,7.383,0,0,1,7.5-7.22" transform="translate(-97.7 -28.479)" fill="#66f"/>
          <path id="Trazado_38" data-name="Trazado 38" d="M179.631,130.771c0-2.343-.018-4.686.006-7.029.019-1.8.883-2.779,2.421-2.816,1.605-.039,2.555.971,2.563,2.832q.03,7.185,0,14.371c-.008,1.8-.891,2.78-2.423,2.818-1.6.04-2.543-.973-2.561-2.835-.024-2.447-.006-4.895-.006-7.342" transform="translate(-104.659 -70.458)" fill="#66f"/>
          <path id="Trazado_39" data-name="Trazado 39" d="M10.1,180.926c2.286,0,4.572-.01,6.857,0,2.011.012,3.039.889,3.017,2.537-.02,1.593-1.02,2.459-2.933,2.465q-7.091.023-14.182,0C.983,185.922-.02,185,0,183.394s1.015-2.449,2.931-2.463c2.389-.017,4.779,0,7.169,0" transform="translate(0 -105.415)" fill="#66f"/>
          <path id="Trazado_40" data-name="Trazado 40" d="M333.428,180.924c2.39,0,4.779-.021,7.169.007,1.778.02,2.754.92,2.769,2.468s-.964,2.514-2.714,2.524q-7.247.039-14.493,0c-1.777-.008-2.752-.922-2.767-2.47s.96-2.5,2.712-2.522c2.441-.032,4.883-.008,7.324-.008" transform="translate(-188.427 -105.412)" fill="#66f"/>
          <path id="Trazado_41" data-name="Trazado 41" d="M283.7,282.146a13.349,13.349,0,0,1,2.19,1.379q5,4.913,9.925,9.914c1.319,1.335,1.394,2.781.289,3.839a2.623,2.623,0,0,1-3.757-.306c-3.36-3.326-6.69-6.683-10.024-10.036-.783-.788-1.326-1.769-.693-2.794a11.641,11.641,0,0,1,2.069-2" transform="translate(-163.934 -164.395)" fill="#66f"/>
          <path id="Trazado_42" data-name="Trazado 42" d="M55.06,53A11.85,11.85,0,0,1,57.1,54.261Q62.16,59.239,67.135,64.3c1.258,1.278,1.311,2.614.271,3.725a2.515,2.515,0,0,1-3.741-.208c-3.441-3.4-6.838-6.835-10.239-10.271a2.16,2.16,0,0,1-.454-2.843A9.479,9.479,0,0,1,55.06,53" transform="translate(-30.657 -30.879)" fill="#66f"/>
          <path id="Trazado_43" data-name="Trazado 43" d="M55.4,298.746c-.75-.609-1.821-1.052-2-1.733a3.515,3.515,0,0,1,.543-2.787c1.678-1.974,3.608-3.731,5.443-5.572,1.54-1.545,3.068-3.1,4.63-4.629,1.293-1.262,2.616-1.358,3.707-.333,1.14,1.073,1.107,2.5-.2,3.83q-4.923,5-9.923,9.916a11.8,11.8,0,0,1-2.2,1.306" transform="translate(-31.061 -164.889)" fill="#66f"/>
          <path id="Trazado_44" data-name="Trazado 44" d="M297.378,55.977a12.137,12.137,0,0,1-1.315,2.162q-4.905,5.021-9.9,9.951c-1.341,1.328-2.785,1.483-3.7.5a2.694,2.694,0,0,1,.216-4.021c3.291-3.327,6.608-6.628,9.911-9.944.844-.847,1.874-1.335,2.937-.694a9.757,9.757,0,0,1,1.852,2.047" transform="translate(-164.113 -31.252)" fill="#66f"/>
          <path id="Trazado_45" data-name="Trazado 45" d="M175.113,329.99c-1.609,0-3.219.033-4.828-.009a2.493,2.493,0,1,1-.038-4.982q4.905-.062,9.811,0a2.493,2.493,0,1,1,.038,4.982c-1.66.046-3.322.01-4.983.01" transform="translate(-97.703 -189.346)" fill="#66f"/>
          <path id="Trazado_46" data-name="Trazado 46" d="M77.4,214.563c-.349-.325-1.266-.81-1.583-1.552a34.594,34.594,0,0,1-1.572-5.065A2.681,2.681,0,0,1,76.1,204.9a2.457,2.457,0,0,1,3.1,1.843c.429,1.5.877,3,1.255,4.513.433,1.735-.83,3.36-3.058,3.3" transform="translate(-43.222 -119.333)" fill="#66f"/>
        </g>
      </g>
    </g>
  </g>
</svg>
