<svg width="57" height="73" viewBox="0 0 57 73" fill="none" xmlns="http://www.w3.org/2000/svg">
<g clip-path="url(#clip0_602_914)">
<path d="M9.8248 73C9.28595 72.6331 9.1203 72.1236 9.1241 71.4773C9.14695 68.3653 9.14505 65.2533 9.11839 62.1413C9.11458 61.7953 8.98511 61.3884 8.77566 61.1185C6.39939 58.0559 4.98277 54.6207 4.6686 50.7483C4.63242 50.3073 4.50104 50.121 4.02503 50.0126C2.02576 49.5583 0.687205 48.3112 0.178821 46.3265C-0.3467 44.2772 0.304489 42.5491 1.86963 41.1309C2.0905 40.9313 2.25615 40.553 2.26567 40.2508C2.33612 37.9486 2.17999 35.6255 2.43704 33.3462C3.21961 26.3884 6.83923 21.305 13.0141 18.0352C13.6767 17.6835 14.3222 17.8755 14.5964 18.4439C14.8763 19.0218 14.6535 19.5864 13.9414 19.9552C10.1713 21.9076 7.42759 24.8181 5.75772 28.7247C4.88947 30.757 4.46296 32.8899 4.43059 35.097C4.40584 36.7091 4.42678 38.3212 4.42678 39.9865C4.67241 39.9998 4.87614 40.0093 5.07988 40.0207C5.68727 40.0568 6.05476 40.3705 6.1233 40.9789C6.18995 41.5644 5.82817 41.9921 5.19222 42.1195C5.07607 42.1423 4.95611 42.1499 4.83996 42.1632C3.23484 42.3552 2.11144 43.589 2.14381 45.125C2.17618 46.6573 3.3548 47.8682 4.9485 48.0013C5.06655 48.0108 5.1865 48.0089 5.30456 48.0108C6.38797 48.0374 6.67738 48.3302 6.71547 49.4138C6.8716 53.9516 8.43674 57.9342 11.6832 61.1147C16.6832 66.0137 22.6734 67.5687 29.311 65.3711C35.821 63.2153 39.6691 58.5065 40.9124 51.7311C41.0571 50.9403 41.0895 50.1267 41.1409 49.3225C41.2056 48.334 41.4989 48.0336 42.5023 48.0089C44.2255 47.9671 45.3489 47.104 45.6516 45.5946C45.9734 43.9863 44.8405 42.4046 43.2087 42.1822C42.9974 42.1537 42.7822 42.1442 42.5747 42.0948C41.9749 41.9541 41.6874 41.5568 41.7464 40.9522C41.8016 40.3724 42.1634 40.0683 42.7346 40.0226C42.9402 40.0055 43.1497 40.0207 43.4391 40.0207C43.4391 38.7109 43.4391 37.4581 43.4391 36.2053C43.4391 35.9202 43.4277 35.635 43.4467 35.3499C43.4905 34.7073 43.8847 34.3119 44.4768 34.3024C45.0518 34.2929 45.5164 34.6826 45.5545 35.3099C45.6021 36.0913 45.5736 36.8764 45.5774 37.6615C45.5774 38.017 45.5945 38.3744 45.5736 38.7299C45.5069 39.92 45.6992 40.8667 46.617 41.878C49.1818 44.703 47.5728 49.2066 43.8428 50.0088C43.3839 50.1077 43.222 50.2616 43.184 50.7255C42.8755 54.5713 41.4779 57.9913 39.1321 61.0443C38.896 61.3523 38.7399 61.8048 38.7361 62.1945C38.7037 65.259 38.7075 68.3234 38.7266 71.3879C38.7304 72.0438 38.6161 72.6027 38.0468 72.9943H37.3347C36.7616 72.7015 36.5654 72.2358 36.5712 71.597C36.5959 69.2473 36.5807 66.8958 36.5788 64.5442C36.5788 64.3198 36.5559 64.0974 36.5445 63.8826C28.0962 70.0002 19.7088 69.9888 11.2757 63.8541C11.2757 66.4395 11.2605 68.9774 11.2852 71.5134C11.2909 72.1673 11.1367 72.6768 10.5388 72.9943H9.8267L9.8248 73Z" fill="#6666FF"/>
<path d="M34.1969 0C34.8328 0.174896 35.4783 0.321276 36.1009 0.532292C37.6432 1.05698 38.9399 1.95997 39.9624 3.22417C40.2404 3.56635 40.4803 3.6538 40.9125 3.57396C43.3059 3.12911 45.3566 3.81349 47.0931 5.51682C47.2778 5.69742 47.6281 5.8343 47.8795 5.80578C52.5044 5.27349 56.2668 8.15167 56.9314 12.7579C57.5464 17.0162 54.0258 21.3069 49.715 21.5274C48.7668 21.5768 47.8166 21.5635 46.8665 21.5502C46.1639 21.5407 45.7507 21.1529 45.7298 20.5408C45.7069 19.902 46.1277 19.4572 46.8513 19.4267C47.6338 19.3944 48.4183 19.4401 49.2009 19.4058C51.5771 19.3051 53.3213 18.174 54.3076 16.022C55.2977 13.8605 55.0026 11.7732 53.4907 9.95576C51.977 8.14026 49.9854 7.4882 47.6738 8.05091C46.897 8.24102 46.381 8.10224 45.8973 7.44638C44.6578 5.76966 42.6585 5.17464 40.703 5.83049C39.652 6.18219 39.4102 6.10424 38.8009 5.21076C37.1044 2.72419 34.1854 1.61589 31.3236 2.3725C28.4276 3.13862 26.4131 5.56815 26.1731 8.5718C26.1446 8.92539 26.1598 9.3094 26.0227 9.62117C25.7657 10.2048 25.2516 10.3036 24.6461 10.2086C22.4298 9.8607 20.3143 11.1192 19.5603 13.2065C18.8082 15.292 19.6251 17.6759 21.5729 18.7481C22.2336 19.1112 23.0353 19.307 23.7931 19.383C24.8746 19.4895 25.9751 19.4077 27.0681 19.4172C27.9116 19.4248 28.3914 19.8127 28.4047 20.4704C28.4199 21.17 27.9515 21.5578 27.0471 21.5502C25.6476 21.5388 24.2253 21.6529 22.8525 21.4495C19.4499 20.9419 16.986 17.8926 17.1498 14.5905C17.325 11.0413 19.9202 8.32846 23.4408 8.01289C23.6274 7.99578 23.814 7.99008 24.052 7.97487C24.3224 6.24492 24.9412 4.67656 26.0627 3.33253C27.5193 1.58737 29.3586 0.507578 31.6054 0.12737C31.714 0.108359 31.8149 0.043724 31.9215 0C32.6812 0 33.441 0 34.2026 0L34.1969 0Z" fill="#FFC01F"/>
<path d="M31.9749 27.4225C32.9765 27.4225 33.898 27.4225 34.8177 27.4225C36.2038 27.4263 36.5599 27.8465 36.3105 29.219C35.8554 31.7379 35.3889 34.253 35.0348 36.8308C37.7975 33.3139 40.5603 29.7969 43.4412 26.1279C42.3159 26.1279 41.3562 26.1298 40.3985 26.1279C38.9571 26.1241 38.5649 25.5253 39.1361 24.1927C40.1814 21.7498 41.2249 19.3089 42.2778 16.8699C42.5939 16.1361 43.0623 15.8718 43.6449 16.0581C44.3247 16.2748 44.5741 16.9041 44.2485 17.6778C43.4831 19.4914 42.6986 21.2955 41.9236 23.1053C41.8132 23.3619 41.718 23.6243 41.5752 23.9893C42.6186 23.9893 43.5821 23.9893 44.5455 23.9893C44.8312 23.9893 45.1415 23.917 45.3948 24.0064C45.8137 24.1546 46.383 24.3162 46.5391 24.6394C46.6933 24.9588 46.5448 25.588 46.3011 25.9074C44.4332 28.3655 42.5101 30.7798 40.6022 33.2074C38.4754 35.9145 36.3486 38.6235 34.2217 41.3306C34.1475 41.4237 34.0732 41.5169 34.0008 41.61C33.641 42.0815 33.1745 42.2659 32.6223 42.0244C32.0892 41.7906 31.9464 41.323 32.0435 40.7774C32.3557 39.0246 32.6718 37.2737 32.9879 35.5229C33.342 33.5667 33.6962 31.6105 34.0675 29.5574C33.0545 29.5574 32.112 29.5612 31.1714 29.5574C30.0023 29.5498 29.6577 29.2038 29.7662 28.0537C30.107 24.4607 30.4669 20.8696 30.8211 17.2786C30.8287 17.2082 30.842 17.1379 30.8534 17.0676C30.9829 16.3433 31.4437 15.9326 32.0378 16.0068C32.6528 16.0828 33.0317 16.5809 32.9631 17.2995C32.6947 20.113 32.411 22.9228 32.133 25.7344C32.0816 26.2534 32.0359 26.7743 31.9768 27.4206L31.9749 27.4225Z" fill="#FFC01F"/>
</g>
<defs>
<clipPath id="clip0_602_914">
<rect width="57" height="73" fill="white"/>
</clipPath>
</defs>
</svg>
