<svg width="65" height="89" viewBox="0 0 65 89" fill="none" xmlns="http://www.w3.org/2000/svg">
<g clip-path="url(#clip0_602_920)">
<path d="M50.1164 1.0405C51.7087 1.7348 52.8982 2.66308 53.6867 3.82912C54.4752 4.99517 54.8704 6.28486 54.8704 7.702C54.8704 8.97076 54.6478 10.0474 54.2008 10.9338C53.7538 11.8184 53.2186 12.5431 52.5931 13.1023C51.9677 13.6635 51.1485 14.2836 50.1375 14.9608C49.0056 15.7578 48.1806 16.4426 47.6607 17.019C47.1389 17.5934 46.8799 18.3106 46.8799 19.1646V19.7391H39.0237V18.8983C39.0237 17.4241 39.2463 16.1839 39.6933 15.1814C40.1403 14.179 40.6602 13.3896 41.2549 12.8132C41.8497 12.2387 42.594 11.6548 43.4861 11.0651C44.2593 10.5629 44.8099 10.1425 45.1379 9.80392C45.466 9.46533 45.6291 9.04495 45.6291 8.54277C45.6291 7.98352 45.4353 7.55553 45.0497 7.25878C44.6621 6.96394 44.0962 6.81557 43.3537 6.81557C41.7768 6.81557 40.2285 7.61259 38.711 9.20473L33.2203 4.95522C36.0482 1.65301 39.7528 0 44.336 0C46.5979 0 48.524 0.348102 50.1164 1.0405ZM46.2545 24.8085C47.1466 25.7082 47.5936 26.7772 47.5936 28.0175C47.5936 29.2577 47.1466 30.3267 46.2545 31.2265C45.3624 32.1262 44.2746 32.577 42.995 32.577C41.7154 32.577 40.6295 32.1262 39.7355 31.2265C38.8434 30.3267 38.3964 29.2577 38.3964 28.0175C38.3964 26.7772 38.8434 25.7082 39.7355 24.8085C40.6276 23.9087 41.7134 23.4579 42.995 23.4579C44.2765 23.4579 45.3605 23.9087 46.2545 24.8085Z" fill="#FFC01F"/>
<path d="M64.9904 85.5741C64.8791 84.1285 63.7798 82.9529 62.2815 82.738C61.7827 82.6657 61.2666 82.6999 60.7563 82.6961C59.9448 82.6904 59.1333 82.6961 58.2201 82.6961C58.362 82.504 58.4196 82.4203 58.4848 82.3404C60.3688 80.0216 60.7813 77.4537 59.847 74.6384C58.8474 71.6272 57.8191 68.6237 56.9002 65.5878C55.9045 62.3008 53.8095 60.2616 50.4042 59.5654C50.0761 59.4988 49.6483 59.4608 49.4641 59.2439C48.7198 58.3727 47.7912 57.8591 46.6632 57.6689C46.6632 57.3455 46.6632 57.0945 46.6632 56.8434C46.6612 55.7705 46.6728 54.6977 46.6497 53.6248C46.6382 53.0808 46.3102 52.7651 45.7672 52.7365C45.2224 52.708 44.8867 53.0047 44.7888 53.5316C44.7447 53.777 44.7581 54.0338 44.7562 54.2868C44.7543 55.3958 44.7562 56.5048 44.7562 57.6252C43.1025 57.8877 41.6156 57.4464 40.1787 56.908C39.818 56.773 39.4976 56.2118 39.396 55.7914C39.1504 54.7738 39.018 53.7238 38.9067 52.6795C38.8799 52.4322 39.0487 52.0784 39.2463 51.9072C40.6871 50.6498 41.8516 49.2003 42.5519 47.418C42.7955 46.7979 42.9643 46.1492 43.1754 45.4968C43.6799 45.4701 44.1806 45.4454 44.7581 45.415C44.7581 45.6432 44.7581 45.8696 44.7581 46.096C44.7581 47.106 44.7428 48.1161 44.7658 49.1242C44.7811 49.7824 45.1533 50.1552 45.7212 50.1552C46.2987 50.1552 46.6593 49.79 46.6593 49.1204C46.6612 44.7454 46.7399 40.3684 46.6229 35.9972C46.6152 35.7214 46.5979 35.4475 46.5692 35.1735C46.5058 34.5705 45.8747 34.1901 45.3068 34.4146L45.2895 34.4222C44.8943 34.5781 44.6488 34.9738 44.7044 35.3904C44.8022 36.1379 44.8195 36.9026 44.7466 37.6768C44.7428 37.7168 44.7159 37.7529 44.7006 37.791L44.6449 37.985C41.4564 37.8689 38.2257 38.023 35.0871 37.5665C31.0448 36.9806 28.0961 33.0906 28.1076 29.0313C28.1134 27.4126 29.2261 26.256 30.8511 26.2865C32.2976 26.3131 33.7671 26.256 35.2002 26.3854C35.6261 26.4234 36.0175 26.1628 36.1557 25.7634C36.1614 25.7501 36.1652 25.7348 36.171 25.7215C36.3705 25.1623 35.9791 24.5612 35.3825 24.5079C33.7844 24.3672 32.1518 24.409 30.5441 24.4128C29.4985 24.4147 28.4242 24.584 27.4131 24.8598C21.9301 26.3588 18.3522 31.1257 18.3368 36.9121C18.3215 43.5584 18.3368 50.2047 18.3368 56.851C18.3368 57.1192 18.3368 57.3874 18.3368 57.4787C17.5272 57.9067 16.7234 58.1445 16.1939 58.6581C15.5512 59.2801 14.8279 59.5159 14.0222 59.7157C11.344 60.3795 9.19142 62.3426 8.33194 64.9448C7.24608 68.2356 6.17941 71.5321 5.10314 74.8267C4.21872 77.5355 4.6734 80.0064 6.43649 82.2453C6.53241 82.367 6.61299 82.5021 6.74344 82.6923C6.08349 82.6923 5.51178 82.6923 4.94199 82.6923C4.34726 82.6923 3.75445 82.6809 3.15972 82.6961C1.57506 82.7361 0.24747 83.8546 0.0345193 85.3212C-0.201454 86.938 0.671454 88.3399 2.23502 88.8611C2.35396 88.9011 2.46907 88.9524 2.58418 88.9981H62.4139C62.5309 88.9524 62.6441 88.9011 62.763 88.8611C64.2345 88.3761 65.1074 87.0883 64.9904 85.5722V85.5741ZM43.3308 39.8111C44.4742 39.6779 44.7581 39.9214 44.762 41.0019C44.762 41.4432 44.762 41.8845 44.762 42.3239C44.7581 43.4062 44.4934 43.6364 43.3308 43.5337V39.8111ZM50.2776 61.4923C52.3304 61.9451 53.9323 63.0008 54.6249 64.9772C55.9122 68.6427 57.1035 72.3425 58.2469 76.0555C58.7419 77.6667 58.362 79.2303 57.3971 80.6151C56.9405 81.2695 56.3956 81.8649 55.868 82.4679C55.7606 82.5896 55.5534 82.6714 55.3865 82.6828C54.9452 82.7132 54.5001 82.6923 53.9975 82.6923C54.08 82.1958 54.1702 81.785 54.2124 81.3703C54.339 80.111 53.4968 79.1561 52.221 79.1181C51.5898 79.0991 50.9586 79.1143 50.2795 79.1143V61.4923H50.2776ZM52.3303 81.0469C52.2785 81.3589 52.2498 81.6252 52.1865 81.8839C52.0445 82.4507 51.7586 82.7132 51.0795 82.7113C38.8032 82.6847 26.5268 82.6923 14.2485 82.6923C13.0034 82.6923 12.7233 82.3956 12.7387 81.0469H52.3303ZM28.2918 35.6833C29.4813 36.604 30.5652 37.5817 31.7834 38.3502C33.4065 39.3736 35.2616 39.7483 37.182 39.754C38.5557 39.7597 39.9293 39.754 41.3835 39.754C41.2895 42.535 41.7998 45.3237 40.242 47.846C38.7744 50.2218 36.6545 51.774 34.0319 52.6928C33.1283 53.0085 32.2055 53.0865 31.2904 52.7727C27.9599 51.6313 25.3067 49.7215 24.0807 46.2938C23.816 45.5538 23.6894 44.7397 23.6568 43.9522C23.5858 42.2516 23.6088 40.5491 23.6126 38.8467C23.6126 38.1828 23.8908 37.8632 24.5604 37.8271C26.2409 37.7377 27.4899 36.9654 28.2899 35.6814L28.2918 35.6833ZM37.8804 57.648H27.1177C27.4074 56.2689 27.7009 54.8746 28.0117 53.4004C30.9853 55.276 33.9878 55.3121 36.9959 53.3909C37.3029 54.8727 37.5907 56.2556 37.8784 57.648H37.8804ZM20.2802 45.4169C20.8155 45.4435 21.3143 45.4663 21.8496 45.493C21.98 45.9571 22.0874 46.4231 22.2428 46.8739C22.9201 48.8541 24.1057 50.4957 25.7191 51.8292C26.074 52.1221 26.1872 52.4017 26.1009 52.8507C25.9186 53.7998 25.7863 54.7567 25.6501 55.7135C25.5465 56.4382 25.157 56.8966 24.4414 57.0868C23.0966 57.4445 21.7632 57.882 20.2822 57.6195V45.4169H20.2802ZM20.2438 42.3714C20.2399 41.9092 20.2419 41.447 20.2438 40.9867C20.2495 39.9157 20.5565 39.6589 21.6788 39.8244V43.4995C20.5834 43.6897 20.2515 43.4253 20.2438 42.3734V42.3714ZM26.4999 27.2033C25.9493 29.0656 26.2371 30.808 26.8184 32.5219C27.3767 34.1673 26.429 35.7404 24.6774 35.8983C23.44 36.0105 22.4826 36.448 21.9282 37.6045C21.8668 37.732 21.6481 37.8404 21.4927 37.8556C21.1167 37.8918 20.7349 37.867 20.3359 37.867C19.2519 34.3689 22.4424 28.7593 26.4999 27.2014V27.2033ZM6.61874 77.8455C6.59764 77.0827 6.67246 76.28 6.89692 75.5534C7.93866 72.2036 9.0437 68.8748 10.1372 65.5421C10.8624 63.3337 12.3991 62.0173 14.7742 61.479C14.7742 62.025 14.7742 62.5176 14.7742 63.0103C14.7742 64.3133 14.7723 65.6182 14.7742 66.9212C14.7761 67.7296 15.1023 68.1614 15.7027 68.171C16.3262 68.1805 16.6773 67.7296 16.6812 66.8908C16.685 65.2302 16.6792 63.5676 16.685 61.907C16.6908 60.3548 17.4677 59.5749 19.0275 59.573C28.0194 59.5692 37.0113 59.5692 46.0032 59.573C47.4728 59.573 48.3131 60.351 48.3169 61.7415C48.3284 67.3777 48.3207 73.012 48.3207 78.6482C48.3207 78.7719 48.2977 78.8955 48.2824 79.0667H16.6812C16.6812 78.8118 16.6812 78.5855 16.6812 78.361C16.6812 76.3219 16.6812 74.2808 16.6812 72.2416C16.6812 72.0743 16.6888 71.905 16.6773 71.7376C16.6313 71.1003 16.2476 70.7009 15.6989 70.7104C15.156 70.7218 14.7819 71.1289 14.778 71.7737C14.7684 73.9612 14.7742 76.1469 14.7723 78.3344C14.7723 78.5626 14.7723 78.789 14.7723 79.1143C14.097 79.1143 13.5272 79.1086 12.9574 79.1143C11.4476 79.1314 10.6149 80.0863 10.8145 81.5738C10.8624 81.9257 10.9353 82.2738 11.0101 82.6923C10.4979 82.6923 10.0164 82.6999 9.53483 82.6866C9.42164 82.6828 9.27392 82.6334 9.20101 82.5535C7.9847 81.1763 6.6667 79.8295 6.61299 77.8474L6.61874 77.8455ZM61.9458 87.0959C61.7367 87.1187 61.5218 87.1073 61.3107 87.1073C51.7241 87.1073 42.1375 87.1073 32.5527 87.1073C22.968 87.1073 13.3373 87.1073 3.73143 87.1073C3.51848 87.1073 3.30553 87.1187 3.09641 87.0997C2.42303 87.0407 1.94724 86.5576 1.91655 85.9146C1.88393 85.2432 2.33861 84.6972 3.02927 84.604C3.23838 84.5755 3.45325 84.5869 3.66428 84.5869C22.9009 84.5869 42.1356 84.5869 61.3721 84.5869C61.5832 84.5869 61.8 84.5736 62.0072 84.6059C62.669 84.7067 63.1084 85.2298 63.093 85.8766C63.0796 86.5214 62.6134 87.0236 61.9477 87.094L61.9458 87.0959Z" fill="#6666FF"/>
</g>
<defs>
<clipPath id="clip0_602_920">
<rect width="65" height="89" fill="white"/>
</clipPath>
</defs>
</svg>
