<svg width="70" height="74" viewBox="0 0 70 74" fill="none" xmlns="http://www.w3.org/2000/svg">
<g clip-path="url(#clip0_602_937)" filter="url(#filter0_d_602_937)">
<path d="M65.3865 16.5245C65.0232 15.9442 64.6153 15.388 64.1817 14.8593C63.6315 14.1877 63.3402 13.4266 63.2477 12.5725C63.2031 12.1678 63.15 11.7631 63.0934 11.3585C62.7952 9.24726 61.8561 8.02635 59.8972 7.80765C57.8406 7.57862 56.1234 6.84504 54.5039 5.5673C54.0823 5.23495 53.9195 5.01797 53.6813 4.81822C52.3976 3.73334 51.2459 4.89398 51.1106 4.9887C50.24 5.60174 49.3659 6.21822 48.449 6.75549C47.9092 7.07235 47.2974 7.2876 46.6941 7.46841C46.228 7.60789 45.7241 7.6165 45.2408 7.69744C42.8021 8.09867 41.8132 9.08711 41.5579 11.572C41.3985 13.1184 40.9512 14.4908 39.8818 15.648C39.5527 16.0045 39.3025 16.447 39.0729 16.8793C38.5262 17.9125 38.5279 19.1609 39.1037 20.1769C39.4756 20.833 39.9178 21.4599 40.3942 22.0436C41.0163 22.8065 41.3402 23.6589 41.4259 24.6267C41.4602 25.0107 41.515 25.3947 41.575 25.7752C41.9143 27.9226 42.9152 28.93 45.0643 29.2847C45.6693 29.3846 46.2777 29.4707 46.9357 29.5723C46.9357 29.8685 46.9357 30.1216 46.9357 30.3748C46.9357 34.8641 46.9426 39.3534 46.9289 43.8427C46.9272 44.5642 47.078 45.1704 47.7738 45.5027C48.4679 45.8334 49.0471 45.5854 49.5973 45.1273C50.132 44.6831 50.6924 44.2715 51.3573 43.7566L51.4567 43.6688C51.9829 43.2038 52.7764 43.2314 53.2699 43.7291L53.2819 43.7411C53.9572 44.2663 54.5193 44.6831 55.0557 45.1308C55.6058 45.5888 56.1868 45.8368 56.8792 45.5027C57.5716 45.1687 57.7292 44.5608 57.7258 43.841C57.7121 40.4899 57.7207 37.1389 57.719 33.7878C57.719 33.6156 57.7361 33.44 57.7052 33.2729C57.6161 32.7667 57.3128 32.4584 56.7935 32.4429C56.2434 32.4257 55.916 32.7339 55.8115 33.2643C55.7755 33.4503 55.7944 33.6501 55.7944 33.8429C55.7944 36.7221 55.7944 39.5996 55.7944 42.4789V43.2469C54.9597 42.5925 54.2537 42.038 53.5441 41.4853C52.5896 40.7414 52.0531 40.7448 51.0917 41.4973C50.3788 42.0553 49.6641 42.6115 48.8895 43.2142V30.6055C49.3608 30.943 49.7618 31.253 50.1817 31.5302C51.5956 32.4653 53.0249 32.4911 54.4387 31.5423C55.0249 31.1497 55.5407 30.6451 56.1491 30.2973C56.7301 29.9666 57.3779 29.7359 58.0172 29.5327C58.4387 29.4001 58.9032 29.4053 59.3453 29.3295C61.8818 28.8956 62.8278 27.9381 63.102 25.374C63.2597 23.9017 63.6521 22.5671 64.6924 21.4685C64.9683 21.1757 65.1825 20.8193 65.3933 20.4714C66.1937 19.1558 66.1954 17.8264 65.3813 16.5228L65.3865 16.5245ZM63.2648 20.1477C61.9863 21.651 61.3385 23.3369 61.174 25.2862C61.0454 26.805 60.6718 27.1253 59.1671 27.4043C58.8106 27.4697 58.4507 27.5283 58.0891 27.5558C56.7387 27.6574 55.5801 28.1964 54.5501 29.0591C54.1731 29.3743 53.7772 29.6739 53.3608 29.9322C53.0609 30.1182 52.7112 30.2267 52.3359 30.3903C51.9726 30.2336 51.5561 30.163 51.2905 29.9253C49.4859 28.3049 47.3916 27.4473 44.9752 27.2941C44.2005 27.2459 43.7104 26.7189 43.5767 25.9182C43.5064 25.4946 43.395 25.0744 43.3659 24.649C43.2597 23.1182 42.6924 21.806 41.7275 20.6109C40.1611 18.6719 40.1423 18.3275 41.7327 16.404C42.8449 15.0591 43.2459 13.523 43.4533 11.8527C43.6727 10.079 44.036 9.77248 45.7944 9.55378C46.2605 9.49523 46.7267 9.43668 47.1911 9.3678C48.3771 9.19388 49.3316 8.5619 50.2468 7.83348C52.156 6.31465 52.5107 6.2871 54.3908 7.84037C55.6315 8.86669 57.0163 9.4143 58.5947 9.53139C58.701 9.54 58.8089 9.54517 58.9135 9.56067C60.6307 9.79659 61.0197 10.1134 61.1843 11.8527C61.3642 13.759 62.0223 15.3949 63.2631 16.862C64.3908 18.1949 64.3959 18.8131 63.2614 20.1459L63.2648 20.1477Z" fill="#FFC01F"/>
<path d="M48.8808 1.94557C50.2193 2.03856 51.3058 3.14237 51.335 4.46316C51.3384 4.64053 51.2458 4.89367 51.1122 4.98838C51.2458 4.89367 52.3924 3.74164 53.6709 4.80757C53.4018 4.48727 53.2133 4.11359 53.1156 3.57116C52.7214 1.36524 50.8345 0.00656747 48.5003 0.00484544C38.4095 0.0014014 28.3187 0.00312342 18.2278 0.00312342C15.0419 0.00312342 11.8577 -0.00893075 8.67172 0.00656747C6.17815 0.0203437 4.25012 1.77509 4.05989 4.27374C3.96221 5.57731 4.01019 6.89294 4.02048 8.20168C4.02733 8.91804 4.40951 9.31066 5.00762 9.29689C5.60231 9.28311 5.92622 8.8991 5.93479 8.15174C5.94678 7.12025 5.93479 6.08875 5.93821 5.05898C5.94336 2.96845 6.96992 1.93868 9.05218 1.93868C22.1147 1.93868 35.1773 1.93868 48.2381 1.93868C48.4524 1.93868 48.6666 1.93179 48.8791 1.94557H48.8808Z" fill="#6666FF"/>
<path d="M53.2836 44.6331V43.7411L53.2716 43.7291C52.778 43.2314 51.9828 43.2038 51.4584 43.6688L51.359 43.7566V44.5281C51.359 50.0058 51.3607 55.4836 51.359 60.9614C51.359 63.0553 50.3376 64.0662 48.2382 64.0662C35.1756 64.0662 22.113 64.0662 9.05221 64.0662C8.83799 64.0662 8.62376 64.0731 8.41125 64.0558C7.19274 63.9628 6.19188 63.0502 6.00508 61.8396C5.95024 61.4814 5.94338 61.1129 5.94338 60.7495C5.93996 44.9396 5.94167 29.1297 5.93996 13.3198C5.93996 13.0615 5.9451 12.8032 5.92453 12.5467C5.87997 11.987 5.54064 11.6701 5.01279 11.6512C4.47809 11.6323 4.12847 11.9457 4.04621 12.4915C4.0068 12.7447 4.01708 13.0047 4.01708 13.263C4.01708 29.0953 4.01708 44.9259 4.01708 60.7582C4.01708 61.1439 4.02051 61.5348 4.07192 61.9154C4.33413 63.8423 5.40354 65.1183 7.21845 65.771C7.45838 65.8571 7.70345 65.9259 7.94681 66.0017H49.383C52.2759 65.2871 53.3641 63.2 53.3127 60.4224C53.2167 55.1616 53.2853 49.8974 53.2853 44.6348L53.2836 44.6331Z" fill="#6666FF"/>
<path d="M28.6119 28.6924C27.138 28.6924 25.6641 28.7027 24.1903 28.6906C21.5939 28.6665 20.1834 26.9531 20.6376 24.3856C20.7387 23.8156 20.8295 23.2439 20.9581 22.6791C21.4019 20.7246 22.5793 19.4141 24.4473 18.7253C25.3951 18.3757 25.3762 18.3774 25.4036 17.358C25.4174 16.8035 25.2374 16.3764 24.9581 15.8891C24.545 15.1693 24.2263 14.3341 24.1166 13.5127C23.976 12.4588 24.0377 11.3688 24.0892 10.2994C24.2057 7.85587 26.2108 5.95648 28.6222 5.95131C30.9992 5.94442 33.054 7.8111 33.1843 10.2116C33.2545 11.4911 33.222 12.7895 33.0763 14.062C33.0009 14.7078 32.6838 15.4069 32.2708 15.9149C31.6761 16.6468 31.9401 17.42 31.9075 18.1828C31.9041 18.2844 32.1594 18.4291 32.3188 18.5014C32.8227 18.7322 33.3642 18.8906 33.8441 19.161C35.1157 19.8773 35.9538 20.9639 36.3 22.388C36.5073 23.2404 36.6701 24.1083 36.7798 24.9797C37.0078 26.7826 35.6744 28.5167 33.8647 28.6235C32.12 28.7268 30.3634 28.6459 28.6119 28.6459V28.6924ZM28.6667 26.7413C30.2245 26.7413 31.7841 26.7568 33.3419 26.7361C34.4422 26.7206 35.0163 25.9905 34.8244 24.9108C34.7301 24.3839 34.6222 23.8586 34.5382 23.33C34.3017 21.8404 33.4448 20.8985 32.0223 20.48C31.8184 20.4198 31.515 20.4559 31.3419 20.573C29.5219 21.8025 27.7807 21.8043 25.9195 20.5644C25.7824 20.4731 25.5613 20.406 25.4139 20.449C24.0326 20.8485 23.1123 21.7096 22.8227 23.1664C22.7181 23.6916 22.6273 24.2185 22.5245 24.7455C22.2725 26.037 22.821 26.7327 24.12 26.7413C25.635 26.7516 27.1517 26.743 28.6667 26.7413ZM28.3497 7.90237C27.0043 7.95747 26.0532 9.09745 26 10.4561C25.9623 11.4205 25.9623 12.3882 26 13.3526C26.0532 14.682 27.0506 15.7445 28.3034 15.8702C29.6367 16.0045 30.8329 15.221 31.1534 13.9088C31.3008 13.3061 31.2734 12.6603 31.3317 11.9663C31.3317 10.5663 31.7464 7.76288 28.3497 7.90064V7.90237ZM27.2186 17.7007C27.3334 18.2535 27.2922 18.9009 27.5904 19.2746C27.9486 19.7258 29.4636 19.6862 29.7327 19.2505C29.9846 18.8424 29.9281 18.2431 30.012 17.7024C29.4516 17.7523 29.0523 17.8161 28.6513 17.8161C28.2503 17.8161 27.8475 17.7541 27.2203 17.7007H27.2186Z" fill="#6666FF"/>
<path d="M28.4627 50.4363C23.6538 50.4363 18.8448 50.4363 14.0359 50.4363C13.8011 50.4363 13.5629 50.4484 13.3316 50.4122C12.8791 50.3382 12.6083 50.0541 12.5586 49.596C12.5055 49.1121 12.7095 48.747 13.1756 48.5938C13.4121 48.5163 13.6795 48.5077 13.9331 48.5077C23.6366 48.5042 33.3401 48.5042 43.0436 48.5077C43.2767 48.5077 43.5184 48.5163 43.7395 48.5817C44.2107 48.7212 44.4301 49.0708 44.3941 49.5581C44.3581 50.0506 44.0771 50.3468 43.5938 50.4157C43.3624 50.4484 43.1242 50.4363 42.8894 50.4363C38.0805 50.4363 33.2716 50.4363 28.4627 50.4363Z" fill="#6666FF"/>
<path d="M28.4713 53.7392C33.3024 53.7392 38.1319 53.7392 42.9631 53.7392C43.1773 53.7392 43.4481 53.6651 43.5921 53.7685C43.8937 53.982 44.2485 54.2489 44.365 54.5709C44.5244 55.0152 44.2587 55.4182 43.7926 55.5731C43.5372 55.6575 43.2476 55.6679 42.9751 55.6679C33.3144 55.673 23.6538 55.6713 13.9914 55.6679C13.7377 55.6679 13.4704 55.6713 13.2322 55.6007C12.7352 55.4543 12.5021 55.0875 12.5638 54.5709C12.6221 54.0853 12.9203 53.8046 13.4053 53.7495C13.6161 53.7254 13.832 53.7375 14.0462 53.7375C18.8551 53.7375 23.6641 53.7375 28.473 53.7375L28.4713 53.7392Z" fill="#6666FF"/>
<path d="M28.4781 60.8615C23.6692 60.8615 18.8603 60.8615 14.0514 60.8615C13.8372 60.8615 13.6229 60.8735 13.4104 60.8511C12.9254 60.7995 12.6238 60.5222 12.5621 60.0366C12.497 59.5217 12.7266 59.1498 13.2236 59.0017C13.4636 58.9311 13.7292 58.9311 13.9828 58.9311C23.6435 58.9276 33.3042 58.9276 42.9666 58.9311C43.2202 58.9311 43.4875 58.9311 43.7258 59C44.2228 59.1463 44.4524 59.5148 44.3907 60.0315C44.3307 60.5205 44.0325 60.796 43.5475 60.8494C43.3367 60.8735 43.1208 60.8597 42.9066 60.8597C38.0977 60.8597 33.2887 60.8597 28.4798 60.8597L28.4781 60.8615Z" fill="#6666FF"/>
<path d="M28.4696 43.3106C33.3642 43.3106 38.2588 43.3072 43.1534 43.321C43.4567 43.321 43.8578 43.3657 44.036 43.5569C44.2485 43.7842 44.3976 44.2164 44.3376 44.5126C44.2828 44.7795 43.94 45.0292 43.6675 45.1911C43.4893 45.2978 43.21 45.2427 42.9752 45.2427C33.3145 45.2445 23.6521 45.2427 13.9914 45.2427C13.8201 45.2427 13.6487 45.2531 13.479 45.2358C12.8912 45.1739 12.5244 44.7623 12.5519 44.2112C12.5793 43.6912 12.9529 43.3296 13.5287 43.3158C14.2759 43.2986 15.0249 43.3106 15.7721 43.3106C20.0034 43.3106 24.2365 43.3106 28.4679 43.3106H28.4696Z" fill="#6666FF"/>
<path d="M28.5382 32.8734C33.3471 32.8734 38.156 32.8734 42.9666 32.8734C43.1809 32.8734 43.4019 32.851 43.6059 32.8958C44.1286 33.0129 44.4285 33.3435 44.3977 33.9015C44.3685 34.4301 44.0498 34.7126 43.5493 34.7935C43.3608 34.8228 43.1654 34.8055 42.9735 34.8055C33.3128 34.8055 23.6504 34.8055 13.9898 34.8055C13.7978 34.8055 13.6007 34.8245 13.4139 34.7952C12.8809 34.7108 12.5605 34.4009 12.557 33.8447C12.5536 33.2867 12.8792 32.9768 13.4071 32.8872C13.6162 32.8528 13.8338 32.8717 14.0463 32.8717C18.8775 32.8717 23.707 32.8717 28.5382 32.8717V32.8734Z" fill="#6666FF"/>
<path d="M28.4044 40.0198C23.6384 40.0198 18.8723 40.0198 14.1062 40.0198C13.8509 40.0198 13.5904 40.0267 13.3385 39.9871C12.8552 39.9113 12.5775 39.6065 12.5535 39.114C12.5278 38.5957 12.7798 38.2479 13.2905 38.1359C13.5167 38.086 13.7566 38.0894 13.9914 38.0894C23.6521 38.0877 33.311 38.0877 42.9717 38.0894C43.2065 38.0894 43.4464 38.0894 43.6727 38.1394C44.1525 38.2461 44.3993 38.5716 44.3959 39.0641C44.3925 39.5566 44.1405 39.8803 43.6589 39.9768C43.4104 40.0267 43.1482 40.0198 42.8929 40.0198C38.0634 40.0215 33.2322 40.0198 28.4027 40.0198H28.4044Z" fill="#6666FF"/>
<path d="M9.96053 53.7409C10.4832 53.7495 10.8911 54.1611 10.898 54.6829C10.9031 55.2218 10.4507 55.6782 9.92282 55.6661C9.39669 55.6541 8.95281 55.1736 8.98195 54.645C9.00937 54.1318 9.44125 53.734 9.96224 53.7426L9.96053 53.7409Z" fill="#6666FF"/>
<path d="M9.92283 58.9345C10.4267 58.9225 10.8688 59.3409 10.8963 59.8524C10.9254 60.3982 10.5055 60.8494 9.96054 60.8597C9.44126 60.8684 9.00766 60.4706 8.98024 59.9557C8.95111 59.427 9.39327 58.9466 9.92112 58.9345H9.92283Z" fill="#6666FF"/>
<path d="M10.898 44.2629C10.9014 44.8036 10.4473 45.2531 9.91601 45.2376C9.40872 45.2221 8.9837 44.7864 8.97856 44.2767C8.97342 43.7411 9.42586 43.2986 9.96571 43.3106C10.4833 43.3227 10.8946 43.7428 10.898 44.2629Z" fill="#6666FF"/>
<path d="M9.97081 34.8055C9.43439 34.821 8.97681 34.3785 8.97852 33.8412C8.97852 33.3315 9.40183 32.8958 9.91083 32.8786C10.4455 32.8614 10.8997 33.3057 10.898 33.8464C10.898 34.363 10.4832 34.7918 9.97081 34.8073V34.8055Z" fill="#6666FF"/>
<path d="M9.92803 48.5111C10.4319 48.5025 10.8723 48.921 10.898 49.4324C10.9255 49.98 10.5073 50.4243 9.95717 50.4312C9.43617 50.4381 9.00772 50.0386 8.98202 49.5254C8.95631 48.9967 9.4019 48.5197 9.92975 48.5111H9.92803Z" fill="#6666FF"/>
<path d="M9.96231 38.0963C10.5039 38.1066 10.9255 38.563 10.898 39.1071C10.8706 39.6255 10.4456 40.0198 9.92289 40.0095C9.40704 39.9991 8.98887 39.579 8.9803 39.0675C8.97345 38.5303 9.42246 38.086 9.96231 38.0963Z" fill="#6666FF"/>
<path d="M52.2965 10.9297C52.7284 11.2569 53.1414 11.4583 53.3933 11.7838C53.952 12.5122 54.4079 13.3216 54.9546 14.062C55.138 14.3117 55.4448 14.527 55.7395 14.6269C56.5879 14.9127 57.4636 15.1176 58.3205 15.3794C59.4208 15.7152 59.695 16.5865 59.0077 17.5164C58.8295 17.7575 58.6701 18.0244 58.4508 18.2225C57.1791 19.3728 56.8175 20.8003 57.1003 22.45C57.1534 22.7652 57.1551 23.0923 57.15 23.4144C57.1311 24.4028 56.3891 24.9418 55.4533 24.6267C54.5844 24.3339 53.7378 23.9706 52.8638 23.6968C52.5502 23.5986 52.1577 23.59 51.8458 23.6847C51.0112 23.9396 50.2005 24.2788 49.3779 24.5733C48.2108 24.99 47.455 24.408 47.5065 23.1492C47.5424 22.2692 47.599 21.391 47.5904 20.511C47.587 20.2183 47.4688 19.8842 47.2991 19.6466C46.7764 18.9164 46.192 18.2293 45.6504 17.5113C44.9598 16.5969 45.2511 15.7049 46.3462 15.3794C47.2254 15.1176 48.1183 14.9024 48.9906 14.62C49.2477 14.5373 49.5133 14.3359 49.6727 14.1154C50.2108 13.3698 50.6735 12.5673 51.2288 11.8337C51.4807 11.5014 51.8784 11.281 52.3034 10.9331L52.2965 10.9297ZM56.9443 17.0136C56.2125 16.7983 55.5733 16.5659 54.9135 16.4264C54.2537 16.2869 53.8132 15.9287 53.4756 15.3622C53.1311 14.7853 52.7353 14.2411 52.24 13.5007C51.4413 15.7496 49.8766 16.7622 47.6401 16.9275C48.192 17.637 48.6067 18.2087 49.0626 18.7442C49.4345 19.1799 49.5767 19.6483 49.5459 20.22C49.5065 20.9398 49.5356 21.6631 49.5356 22.6033C51.4053 21.2481 53.2648 21.3789 55.1089 22.5344C55.1089 21.6527 55.054 20.9191 55.1277 20.2011C55.1774 19.7189 55.3317 19.2075 55.5819 18.7942C55.952 18.1829 56.4473 17.6473 56.9426 17.0119L56.9443 17.0136Z" fill="#FFC01F"/>
</g>
<defs>
<filter id="filter0_d_602_937" x="0" y="0" width="70" height="74" filterUnits="userSpaceOnUse" color-interpolation-filters="sRGB">
<feFlood flood-opacity="0" result="BackgroundImageFix"/>
<feColorMatrix in="SourceAlpha" type="matrix" values="0 0 0 0 0 0 0 0 0 0 0 0 0 0 0 0 0 0 127 0" result="hardAlpha"/>
<feOffset dy="4"/>
<feGaussianBlur stdDeviation="2"/>
<feComposite in2="hardAlpha" operator="out"/>
<feColorMatrix type="matrix" values="0 0 0 0 0 0 0 0 0 0 0 0 0 0 0 0 0 0 0.25 0"/>
<feBlend mode="normal" in2="BackgroundImageFix" result="effect1_dropShadow_602_937"/>
<feBlend mode="normal" in="SourceGraphic" in2="effect1_dropShadow_602_937" result="shape"/>
</filter>
<clipPath id="clip0_602_937">
<rect width="62" height="66" fill="white" transform="translate(4)"/>
</clipPath>
</defs>
</svg>
