<svg width="488" height="478" viewBox="0 0 488 478" fill="none" xmlns="http://www.w3.org/2000/svg">
<rect width="468.884" height="51.1271" rx="25.5636" transform="matrix(0.707107 -0.707107 -0.707107 -0.707107 -265.848 557.703)" fill="#6666FF"/>
<g filter="url(#filter0_d_795_1600)">
<rect width="883.022" height="235.952" rx="117.976" transform="matrix(0.707107 -0.707107 -0.707107 -0.707107 -137.157 791.234)" fill="#181874"/>
</g>
<rect width="468.884" height="51.1271" rx="25.5636" transform="matrix(0.707107 -0.707107 -0.707107 -0.707107 19.1523 664.703)" fill="#FFC01F"/>
<rect width="400.294" height="12.4239" rx="6.21196" transform="matrix(0.707107 -0.707107 -0.707107 -0.707107 -62.2148 680.836)" fill="#6666FF"/>
<rect width="68.6071" height="3.51766" rx="1.75883" transform="matrix(0.707107 -0.707107 -0.707107 -0.707107 323.487 393)" fill="#FFC01F"/>
<rect width="30.7017" height="3.51766" rx="1.75883" transform="matrix(0.707107 -0.707107 -0.707107 -0.707107 227.487 358.196)" fill="#A63AE6"/>
<path d="M334.313 162.472H326.216L320.691 168.572V147.014C320.716 145.903 319.803 145 318.692 145C317.929 145 317.215 145.448 316.883 146.127L307.849 164.585C307.849 164.585 306.115 168.083 304.025 169.749C302.083 171.29 300.499 171.862 298.16 171.862C291.855 171.862 286.728 166.74 286.728 160.441C286.728 154.142 291.855 149.02 298.16 149.02C300.059 149.02 301.934 149.492 303.602 150.396C304.108 150.669 304.68 150.719 305.228 150.537C305.734 150.371 306.157 149.998 306.389 149.517C306.87 148.547 306.489 147.37 305.535 146.857C303.378 145.696 300.939 145.05 298.466 145.025H297.977C289.548 145.091 282.696 152.02 282.696 160.441C282.696 168.862 289.631 175.89 298.16 175.89C301.428 175.89 303.859 175.028 306.53 172.906C309.351 170.669 311.383 166.533 311.474 166.359L316.717 155.708V173.818C316.717 174.904 317.597 175.782 318.683 175.782C319.206 175.782 319.712 175.567 320.077 175.202L328 166.458H334.271C335.35 166.458 336.279 165.621 336.312 164.544C336.354 163.416 335.441 162.48 334.321 162.48L334.313 162.472ZM291.44 162.43C290.337 162.43 289.449 161.535 289.449 160.441C289.449 155.642 293.356 151.73 298.168 151.73C299.271 151.73 300.159 152.625 300.159 153.719C300.159 154.813 299.263 155.708 298.168 155.708C295.563 155.708 293.439 157.83 293.439 160.433C293.439 161.535 292.543 162.422 291.448 162.422L291.44 162.43ZM298.201 158.485C299.304 158.485 300.192 159.38 300.192 160.474C300.192 161.568 299.296 162.463 298.201 162.463C297.106 162.463 296.21 161.568 296.21 160.474C296.21 159.38 297.106 158.485 298.201 158.485Z" fill="white"/>
<path d="M258.464 193.312C257.701 192.856 257.103 192.235 256.664 191.439C256.224 190.643 256.008 189.773 256.008 188.82C256.008 187.867 256.224 187.005 256.664 186.217C257.103 185.43 257.701 184.808 258.464 184.344C259.227 183.88 260.065 183.656 260.986 183.656C261.641 183.656 262.205 183.739 262.686 183.913C263.168 184.087 263.649 184.369 264.138 184.767C264.238 184.841 264.312 184.924 264.346 185.007C264.379 185.09 264.395 185.19 264.395 185.297C264.395 185.471 264.329 185.612 264.205 185.72C264.08 185.836 263.939 185.886 263.773 185.886C263.607 185.886 263.458 185.828 263.317 185.72C262.96 185.422 262.62 185.198 262.28 185.065C261.948 184.933 261.508 184.866 260.978 184.866C260.306 184.866 259.692 185.04 259.128 185.397C258.563 185.753 258.115 186.226 257.784 186.839C257.452 187.444 257.286 188.107 257.286 188.82C257.286 189.533 257.452 190.204 257.784 190.809C258.115 191.414 258.563 191.886 259.128 192.243C259.692 192.599 260.306 192.773 260.978 192.773C261.807 192.773 262.595 192.492 263.358 191.92C263.508 191.82 263.649 191.762 263.782 191.762C263.947 191.762 264.08 191.82 264.188 191.936C264.296 192.052 264.346 192.201 264.346 192.392C264.346 192.583 264.279 192.732 264.138 192.873C263.209 193.619 262.156 193.992 260.969 193.992C260.048 193.992 259.202 193.768 258.447 193.304L258.464 193.312Z" fill="white"/>
<path d="M270.866 187.229C271.405 187.544 271.829 187.975 272.144 188.522C272.459 189.069 272.617 189.674 272.617 190.345V193.221C272.617 193.412 272.55 193.569 272.426 193.694C272.301 193.818 272.144 193.884 271.953 193.884C271.762 193.884 271.605 193.818 271.48 193.694C271.356 193.569 271.289 193.412 271.289 193.221V192.74C270.991 193.113 270.626 193.395 270.194 193.602C269.763 193.81 269.298 193.909 268.801 193.909C268.178 193.909 267.623 193.752 267.116 193.445C266.61 193.138 266.212 192.707 265.93 192.16C265.64 191.613 265.499 191.008 265.499 190.337C265.499 189.666 265.656 189.06 265.963 188.513C266.27 187.966 266.702 187.535 267.249 187.22C267.797 186.906 268.402 186.748 269.066 186.748C269.73 186.748 270.327 186.906 270.866 187.22V187.229ZM270.236 192.442C270.584 192.235 270.858 191.945 271.057 191.58C271.256 191.215 271.356 190.801 271.356 190.345C271.356 189.889 271.256 189.475 271.057 189.102C270.858 188.729 270.584 188.439 270.236 188.232C269.887 188.024 269.497 187.917 269.066 187.917C268.635 187.917 268.245 188.024 267.896 188.232C267.548 188.439 267.274 188.729 267.067 189.102C266.868 189.475 266.76 189.881 266.76 190.345C266.76 190.809 266.859 191.215 267.067 191.58C267.266 191.945 267.548 192.235 267.896 192.442C268.245 192.649 268.635 192.757 269.066 192.757C269.497 192.757 269.887 192.649 270.236 192.442Z" fill="white"/>
<path d="M279.112 186.939C279.369 187.08 279.502 187.245 279.502 187.453C279.502 187.511 279.502 187.552 279.486 187.585C279.411 187.859 279.237 188 278.971 188C278.93 188 278.863 187.991 278.78 187.975C278.432 187.917 278.158 187.884 277.943 187.884C277.32 187.884 276.823 188.024 276.441 188.306C276.059 188.588 275.869 188.969 275.869 189.458V193.229C275.869 193.437 275.819 193.594 275.711 193.71C275.603 193.826 275.446 193.876 275.23 193.876C275.014 193.876 274.865 193.826 274.749 193.718C274.633 193.611 274.583 193.453 274.583 193.238V187.469C274.583 187.262 274.641 187.104 274.749 186.988C274.857 186.881 275.022 186.823 275.23 186.823C275.661 186.823 275.877 187.038 275.877 187.469V187.718C276.134 187.419 276.458 187.179 276.831 187.005C277.213 186.831 277.611 186.748 278.042 186.748C278.498 186.748 278.855 186.814 279.112 186.955V186.939Z" fill="white"/>
<path d="M286.512 190.635C286.396 190.743 286.255 190.792 286.089 190.792H281.178C281.269 191.397 281.543 191.878 281.999 192.251C282.447 192.624 283.003 192.806 283.658 192.806C283.916 192.806 284.189 192.757 284.463 192.665C284.745 192.574 284.977 192.458 285.152 192.317C285.276 192.226 285.417 192.176 285.575 192.176C285.732 192.176 285.865 192.218 285.965 192.309C286.122 192.442 286.197 192.583 286.197 192.748C286.197 192.906 286.131 193.03 285.99 193.138C285.699 193.37 285.334 193.561 284.895 193.71C284.463 193.859 284.04 193.925 283.65 193.925C282.945 193.925 282.315 193.776 281.75 193.469C281.195 193.163 280.755 192.74 280.44 192.201C280.124 191.663 279.967 191.041 279.967 190.353C279.967 189.665 280.116 189.043 280.415 188.505C280.713 187.958 281.128 187.535 281.659 187.228C282.19 186.922 282.787 186.772 283.459 186.772C284.131 186.772 284.695 186.922 285.177 187.212C285.658 187.502 286.031 187.916 286.288 188.438C286.545 188.961 286.678 189.566 286.678 190.245C286.678 190.411 286.62 190.544 286.512 190.651V190.635ZM281.933 188.38C281.543 188.728 281.294 189.184 281.186 189.765H285.492C285.417 189.184 285.201 188.728 284.845 188.38C284.488 188.032 284.032 187.867 283.459 187.867C282.829 187.867 282.323 188.041 281.925 188.38H281.933Z" fill="white"/>
<path d="M299.885 193.212C299.885 193.395 299.819 193.544 299.694 193.676C299.561 193.809 299.404 193.867 299.213 193.867C299.08 193.867 298.964 193.834 298.848 193.759C298.732 193.685 298.649 193.585 298.599 193.453L297.877 191.646H293.24L292.502 193.453C292.444 193.585 292.352 193.685 292.245 193.759C292.128 193.834 292.012 193.867 291.879 193.867C291.689 193.867 291.531 193.801 291.407 193.668C291.282 193.536 291.216 193.378 291.216 193.196C291.216 193.113 291.241 193.013 291.282 192.897L294.916 184.236C295.049 183.938 295.256 183.78 295.546 183.78C295.853 183.78 296.069 183.929 296.177 184.236L299.819 192.922C299.86 193.038 299.885 193.129 299.885 193.204V193.212ZM293.68 190.543H297.413L295.563 185.952L293.68 190.543Z" fill="white"/>
<path d="M302.15 193.652C301.635 193.47 301.229 193.238 300.939 192.939C300.822 192.832 300.773 192.691 300.773 192.542C300.773 192.334 300.856 192.169 301.03 192.036C301.196 191.912 301.345 191.854 301.478 191.854C301.652 191.854 301.81 191.928 301.967 192.086C302.133 192.268 302.374 192.426 302.706 192.558C303.029 192.691 303.378 192.757 303.751 192.757C304.24 192.757 304.622 192.674 304.896 192.508C305.17 192.343 305.302 192.127 305.302 191.854C305.302 191.58 305.17 191.365 304.904 191.191C304.639 191.017 304.182 190.867 303.544 190.743C301.893 190.428 301.063 189.748 301.063 188.704C301.063 188.281 301.187 187.925 301.436 187.635C301.685 187.345 302.017 187.121 302.415 186.98C302.822 186.831 303.253 186.765 303.709 186.765C304.265 186.765 304.771 186.856 305.211 187.038C305.651 187.221 306.007 187.469 306.265 187.784C306.372 187.925 306.43 188.058 306.43 188.199C306.43 188.348 306.356 188.48 306.215 188.596C306.124 188.663 305.999 188.696 305.85 188.696C305.626 188.696 305.427 188.613 305.244 188.447C305.028 188.248 304.804 188.107 304.556 188.024C304.315 187.942 304.025 187.9 303.676 187.9C303.278 187.9 302.955 187.966 302.697 188.099C302.44 188.232 302.316 188.422 302.316 188.663C302.316 188.837 302.357 188.978 302.448 189.094C302.531 189.21 302.697 189.317 302.938 189.417C303.179 189.516 303.527 189.616 303.983 189.707C304.921 189.898 305.584 190.163 305.983 190.494C306.372 190.826 306.572 191.265 306.572 191.796C306.572 192.193 306.464 192.55 306.248 192.873C306.032 193.196 305.717 193.453 305.302 193.636C304.887 193.818 304.381 193.909 303.801 193.909C303.22 193.909 302.664 193.818 302.15 193.636V193.652Z" fill="white"/>
<path d="M309.16 193.652C308.645 193.47 308.239 193.238 307.949 192.939C307.832 192.832 307.783 192.691 307.783 192.542C307.783 192.334 307.866 192.169 308.04 192.036C308.206 191.912 308.355 191.854 308.488 191.854C308.662 191.854 308.82 191.928 308.977 192.086C309.143 192.268 309.384 192.426 309.716 192.558C310.039 192.691 310.388 192.757 310.761 192.757C311.25 192.757 311.632 192.674 311.906 192.508C312.18 192.343 312.312 192.127 312.312 191.854C312.312 191.58 312.18 191.365 311.914 191.191C311.649 191.017 311.192 190.867 310.554 190.743C308.903 190.428 308.073 189.748 308.073 188.704C308.073 188.281 308.198 187.925 308.446 187.635C308.695 187.345 309.027 187.121 309.425 186.98C309.832 186.831 310.263 186.765 310.719 186.765C311.275 186.765 311.781 186.856 312.221 187.038C312.661 187.221 313.017 187.469 313.275 187.784C313.382 187.925 313.44 188.058 313.44 188.199C313.44 188.348 313.366 188.48 313.225 188.596C313.134 188.663 313.009 188.696 312.86 188.696C312.636 188.696 312.437 188.613 312.254 188.447C312.038 188.248 311.815 188.107 311.566 188.024C311.325 187.942 311.035 187.9 310.686 187.9C310.288 187.9 309.965 187.966 309.707 188.099C309.45 188.232 309.326 188.422 309.326 188.663C309.326 188.837 309.367 188.978 309.458 189.094C309.541 189.21 309.707 189.317 309.948 189.417C310.189 189.516 310.537 189.616 310.993 189.707C311.931 189.898 312.594 190.163 312.993 190.494C313.382 190.826 313.582 191.265 313.582 191.796C313.582 192.193 313.474 192.55 313.258 192.873C313.042 193.196 312.727 193.453 312.312 193.636C311.897 193.818 311.391 193.909 310.811 193.909C310.23 193.909 309.674 193.818 309.16 193.636V193.652Z" fill="white"/>
<path d="M315.448 185.414C315.282 185.248 315.199 185.049 315.199 184.817C315.199 184.585 315.282 184.386 315.448 184.22C315.614 184.055 315.813 183.972 316.045 183.972C316.278 183.972 316.477 184.055 316.643 184.22C316.809 184.386 316.892 184.585 316.892 184.817C316.892 185.049 316.809 185.248 316.643 185.414C316.477 185.58 316.278 185.662 316.045 185.662C315.813 185.662 315.614 185.58 315.448 185.414ZM315.581 193.685C315.456 193.561 315.39 193.404 315.39 193.213V187.469C315.39 187.27 315.456 187.113 315.581 186.989C315.705 186.864 315.863 186.806 316.054 186.806C316.244 186.806 316.41 186.864 316.535 186.989C316.659 187.113 316.717 187.27 316.717 187.469V193.213C316.717 193.404 316.659 193.561 316.535 193.685C316.41 193.81 316.253 193.876 316.054 193.876C315.855 193.876 315.705 193.81 315.581 193.685Z" fill="white"/>
<path d="M320.077 193.652C319.563 193.47 319.156 193.238 318.866 192.939C318.75 192.832 318.7 192.691 318.7 192.542C318.7 192.334 318.783 192.169 318.957 192.036C319.123 191.912 319.273 191.854 319.414 191.854C319.588 191.854 319.745 191.928 319.903 192.086C320.069 192.268 320.31 192.426 320.641 192.558C320.965 192.691 321.313 192.757 321.687 192.757C322.176 192.757 322.558 192.674 322.832 192.508C323.105 192.343 323.238 192.127 323.238 191.854C323.238 191.58 323.105 191.365 322.84 191.191C322.574 191.017 322.118 190.867 321.479 190.743C319.828 190.428 318.999 189.748 318.999 188.704C318.999 188.281 319.123 187.925 319.372 187.635C319.621 187.345 319.953 187.121 320.351 186.98C320.758 186.831 321.189 186.765 321.645 186.765C322.201 186.765 322.707 186.856 323.147 187.038C323.586 187.221 323.943 187.469 324.2 187.784C324.308 187.925 324.366 188.058 324.366 188.199C324.366 188.348 324.292 188.48 324.151 188.596C324.059 188.663 323.935 188.696 323.786 188.696C323.562 188.696 323.362 188.613 323.18 188.447C322.964 188.248 322.74 188.107 322.491 188.024C322.251 187.942 321.96 187.9 321.612 187.9C321.214 187.9 320.89 187.966 320.633 188.099C320.376 188.232 320.252 188.422 320.252 188.663C320.252 188.837 320.293 188.978 320.384 189.094C320.467 189.21 320.633 189.317 320.874 189.417C321.114 189.516 321.463 189.616 321.919 189.707C322.856 189.898 323.52 190.163 323.918 190.494C324.308 190.826 324.507 191.265 324.507 191.796C324.507 192.193 324.399 192.55 324.184 192.873C323.968 193.196 323.653 193.453 323.238 193.636C322.823 193.818 322.317 193.909 321.736 193.909C321.156 193.909 320.6 193.818 320.086 193.636L320.077 193.652Z" fill="white"/>
<path d="M329.584 192.757C329.692 192.881 329.742 193.031 329.742 193.221C329.742 193.412 329.667 193.569 329.526 193.685C329.385 193.81 329.203 193.868 328.979 193.868H328.746C328.323 193.868 327.942 193.76 327.593 193.536C327.245 193.312 326.971 193.014 326.772 192.641C326.573 192.26 326.473 191.837 326.473 191.365V188.174H325.876C325.694 188.174 325.553 188.124 325.436 188.016C325.32 187.917 325.271 187.784 325.271 187.627C325.271 187.453 325.329 187.32 325.436 187.212C325.544 187.113 325.694 187.055 325.876 187.055H326.473V185.198C326.473 185.008 326.531 184.85 326.656 184.734C326.78 184.61 326.93 184.552 327.12 184.552C327.311 184.552 327.469 184.61 327.585 184.734C327.709 184.858 327.768 185.008 327.768 185.198V187.055H328.863C329.045 187.055 329.186 187.105 329.302 187.212C329.41 187.312 329.468 187.453 329.468 187.627C329.468 187.784 329.41 187.908 329.302 188.016C329.186 188.116 329.045 188.174 328.863 188.174H327.768V191.365C327.768 191.713 327.859 191.995 328.05 192.227C328.24 192.459 328.473 192.575 328.746 192.575H329.186C329.344 192.575 329.477 192.633 329.576 192.757H329.584Z" fill="white"/>
<path d="M336.362 187.229C336.901 187.544 337.324 187.975 337.64 188.522C337.955 189.069 338.112 189.674 338.112 190.345V193.221C338.112 193.412 338.046 193.569 337.922 193.694C337.797 193.818 337.64 193.884 337.449 193.884C337.258 193.884 337.1 193.818 336.976 193.694C336.852 193.569 336.785 193.412 336.785 193.221V192.74C336.486 193.113 336.121 193.395 335.69 193.602C335.259 193.81 334.794 193.909 334.296 193.909C333.674 193.909 333.118 193.752 332.612 193.445C332.106 193.138 331.708 192.707 331.426 192.16C331.136 191.613 330.995 191.008 330.995 190.337C330.995 189.666 331.152 189.06 331.459 188.513C331.766 187.966 332.198 187.535 332.745 187.22C333.293 186.906 333.898 186.748 334.562 186.748C335.226 186.748 335.823 186.906 336.362 187.22V187.229ZM335.732 192.442C336.08 192.235 336.354 191.945 336.553 191.58C336.752 191.215 336.852 190.801 336.852 190.345C336.852 189.889 336.752 189.475 336.553 189.102C336.354 188.729 336.08 188.439 335.732 188.232C335.383 188.024 334.993 187.917 334.562 187.917C334.13 187.917 333.741 188.024 333.392 188.232C333.044 188.439 332.77 188.729 332.563 189.102C332.363 189.475 332.256 189.881 332.256 190.345C332.256 190.809 332.355 191.215 332.563 191.58C332.762 191.945 333.044 192.235 333.392 192.442C333.741 192.649 334.13 192.757 334.562 192.757C334.993 192.757 335.383 192.649 335.732 192.442Z" fill="white"/>
<path d="M345.197 187.129C345.67 187.386 346.043 187.767 346.309 188.256C346.574 188.754 346.707 189.351 346.707 190.047V193.221C346.707 193.412 346.641 193.569 346.516 193.694C346.392 193.818 346.234 193.884 346.043 193.884C345.853 193.884 345.695 193.818 345.57 193.694C345.446 193.569 345.38 193.412 345.38 193.221V190.047C345.38 189.351 345.189 188.82 344.816 188.464C344.442 188.107 343.944 187.925 343.322 187.925C342.957 187.925 342.634 188 342.335 188.14C342.036 188.29 341.804 188.489 341.638 188.737C341.472 188.986 341.389 189.268 341.389 189.574V193.213C341.389 193.403 341.331 193.561 341.207 193.685C341.082 193.81 340.925 193.876 340.726 193.876C340.527 193.876 340.377 193.81 340.253 193.685C340.128 193.561 340.062 193.403 340.062 193.213V187.453C340.062 187.254 340.128 187.096 340.253 186.972C340.377 186.847 340.535 186.789 340.726 186.789C340.916 186.789 341.082 186.847 341.207 186.972C341.331 187.096 341.389 187.254 341.389 187.453V187.593C341.663 187.32 341.995 187.104 342.368 186.955C342.75 186.806 343.148 186.731 343.579 186.731C344.177 186.731 344.708 186.864 345.181 187.121L345.197 187.129Z" fill="white"/>
<path d="M350.258 193.461C349.718 193.154 349.287 192.723 348.988 192.176C348.681 191.629 348.532 191.024 348.532 190.353C348.532 189.682 348.681 189.043 348.98 188.505C349.279 187.958 349.693 187.535 350.224 187.228C350.755 186.922 351.361 186.772 352.033 186.772C353.053 186.772 353.891 187.162 354.563 187.933C354.646 188.024 354.696 188.14 354.696 188.264C354.696 188.455 354.605 188.612 354.414 188.745C354.331 188.803 354.231 188.836 354.115 188.836C353.916 188.836 353.75 188.762 353.609 188.604C353.393 188.372 353.161 188.198 352.904 188.09C352.647 187.983 352.356 187.933 352.033 187.933C351.369 187.933 350.83 188.157 350.415 188.596C350 189.035 349.793 189.624 349.793 190.361C349.793 190.825 349.893 191.24 350.083 191.604C350.274 191.969 350.548 192.259 350.896 192.466C351.245 192.674 351.643 192.773 352.091 192.773C352.68 192.773 353.153 192.624 353.509 192.317C353.675 192.193 353.833 192.135 353.991 192.135C354.115 192.135 354.223 192.176 354.322 192.251C354.488 192.392 354.571 192.541 354.571 192.715C354.571 192.848 354.522 192.964 354.414 193.063C353.792 193.643 353.02 193.925 352.091 193.925C351.411 193.925 350.797 193.768 350.258 193.461Z" fill="white"/>
<path d="M362.826 190.635C362.71 190.743 362.569 190.792 362.403 190.792H357.491C357.583 191.397 357.856 191.878 358.313 192.251C358.769 192.624 359.317 192.806 359.972 192.806C360.229 192.806 360.503 192.757 360.777 192.665C361.059 192.574 361.291 192.458 361.465 192.317C361.59 192.226 361.731 192.176 361.888 192.176C362.046 192.176 362.179 192.218 362.278 192.309C362.436 192.442 362.51 192.583 362.51 192.748C362.51 192.906 362.444 193.03 362.303 193.138C362.013 193.37 361.648 193.561 361.208 193.71C360.777 193.859 360.354 193.925 359.964 193.925C359.258 193.925 358.628 193.776 358.064 193.469C357.5 193.163 357.068 192.74 356.753 192.201C356.438 191.663 356.28 191.041 356.28 190.353C356.28 189.665 356.43 189.043 356.728 188.505C357.027 187.958 357.442 187.535 357.973 187.228C358.504 186.922 359.101 186.772 359.773 186.772C360.445 186.772 361.009 186.922 361.49 187.212C361.971 187.502 362.345 187.916 362.602 188.438C362.859 188.961 362.992 189.566 362.992 190.245C362.992 190.411 362.934 190.544 362.826 190.651V190.635ZM358.246 188.38C357.856 188.728 357.608 189.184 357.5 189.765H361.805C361.731 189.184 361.515 188.728 361.158 188.38C360.802 188.032 360.345 187.867 359.773 187.867C359.142 187.867 358.636 188.041 358.238 188.38H358.246Z" fill="white"/>
<defs>
<filter id="filter0_d_795_1600" x="-271.133" y="25.8672" width="747.5" height="747.5" filterUnits="userSpaceOnUse" color-interpolation-filters="sRGB">
<feFlood flood-opacity="0" result="BackgroundImageFix"/>
<feColorMatrix in="SourceAlpha" type="matrix" values="0 0 0 0 0 0 0 0 0 0 0 0 0 0 0 0 0 0 127 0" result="hardAlpha"/>
<feOffset dx="11" dy="4"/>
<feGaussianBlur stdDeviation="13.5"/>
<feComposite in2="hardAlpha" operator="out"/>
<feColorMatrix type="matrix" values="0 0 0 0 0.0941176 0 0 0 0 0.0941176 0 0 0 0 0.454902 0 0 0 0.3 0"/>
<feBlend mode="multiply" in2="BackgroundImageFix" result="effect1_dropShadow_795_1600"/>
<feBlend mode="normal" in="SourceGraphic" in2="effect1_dropShadow_795_1600" result="shape"/>
</filter>
</defs>
</svg>
